ISO-10303-21;
HEADER;

/* File generated by HOOPS Exchange Version 24.2.0 */

FILE_DESCRIPTION(('HOOPS Exchange Step'),'2;1');

FILE_NAME('E:\\ROSMaster_X3Plus\\Parts\\CameraMount_Oak-D_2026-02-15-204541.step',
'2026-02-15T20:45:43+16:00',
('DELL'),
('Unknown organisation'),
'HOOPS Exchange 2024.2',
'HOOPS Exchange',
'Unknown authorisation');

FILE_SCHEMA( ('AP203_CONFIGURATION_CONTROLLED_3D_DESIGN_OF_MECHANICAL_PARTS_AND_ASSEMBLIES_MIM_LF') );

ENDSEC;

DATA;
#3=(NAMED_UNIT(*)PLANE_ANGLE_UNIT()SI_UNIT($,.RADIAN.));
#4=PLANE_ANGLE_MEASURE_WITH_UNIT(PLANE_ANGLE_MEASURE(0.0174532925),#3);
#5=(CONVERSION_BASED_UNIT('DEGREE',#4)NAMED_UNIT(#6)PLANE_ANGLE_UNIT());
#6=DIMENSIONAL_EXPONENTS(0.,0.,0.,0.,0.,0.,0.);
#7=(NAMED_UNIT(*)SI_UNIT($,.STERADIAN.)SOLID_ANGLE_UNIT());
#8=(LENGTH_UNIT()NAMED_UNIT(*)SI_UNIT(.MILLI.,.METRE.));
#9=UNCERTAINTY_MEASURE_WITH_UNIT(LENGTH_MEASURE(1.000000E-05),#8,'DISTANCE_ACCURACY_VALUE','Maximum Tolerance applied to model');
#10=(GEOMETRIC_REPRESENTATION_CONTEXT(3)GLOBAL_UNCERTAINTY_ASSIGNED_CONTEXT((#9))GLOBAL_UNIT_ASSIGNED_CONTEXT((#8,#5,#7))REPRESENTATION_CONTEXT('','root'));
#12=CARTESIAN_POINT('',(0.,0.,0.));
#13=DIRECTION('',(0.,0.,1.));
#14=DIRECTION('',(1.,0.,0.));
#15=AXIS2_PLACEMENT_3D('',#12,#13,#14);
#27=CARTESIAN_POINT('',(-10.06767413,1.951720557,-10.988193121));
#28=DIRECTION('',(0.,-1.,-0.));
#29=DIRECTION('',(0.,0.,-1.));
#30=AXIS2_PLACEMENT_3D('',#27,#28,#29);
#31=PLANE('',#30);
#32=CARTESIAN_POINT('',(-10.06767413,1.951720557,-10.988193121));
#33=VERTEX_POINT('',#32);
#34=CARTESIAN_POINT('',(-10.06767413,1.951720557,-13.471687684));
#35=VERTEX_POINT('',#34);
#36=CARTESIAN_POINT('',(-10.06767413,1.951720557,-10.988193121));
#37=DIRECTION('',(0.,0.,-1.));
#38=VECTOR('',#37,2.483494563);
#39=LINE('',#36,#38);
#40=EDGE_CURVE('',#33,#35,#39,.T.);
#41=ORIENTED_EDGE('',*,*,#40,.F.);
#42=CARTESIAN_POINT('',(9.93232587,1.951720557,-10.988193121));
#43=VERTEX_POINT('',#42);
#44=CARTESIAN_POINT('',(-10.06767413,1.951720557,-10.988193121));
#45=DIRECTION('',(1.,-0.,0.));
#46=VECTOR('',#45,20.);
#47=LINE('',#44,#46);
#48=EDGE_CURVE('',#33,#43,#47,.T.);
#49=ORIENTED_EDGE('',*,*,#48,.T.);
#50=CARTESIAN_POINT('',(9.93232587,1.951720557,-13.471687684));
#51=VERTEX_POINT('',#50);
#52=CARTESIAN_POINT('',(9.93232587,1.951720557,-10.988193121));
#53=DIRECTION('',(0.,0.,-1.));
#54=VECTOR('',#53,2.483494563);
#55=LINE('',#52,#54);
#56=EDGE_CURVE('',#43,#51,#55,.T.);
#57=ORIENTED_EDGE('',*,*,#56,.T.);
#58=CARTESIAN_POINT('',(9.93232587,1.951720557,-13.471687684));
#59=DIRECTION('',(-1.,0.,0.));
#60=VECTOR('',#59,20.);
#61=LINE('',#58,#60);
#62=EDGE_CURVE('',#51,#35,#61,.T.);
#63=ORIENTED_EDGE('',*,*,#62,.T.);
#64=EDGE_LOOP('',(#41,#49,#57,#63));
#65=FACE_BOUND('',#64,.T.);
#66=ADVANCED_FACE('',(#65),#31,.F.);
#67=CARTESIAN_POINT('',(9.93232587,2.951720557,-10.988193121));
#68=DIRECTION('',(0.,0.,-1.));
#69=DIRECTION('',(0.,1.,0.));
#70=AXIS2_PLACEMENT_3D('',#67,#68,#69);
#71=CYLINDRICAL_SURFACE('',#70,1.);
#72=ORIENTED_EDGE('',*,*,#56,.F.);
#73=CARTESIAN_POINT('',(9.93232587,3.951720557,-10.988193121));
#74=VERTEX_POINT('',#73);
#75=CARTESIAN_POINT('',(9.93232587,2.951720557,-10.988193121));
#76=DIRECTION('',(-0.,-0.,1.));
#77=DIRECTION('',(-1.,0.,-0.));
#78=AXIS2_PLACEMENT_3D('',#75,#76,#77);
#79=CIRCLE('',#78,1.);
#80=EDGE_CURVE('',#43,#74,#79,.T.);
#81=ORIENTED_EDGE('',*,*,#80,.T.);
#82=CARTESIAN_POINT('',(9.93232587,3.951720557,-13.471687684));
#83=VERTEX_POINT('',#82);
#84=CARTESIAN_POINT('',(9.93232587,3.951720557,-10.988193121));
#85=DIRECTION('',(0.,0.,-1.));
#86=VECTOR('',#85,2.483494563);
#87=LINE('',#84,#86);
#88=EDGE_CURVE('',#74,#83,#87,.T.);
#89=ORIENTED_EDGE('',*,*,#88,.T.);
#90=CARTESIAN_POINT('',(9.93232587,2.951720557,-13.471687684));
#91=DIRECTION('',(0.,0.,-1.));
#92=DIRECTION('',(-1.,0.,0.));
#93=AXIS2_PLACEMENT_3D('',#90,#91,#92);
#94=CIRCLE('',#93,1.);
#95=EDGE_CURVE('',#83,#51,#94,.T.);
#96=ORIENTED_EDGE('',*,*,#95,.T.);
#97=EDGE_LOOP('',(#72,#81,#89,#96));
#98=FACE_BOUND('',#97,.T.);
#99=ADVANCED_FACE('',(#98),#71,.F.);
#100=CARTESIAN_POINT('',(-10.06767413,3.951720557,-10.988193121));
#101=DIRECTION('',(0.,1.,0.));
#102=DIRECTION('',(0.,-0.,1.));
#103=AXIS2_PLACEMENT_3D('',#100,#101,#102);
#104=PLANE('',#103);
#105=ORIENTED_EDGE('',*,*,#88,.F.);
#106=CARTESIAN_POINT('',(-10.06767413,3.951720557,-10.988193121));
#107=VERTEX_POINT('',#106);
#108=CARTESIAN_POINT('',(9.93232587,3.951720557,-10.988193121));
#109=DIRECTION('',(-1.,0.,-0.));
#110=VECTOR('',#109,20.);
#111=LINE('',#108,#110);
#112=EDGE_CURVE('',#74,#107,#111,.T.);
#113=ORIENTED_EDGE('',*,*,#112,.T.);
#114=CARTESIAN_POINT('',(-10.06767413,3.951720557,-13.471687684));
#115=VERTEX_POINT('',#114);
#116=CARTESIAN_POINT('',(-10.06767413,3.951720557,-10.988193121));
#117=DIRECTION('',(0.,0.,-1.));
#118=VECTOR('',#117,2.483494563);
#119=LINE('',#116,#118);
#120=EDGE_CURVE('',#107,#115,#119,.T.);
#121=ORIENTED_EDGE('',*,*,#120,.T.);
#122=CARTESIAN_POINT('',(-10.06767413,3.951720557,-13.471687684));
#123=DIRECTION('',(1.,0.,-0.));
#124=VECTOR('',#123,20.);
#125=LINE('',#122,#124);
#126=EDGE_CURVE('',#115,#83,#125,.T.);
#127=ORIENTED_EDGE('',*,*,#126,.T.);
#128=EDGE_LOOP('',(#105,#113,#121,#127));
#129=FACE_BOUND('',#128,.T.);
#130=ADVANCED_FACE('',(#129),#104,.F.);
#131=CARTESIAN_POINT('',(-10.06767413,2.951720557,-10.988193121));
#132=DIRECTION('',(0.,0.,-1.));
#133=DIRECTION('',(0.,1.,0.));
#134=AXIS2_PLACEMENT_3D('',#131,#132,#133);
#135=CYLINDRICAL_SURFACE('',#134,1.);
#136=ORIENTED_EDGE('',*,*,#120,.F.);
#137=CARTESIAN_POINT('',(-10.06767413,2.951720557,-10.988193121));
#138=DIRECTION('',(-0.,-0.,1.));
#139=DIRECTION('',(-1.,0.,-0.));
#140=AXIS2_PLACEMENT_3D('',#137,#138,#139);
#141=CIRCLE('',#140,1.);
#142=EDGE_CURVE('',#107,#33,#141,.T.);
#143=ORIENTED_EDGE('',*,*,#142,.T.);
#144=ORIENTED_EDGE('',*,*,#40,.T.);
#145=CARTESIAN_POINT('',(-11.06767413,2.951720557,-13.471687684));
#146=VERTEX_POINT('',#145);
#147=CARTESIAN_POINT('',(-10.06767413,2.951720557,-13.471687684));
#148=DIRECTION('',(0.,0.,-1.));
#149=DIRECTION('',(-1.,0.,0.));
#150=AXIS2_PLACEMENT_3D('',#147,#148,#149);
#151=CIRCLE('',#150,1.);
#152=EDGE_CURVE('',#35,#146,#151,.T.);
#153=ORIENTED_EDGE('',*,*,#152,.T.);
#154=CARTESIAN_POINT('',(-10.06767413,2.951720557,-13.471687684));
#155=DIRECTION('',(0.,0.,-1.));
#156=DIRECTION('',(-1.,0.,0.));
#157=AXIS2_PLACEMENT_3D('',#154,#155,#156);
#158=CIRCLE('',#157,1.);
#159=EDGE_CURVE('',#146,#115,#158,.T.);
#160=ORIENTED_EDGE('',*,*,#159,.T.);
#161=EDGE_LOOP('',(#136,#143,#144,#153,#160));
#162=FACE_BOUND('',#161,.T.);
#163=ADVANCED_FACE('',(#162),#135,.F.);
#164=CARTESIAN_POINT('',(0.,-2.726376874,0.));
#165=DIRECTION('',(0.,-1.,-0.));
#166=DIRECTION('',(1.,0.,0.));
#167=AXIS2_PLACEMENT_3D('',#164,#165,#166);
#168=PLANE('',#167);
#169=CARTESIAN_POINT('',(22.,-2.726376874,-13.556007337));
#170=VERTEX_POINT('',#169);
#171=CARTESIAN_POINT('',(22.,-2.726376874,13.66258772));
#172=VERTEX_POINT('',#171);
#173=CARTESIAN_POINT('',(22.,-2.726376874,-13.556007337));
#174=DIRECTION('',(0.,0.,1.));
#175=VECTOR('',#174,27.218595056);
#176=LINE('',#173,#175);
#177=EDGE_CURVE('',#170,#172,#176,.T.);
#178=ORIENTED_EDGE('',*,*,#177,.T.);
#179=CARTESIAN_POINT('',(16.66258772,-2.726376874,19.));
#180=VERTEX_POINT('',#179);
#181=CARTESIAN_POINT('',(22.,-2.726376874,13.66258772));
#182=DIRECTION('',(-0.707106781,-0.,0.707106781));
#183=VECTOR('',#182,7.548240834);
#184=LINE('',#181,#183);
#185=EDGE_CURVE('',#172,#180,#184,.T.);
#186=ORIENTED_EDGE('',*,*,#185,.T.);
#187=CARTESIAN_POINT('',(-16.727713573,-2.726376874,19.));
#188=VERTEX_POINT('',#187);
#189=CARTESIAN_POINT('',(16.66258772,-2.726376874,19.));
#190=DIRECTION('',(-1.,0.,0.));
#191=VECTOR('',#190,33.390301293);
#192=LINE('',#189,#191);
#193=EDGE_CURVE('',#180,#188,#192,.T.);
#194=ORIENTED_EDGE('',*,*,#193,.T.);
#195=CARTESIAN_POINT('',(-22.,-2.726376874,13.727713573));
#196=VERTEX_POINT('',#195);
#197=CARTESIAN_POINT('',(-16.727713573,-2.726376874,19.));
#198=DIRECTION('',(-0.707106781,-0.,-0.707106781));
#199=VECTOR('',#198,7.45613897);
#200=LINE('',#197,#199);
#201=EDGE_CURVE('',#188,#196,#200,.T.);
#202=ORIENTED_EDGE('',*,*,#201,.T.);
#203=CARTESIAN_POINT('',(-22.,-2.726376874,-13.56));
#204=VERTEX_POINT('',#203);
#205=CARTESIAN_POINT('',(-22.,-2.726376874,13.727713573));
#206=DIRECTION('',(0.,0.,-1.));
#207=VECTOR('',#206,27.287713573);
#208=LINE('',#205,#207);
#209=EDGE_CURVE('',#196,#204,#208,.T.);
#210=ORIENTED_EDGE('',*,*,#209,.T.);
#211=CARTESIAN_POINT('',(-21.56,-2.726376874,-14.));
#212=VERTEX_POINT('',#211);
#213=CARTESIAN_POINT('',(-21.56,-2.726376874,-13.56));
#214=DIRECTION('',(0.,-1.,-0.));
#215=DIRECTION('',(1.,0.,0.));
#216=AXIS2_PLACEMENT_3D('',#213,#214,#215);
#217=CIRCLE('',#216,0.44);
#218=EDGE_CURVE('',#204,#212,#217,.T.);
#219=ORIENTED_EDGE('',*,*,#218,.T.);
#220=CARTESIAN_POINT('',(21.556007337,-2.726376874,-14.));
#221=VERTEX_POINT('',#220);
#222=CARTESIAN_POINT('',(-21.56,-2.726376874,-14.));
#223=DIRECTION('',(1.,0.,-0.));
#224=VECTOR('',#223,43.116007337);
#225=LINE('',#222,#224);
#226=EDGE_CURVE('',#212,#221,#225,.T.);
#227=ORIENTED_EDGE('',*,*,#226,.T.);
#228=CARTESIAN_POINT('',(21.556007337,-2.726376874,-13.556007337));
#229=DIRECTION('',(0.,-1.,-0.));
#230=DIRECTION('',(1.,0.,0.));
#231=AXIS2_PLACEMENT_3D('',#228,#229,#230);
#232=CIRCLE('',#231,0.443992663);
#233=EDGE_CURVE('',#221,#170,#232,.T.);
#234=ORIENTED_EDGE('',*,*,#233,.T.);
#235=EDGE_LOOP('',(#178,#186,#194,#202,#210,#219,#227,#234));
#236=FACE_BOUND('',#235,.T.);
#237=CARTESIAN_POINT('',(5.020570556,-2.726376874,-8.036659164));
#238=VERTEX_POINT('',#237);
#239=CARTESIAN_POINT('',(6.020570556,-2.726376874,-7.036659164));
#240=VERTEX_POINT('',#239);
#241=CARTESIAN_POINT('',(5.020570556,-2.726376874,-7.036659164));
#242=DIRECTION('',(0.,-1.,-0.));
#243=DIRECTION('',(1.,0.,0.));
#244=AXIS2_PLACEMENT_3D('',#241,#242,#243);
#245=CIRCLE('',#244,1.);
#246=EDGE_CURVE('',#238,#240,#245,.T.);
#247=ORIENTED_EDGE('',*,*,#246,.F.);
#248=CARTESIAN_POINT('',(5.020570556,-2.726376874,-7.036659164));
#249=DIRECTION('',(0.,-1.,-0.));
#250=DIRECTION('',(1.,0.,0.));
#251=AXIS2_PLACEMENT_3D('',#248,#249,#250);
#252=CIRCLE('',#251,1.);
#253=EDGE_CURVE('',#240,#238,#252,.T.);
#254=ORIENTED_EDGE('',*,*,#253,.F.);
#255=EDGE_LOOP('',(#247,#254));
#256=FACE_BOUND('',#255,.T.);
#257=CARTESIAN_POINT('',(-3.989345145,-2.726376874,-7.036659164));
#258=VERTEX_POINT('',#257);
#259=CARTESIAN_POINT('',(-4.989345145,-2.726376874,-7.036659164));
#260=DIRECTION('',(0.,-1.,-0.));
#261=DIRECTION('',(1.,0.,0.));
#262=AXIS2_PLACEMENT_3D('',#259,#260,#261);
#263=CIRCLE('',#262,1.);
#264=EDGE_CURVE('',#258,#258,#263,.T.);
#265=ORIENTED_EDGE('',*,*,#264,.F.);
#266=EDGE_LOOP('',(#265));
#267=FACE_BOUND('',#266,.T.);
#268=CARTESIAN_POINT('',(-4.988290049,-2.726376874,14.963340836));
#269=VERTEX_POINT('',#268);
#270=CARTESIAN_POINT('',(-3.988290049,-2.726376874,15.963340836));
#271=VERTEX_POINT('',#270);
#272=CARTESIAN_POINT('',(-4.988290049,-2.726376874,15.963340836));
#273=DIRECTION('',(0.,-1.,-0.));
#274=DIRECTION('',(1.,0.,0.));
#275=AXIS2_PLACEMENT_3D('',#272,#273,#274);
#276=CIRCLE('',#275,1.);
#277=EDGE_CURVE('',#269,#271,#276,.T.);
#278=ORIENTED_EDGE('',*,*,#277,.F.);
#279=CARTESIAN_POINT('',(-4.988290049,-2.726376874,15.963340836));
#280=DIRECTION('',(0.,-1.,-0.));
#281=DIRECTION('',(1.,0.,0.));
#282=AXIS2_PLACEMENT_3D('',#279,#280,#281);
#283=CIRCLE('',#282,1.);
#284=EDGE_CURVE('',#271,#269,#283,.T.);
#285=ORIENTED_EDGE('',*,*,#284,.F.);
#286=EDGE_LOOP('',(#278,#285));
#287=FACE_BOUND('',#286,.T.);
#288=CARTESIAN_POINT('',(5.021625652,-2.726376874,14.963340836));
#289=VERTEX_POINT('',#288);
#290=CARTESIAN_POINT('',(6.021625652,-2.726376874,15.963340836));
#291=VERTEX_POINT('',#290);
#292=CARTESIAN_POINT('',(5.021625652,-2.726376874,15.963340836));
#293=DIRECTION('',(0.,-1.,-0.));
#294=DIRECTION('',(1.,0.,0.));
#295=AXIS2_PLACEMENT_3D('',#292,#293,#294);
#296=CIRCLE('',#295,1.);
#297=EDGE_CURVE('',#289,#291,#296,.T.);
#298=ORIENTED_EDGE('',*,*,#297,.F.);
#299=CARTESIAN_POINT('',(5.021625652,-2.726376874,15.963340836));
#300=DIRECTION('',(0.,-1.,-0.));
#301=DIRECTION('',(1.,0.,0.));
#302=AXIS2_PLACEMENT_3D('',#299,#300,#301);
#303=CIRCLE('',#302,1.);
#304=EDGE_CURVE('',#291,#289,#303,.T.);
#305=ORIENTED_EDGE('',*,*,#304,.F.);
#306=EDGE_LOOP('',(#298,#305));
#307=FACE_BOUND('',#306,.T.);
#308=ADVANCED_FACE('',(#236,#256,#267,#287,#307),#168,.T.);
#309=CARTESIAN_POINT('',(22.,47.51217235,-14.));
#310=DIRECTION('',(1.,0.,0.));
#311=DIRECTION('',(0.,0.,-1.));
#312=AXIS2_PLACEMENT_3D('',#309,#310,#311);
#313=PLANE('',#312);
#314=CARTESIAN_POINT('',(22.,8.747562571,-11.615182704));
#315=VERTEX_POINT('',#314);
#316=CARTESIAN_POINT('',(22.,8.747562571,-13.556007337));
#317=VERTEX_POINT('',#316);
#318=CARTESIAN_POINT('',(22.,8.747562571,-11.615182704));
#319=DIRECTION('',(0.,0.,-1.));
#320=VECTOR('',#319,1.940824633);
#321=LINE('',#318,#320);
#322=EDGE_CURVE('',#315,#317,#321,.T.);
#323=ORIENTED_EDGE('',*,*,#322,.F.);
#324=CARTESIAN_POINT('',(22.,8.757310015,-11.615182704));
#325=VERTEX_POINT('',#324);
#326=CARTESIAN_POINT('',(22.,8.757310015,-11.615182704));
#327=DIRECTION('',(0.,-1.,0.));
#328=VECTOR('',#327,0.009747444);
#329=LINE('',#326,#328);
#330=EDGE_CURVE('',#325,#315,#329,.T.);
#331=ORIENTED_EDGE('',*,*,#330,.F.);
#332=CARTESIAN_POINT('',(22.,8.757310015,10.633344155));
#333=VERTEX_POINT('',#332);
#334=CARTESIAN_POINT('',(22.,8.757310015,-11.615182704));
#335=DIRECTION('',(0.,0.,1.));
#336=VECTOR('',#335,22.248526859);
#337=LINE('',#334,#336);
#338=EDGE_CURVE('',#325,#333,#337,.T.);
#339=ORIENTED_EDGE('',*,*,#338,.T.);
#340=CARTESIAN_POINT('',(22.,8.17981482,11.733334966));
#341=VERTEX_POINT('',#340);
#342=CARTESIAN_POINT('',(22.,8.757310015,10.633344155));
#343=DIRECTION('',(-0.,-0.464833911,0.885397896));
#344=VECTOR('',#343,1.2423689);
#345=LINE('',#342,#344);
#346=EDGE_CURVE('',#333,#341,#345,.T.);
#347=ORIENTED_EDGE('',*,*,#346,.T.);
#348=CARTESIAN_POINT('',(22.,8.17981482,13.66258772));
#349=VERTEX_POINT('',#348);
#350=CARTESIAN_POINT('',(22.,8.17981482,13.66258772));
#351=DIRECTION('',(0.,0.,-1.));
#352=VECTOR('',#351,1.929252754);
#353=LINE('',#350,#352);
#354=EDGE_CURVE('',#349,#341,#353,.T.);
#355=ORIENTED_EDGE('',*,*,#354,.F.);
#356=CARTESIAN_POINT('',(22.,8.17981482,13.66258772));
#357=DIRECTION('',(0.,-1.,0.));
#358=VECTOR('',#357,10.906191694);
#359=LINE('',#356,#358);
#360=EDGE_CURVE('',#349,#172,#359,.T.);
#361=ORIENTED_EDGE('',*,*,#360,.T.);
#362=ORIENTED_EDGE('',*,*,#177,.F.);
#363=CARTESIAN_POINT('',(22.,-2.726376874,-13.556007337));
#364=DIRECTION('',(-0.,1.,-0.));
#365=VECTOR('',#364,11.473939445);
#366=LINE('',#363,#365);
#367=EDGE_CURVE('',#170,#317,#366,.T.);
#368=ORIENTED_EDGE('',*,*,#367,.T.);
#369=EDGE_LOOP('',(#323,#331,#339,#347,#355,#361,#362,#368));
#370=FACE_BOUND('',#369,.T.);
#371=CARTESIAN_POINT('',(22.,2.973478273,8.946135793));
#372=VERTEX_POINT('',#371);
#373=CARTESIAN_POINT('',(22.,2.973478273,10.446135793));
#374=DIRECTION('',(1.,0.,0.));
#375=DIRECTION('',(0.,0.,-1.));
#376=AXIS2_PLACEMENT_3D('',#373,#374,#375);
#377=CIRCLE('',#376,1.5);
#378=EDGE_CURVE('',#372,#372,#377,.T.);
#379=ORIENTED_EDGE('',*,*,#378,.F.);
#380=EDGE_LOOP('',(#379));
#381=FACE_BOUND('',#380,.T.);
#382=ADVANCED_FACE('',(#370,#381),#313,.T.);
#383=CARTESIAN_POINT('',(-22.,47.51217235,14.));
#384=DIRECTION('',(-1.,0.,0.));
#385=DIRECTION('',(0.,0.,1.));
#386=AXIS2_PLACEMENT_3D('',#383,#384,#385);
#387=PLANE('',#386);
#388=ORIENTED_EDGE('',*,*,#209,.F.);
#389=CARTESIAN_POINT('',(-22.,4.878224521,13.727713573));
#390=VERTEX_POINT('',#389);
#391=CARTESIAN_POINT('',(-22.,-2.726376874,13.727713573));
#392=DIRECTION('',(0.,1.,0.));
#393=VECTOR('',#392,7.604601394);
#394=LINE('',#391,#393);
#395=EDGE_CURVE('',#196,#390,#394,.T.);
#396=ORIENTED_EDGE('',*,*,#395,.T.);
#397=CARTESIAN_POINT('',(-22.,8.178734276,11.73276768));
#398=VERTEX_POINT('',#397);
#399=CARTESIAN_POINT('',(-22.,4.878224521,10.));
#400=DIRECTION('',(-1.,0.,0.));
#401=DIRECTION('',(0.,0.,1.));
#402=AXIS2_PLACEMENT_3D('',#399,#400,#401);
#403=CIRCLE('',#402,3.727713573);
#404=EDGE_CURVE('',#390,#398,#403,.T.);
#405=ORIENTED_EDGE('',*,*,#404,.T.);
#406=CARTESIAN_POINT('',(-22.,8.757310015,10.63071869));
#407=VERTEX_POINT('',#406);
#408=CARTESIAN_POINT('',(-22.,8.178734276,11.73276768));
#409=DIRECTION('',(0.,0.464833911,-0.885397896));
#410=VECTOR('',#409,1.244693481);
#411=LINE('',#408,#410);
#412=EDGE_CURVE('',#398,#407,#411,.T.);
#413=ORIENTED_EDGE('',*,*,#412,.T.);
#414=CARTESIAN_POINT('',(-22.,8.757310015,-11.615182704));
#415=VERTEX_POINT('',#414);
#416=CARTESIAN_POINT('',(-22.,8.757310015,10.63071869));
#417=DIRECTION('',(0.,0.,-1.));
#418=VECTOR('',#417,22.245901394);
#419=LINE('',#416,#418);
#420=EDGE_CURVE('',#407,#415,#419,.T.);
#421=ORIENTED_EDGE('',*,*,#420,.T.);
#422=CARTESIAN_POINT('',(-22.,8.747562571,-11.615182704));
#423=VERTEX_POINT('',#422);
#424=CARTESIAN_POINT('',(-22.,8.747562571,-11.615182704));
#425=DIRECTION('',(0.,1.,0.));
#426=VECTOR('',#425,0.009747444);
#427=LINE('',#424,#426);
#428=EDGE_CURVE('',#423,#415,#427,.T.);
#429=ORIENTED_EDGE('',*,*,#428,.F.);
#430=CARTESIAN_POINT('',(-22.,8.747562571,-13.56));
#431=VERTEX_POINT('',#430);
#432=CARTESIAN_POINT('',(-22.,8.747562571,-13.56));
#433=DIRECTION('',(0.,0.,1.));
#434=VECTOR('',#433,1.944817296);
#435=LINE('',#432,#434);
#436=EDGE_CURVE('',#431,#423,#435,.T.);
#437=ORIENTED_EDGE('',*,*,#436,.F.);
#438=CARTESIAN_POINT('',(-22.,8.747562571,-13.56));
#439=DIRECTION('',(0.,-1.,0.));
#440=VECTOR('',#439,11.473939445);
#441=LINE('',#438,#440);
#442=EDGE_CURVE('',#431,#204,#441,.T.);
#443=ORIENTED_EDGE('',*,*,#442,.T.);
#444=EDGE_LOOP('',(#388,#396,#405,#413,#421,#429,#437,#443));
#445=FACE_BOUND('',#444,.T.);
#446=CARTESIAN_POINT('',(-22.,2.973478273,8.946135793));
#447=VERTEX_POINT('',#446);
#448=CARTESIAN_POINT('',(-22.,2.973478273,11.946135793));
#449=VERTEX_POINT('',#448);
#450=CARTESIAN_POINT('',(-22.,2.973478273,10.446135793));
#451=DIRECTION('',(-1.,0.,0.));
#452=DIRECTION('',(0.,0.,1.));
#453=AXIS2_PLACEMENT_3D('',#450,#451,#452);
#454=CIRCLE('',#453,1.5);
#455=EDGE_CURVE('',#447,#449,#454,.T.);
#456=ORIENTED_EDGE('',*,*,#455,.F.);
#457=CARTESIAN_POINT('',(-22.,2.973478273,10.446135793));
#458=DIRECTION('',(-1.,0.,0.));
#459=DIRECTION('',(0.,0.,1.));
#460=AXIS2_PLACEMENT_3D('',#457,#458,#459);
#461=CIRCLE('',#460,1.5);
#462=EDGE_CURVE('',#449,#447,#461,.T.);
#463=ORIENTED_EDGE('',*,*,#462,.F.);
#464=EDGE_LOOP('',(#456,#463));
#465=FACE_BOUND('',#464,.T.);
#466=ADVANCED_FACE('',(#445,#465),#387,.T.);
#467=CARTESIAN_POINT('',(-39.911547395,8.757310015,153.644103539));
#468=DIRECTION('',(0.,1.,0.));
#469=DIRECTION('',(0.,0.,1.));
#470=AXIS2_PLACEMENT_3D('',#467,#468,#469);
#471=PLANE('',#470);
#472=CARTESIAN_POINT('',(21.817010288,8.757310015,-13.915182704));
#473=VERTEX_POINT('',#472);
#474=CARTESIAN_POINT('',(-21.819702227,8.757310015,-13.915182704));
#475=VERTEX_POINT('',#474);
#476=CARTESIAN_POINT('',(21.817010288,8.757310015,-13.915182704));
#477=DIRECTION('',(-1.,0.,0.));
#478=VECTOR('',#477,43.636712515);
#479=LINE('',#476,#478);
#480=EDGE_CURVE('',#473,#475,#479,.T.);
#481=ORIENTED_EDGE('',*,*,#480,.F.);
#482=CARTESIAN_POINT('',(21.556007337,8.757310015,-14.));
#483=VERTEX_POINT('',#482);
#484=CARTESIAN_POINT('',(21.556007337,8.757310015,-13.556007337));
#485=DIRECTION('',(-0.,-1.,-0.));
#486=DIRECTION('',(0.,-0.,1.));
#487=AXIS2_PLACEMENT_3D('',#484,#485,#486);
#488=CIRCLE('',#487,0.443992663);
#489=EDGE_CURVE('',#483,#473,#488,.T.);
#490=ORIENTED_EDGE('',*,*,#489,.F.);
#491=CARTESIAN_POINT('',(-21.56,8.757310015,-14.));
#492=VERTEX_POINT('',#491);
#493=CARTESIAN_POINT('',(-21.56,8.757310015,-14.));
#494=DIRECTION('',(1.,0.,-0.));
#495=VECTOR('',#494,43.116007337);
#496=LINE('',#493,#495);
#497=EDGE_CURVE('',#492,#483,#496,.T.);
#498=ORIENTED_EDGE('',*,*,#497,.F.);
#499=CARTESIAN_POINT('',(-21.56,8.757310015,-13.56));
#500=DIRECTION('',(-0.,-1.,-0.));
#501=DIRECTION('',(0.,-0.,1.));
#502=AXIS2_PLACEMENT_3D('',#499,#500,#501);
#503=CIRCLE('',#502,0.44);
#504=EDGE_CURVE('',#475,#492,#503,.T.);
#505=ORIENTED_EDGE('',*,*,#504,.F.);
#506=EDGE_LOOP('',(#481,#490,#498,#505));
#507=FACE_BOUND('',#506,.T.);
#508=ADVANCED_FACE('',(#507),#471,.T.);
#509=CARTESIAN_POINT('',(-10.06767413,2.951720557,-13.471687684));
#510=DIRECTION('',(0.,0.,-1.));
#511=DIRECTION('',(-1.,0.,0.));
#512=AXIS2_PLACEMENT_3D('',#509,#510,#511);
#513=TOROIDAL_SURFACE('',#512,1.528312316,0.528312316);
#514=CARTESIAN_POINT('',(-11.595986446,2.951720557,-14.));
#515=VERTEX_POINT('',#514);
#516=CARTESIAN_POINT('',(-11.595986446,2.951720557,-13.471687684));
#517=DIRECTION('',(-0.,1.,-0.));
#518=DIRECTION('',(-1.,0.,0.));
#519=AXIS2_PLACEMENT_3D('',#516,#517,#518);
#520=CIRCLE('',#519,0.528312316);
#521=EDGE_CURVE('',#146,#515,#520,.T.);
#522=ORIENTED_EDGE('',*,*,#521,.T.);
#523=CARTESIAN_POINT('',(-10.06767413,4.480032874,-14.));
#524=VERTEX_POINT('',#523);
#525=CARTESIAN_POINT('',(-10.06767413,2.951720557,-14.));
#526=DIRECTION('',(-0.,-0.,1.));
#527=DIRECTION('',(-1.,0.,0.));
#528=AXIS2_PLACEMENT_3D('',#525,#526,#527);
#529=CIRCLE('',#528,1.528312316);
#530=EDGE_CURVE('',#524,#515,#529,.T.);
#531=ORIENTED_EDGE('',*,*,#530,.F.);
#532=CARTESIAN_POINT('',(-10.06767413,4.480032874,-13.471687684));
#533=DIRECTION('',(1.,0.,0.));
#534=DIRECTION('',(0.,0.,-1.));
#535=AXIS2_PLACEMENT_3D('',#532,#533,#534);
#536=CIRCLE('',#535,0.528312316);
#537=EDGE_CURVE('',#115,#524,#536,.T.);
#538=ORIENTED_EDGE('',*,*,#537,.F.);
#539=ORIENTED_EDGE('',*,*,#159,.F.);
#540=EDGE_LOOP('',(#522,#531,#538,#539));
#541=FACE_BOUND('',#540,.T.);
#542=ADVANCED_FACE('',(#541),#513,.T.);
#543=CARTESIAN_POINT('',(-10.06767413,4.480032874,-13.471687684));
#544=DIRECTION('',(-1.,0.,0.));
#545=DIRECTION('',(0.,0.,1.));
#546=AXIS2_PLACEMENT_3D('',#543,#544,#545);
#547=CYLINDRICAL_SURFACE('',#546,0.528312316);
#548=ORIENTED_EDGE('',*,*,#537,.T.);
#549=CARTESIAN_POINT('',(9.93232587,4.480032874,-14.));
#550=VERTEX_POINT('',#549);
#551=CARTESIAN_POINT('',(9.93232587,4.480032874,-14.));
#552=DIRECTION('',(-1.,-0.,0.));
#553=VECTOR('',#552,20.);
#554=LINE('',#551,#553);
#555=EDGE_CURVE('',#550,#524,#554,.T.);
#556=ORIENTED_EDGE('',*,*,#555,.F.);
#557=CARTESIAN_POINT('',(9.93232587,4.480032874,-13.471687684));
#558=DIRECTION('',(1.,0.,0.));
#559=DIRECTION('',(0.,0.,-1.));
#560=AXIS2_PLACEMENT_3D('',#557,#558,#559);
#561=CIRCLE('',#560,0.528312316);
#562=EDGE_CURVE('',#83,#550,#561,.T.);
#563=ORIENTED_EDGE('',*,*,#562,.F.);
#564=ORIENTED_EDGE('',*,*,#126,.F.);
#565=EDGE_LOOP('',(#548,#556,#563,#564));
#566=FACE_BOUND('',#565,.T.);
#567=ADVANCED_FACE('',(#566),#547,.T.);
#568=CARTESIAN_POINT('',(9.93232587,2.951720557,-13.471687684));
#569=DIRECTION('',(0.,0.,-1.));
#570=DIRECTION('',(-1.,0.,0.));
#571=AXIS2_PLACEMENT_3D('',#568,#569,#570);
#572=TOROIDAL_SURFACE('',#571,1.528312316,0.528312316);
#573=ORIENTED_EDGE('',*,*,#562,.T.);
#574=CARTESIAN_POINT('',(9.93232587,1.423408241,-14.));
#575=VERTEX_POINT('',#574);
#576=CARTESIAN_POINT('',(9.93232587,2.951720557,-14.));
#577=DIRECTION('',(-0.,-0.,1.));
#578=DIRECTION('',(-1.,0.,0.));
#579=AXIS2_PLACEMENT_3D('',#576,#577,#578);
#580=CIRCLE('',#579,1.528312316);
#581=EDGE_CURVE('',#575,#550,#580,.T.);
#582=ORIENTED_EDGE('',*,*,#581,.F.);
#583=CARTESIAN_POINT('',(9.93232587,1.423408241,-13.471687684));
#584=DIRECTION('',(1.,0.,0.));
#585=DIRECTION('',(0.,0.,-1.));
#586=AXIS2_PLACEMENT_3D('',#583,#584,#585);
#587=CIRCLE('',#586,0.528312316);
#588=EDGE_CURVE('',#575,#51,#587,.T.);
#589=ORIENTED_EDGE('',*,*,#588,.T.);
#590=ORIENTED_EDGE('',*,*,#95,.F.);
#591=EDGE_LOOP('',(#573,#582,#589,#590));
#592=FACE_BOUND('',#591,.T.);
#593=ADVANCED_FACE('',(#592),#572,.T.);
#594=CARTESIAN_POINT('',(-10.06767413,1.423408241,-13.471687684));
#595=DIRECTION('',(1.,0.,0.));
#596=DIRECTION('',(0.,0.,-1.));
#597=AXIS2_PLACEMENT_3D('',#594,#595,#596);
#598=CYLINDRICAL_SURFACE('',#597,0.528312316);
#599=CARTESIAN_POINT('',(-10.06767413,1.423408241,-14.));
#600=VERTEX_POINT('',#599);
#601=CARTESIAN_POINT('',(-10.06767413,1.423408241,-13.471687684));
#602=DIRECTION('',(1.,0.,0.));
#603=DIRECTION('',(0.,0.,-1.));
#604=AXIS2_PLACEMENT_3D('',#601,#602,#603);
#605=CIRCLE('',#604,0.528312316);
#606=EDGE_CURVE('',#600,#35,#605,.T.);
#607=ORIENTED_EDGE('',*,*,#606,.T.);
#608=ORIENTED_EDGE('',*,*,#62,.F.);
#609=ORIENTED_EDGE('',*,*,#588,.F.);
#610=CARTESIAN_POINT('',(-10.06767413,1.423408241,-14.));
#611=DIRECTION('',(1.,-0.,-0.));
#612=VECTOR('',#611,20.);
#613=LINE('',#610,#612);
#614=EDGE_CURVE('',#600,#575,#613,.T.);
#615=ORIENTED_EDGE('',*,*,#614,.F.);
#616=EDGE_LOOP('',(#607,#608,#609,#615));
#617=FACE_BOUND('',#616,.T.);
#618=ADVANCED_FACE('',(#617),#598,.T.);
#619=CARTESIAN_POINT('',(21.556007337,47.51217235,-13.556007337));
#620=DIRECTION('',(0.,-1.,0.));
#621=DIRECTION('',(0.,0.,-1.));
#622=AXIS2_PLACEMENT_3D('',#619,#620,#621);
#623=CYLINDRICAL_SURFACE('',#622,0.443992663);
#624=CARTESIAN_POINT('',(21.817010288,8.747562571,-13.915182704));
#625=VERTEX_POINT('',#624);
#626=CARTESIAN_POINT('',(21.556007337,8.747562571,-13.556007337));
#627=DIRECTION('',(-0.,1.,-0.));
#628=DIRECTION('',(0.,0.,-1.));
#629=AXIS2_PLACEMENT_3D('',#626,#627,#628);
#630=CIRCLE('',#629,0.443992663);
#631=EDGE_CURVE('',#317,#625,#630,.T.);
#632=ORIENTED_EDGE('',*,*,#631,.F.);
#633=ORIENTED_EDGE('',*,*,#367,.F.);
#634=ORIENTED_EDGE('',*,*,#233,.F.);
#635=CARTESIAN_POINT('',(21.556007337,8.757310015,-14.));
#636=DIRECTION('',(0.,-1.,0.));
#637=VECTOR('',#636,11.483686889);
#638=LINE('',#635,#637);
#639=EDGE_CURVE('',#483,#221,#638,.T.);
#640=ORIENTED_EDGE('',*,*,#639,.F.);
#641=ORIENTED_EDGE('',*,*,#489,.T.);
#642=CARTESIAN_POINT('',(21.817010288,8.747562571,-13.915182704));
#643=DIRECTION('',(-0.,1.,-0.));
#644=VECTOR('',#643,0.009747444);
#645=LINE('',#642,#644);
#646=EDGE_CURVE('',#625,#473,#645,.T.);
#647=ORIENTED_EDGE('',*,*,#646,.F.);
#648=EDGE_LOOP('',(#632,#633,#634,#640,#641,#647));
#649=FACE_BOUND('',#648,.T.);
#650=ADVANCED_FACE('',(#649),#623,.T.);
#651=CARTESIAN_POINT('',(-21.56,47.51217235,-13.56));
#652=DIRECTION('',(0.,-1.,0.));
#653=DIRECTION('',(0.,0.,-1.));
#654=AXIS2_PLACEMENT_3D('',#651,#652,#653);
#655=CYLINDRICAL_SURFACE('',#654,0.44);
#656=CARTESIAN_POINT('',(-21.819702227,8.747562571,-13.915182704));
#657=VERTEX_POINT('',#656);
#658=CARTESIAN_POINT('',(-21.56,8.747562571,-13.56));
#659=DIRECTION('',(-0.,1.,-0.));
#660=DIRECTION('',(0.,0.,-1.));
#661=AXIS2_PLACEMENT_3D('',#658,#659,#660);
#662=CIRCLE('',#661,0.44);
#663=EDGE_CURVE('',#657,#431,#662,.T.);
#664=ORIENTED_EDGE('',*,*,#663,.F.);
#665=CARTESIAN_POINT('',(-21.819702227,8.757310015,-13.915182704));
#666=DIRECTION('',(0.,-1.,0.));
#667=VECTOR('',#666,0.009747444);
#668=LINE('',#665,#667);
#669=EDGE_CURVE('',#475,#657,#668,.T.);
#670=ORIENTED_EDGE('',*,*,#669,.F.);
#671=ORIENTED_EDGE('',*,*,#504,.T.);
#672=CARTESIAN_POINT('',(-21.56,-2.726376874,-14.));
#673=DIRECTION('',(-0.,1.,-0.));
#674=VECTOR('',#673,11.483686889);
#675=LINE('',#672,#674);
#676=EDGE_CURVE('',#212,#492,#675,.T.);
#677=ORIENTED_EDGE('',*,*,#676,.F.);
#678=ORIENTED_EDGE('',*,*,#218,.F.);
#679=ORIENTED_EDGE('',*,*,#442,.F.);
#680=EDGE_LOOP('',(#664,#670,#671,#677,#678,#679));
#681=FACE_BOUND('',#680,.T.);
#682=ADVANCED_FACE('',(#681),#655,.T.);
#683=CARTESIAN_POINT('',(-22.,47.51217235,-14.));
#684=DIRECTION('',(0.,0.,-1.));
#685=DIRECTION('',(-1.,0.,0.));
#686=AXIS2_PLACEMENT_3D('',#683,#684,#685);
#687=PLANE('',#686);
#688=ORIENTED_EDGE('',*,*,#614,.T.);
#689=ORIENTED_EDGE('',*,*,#581,.T.);
#690=ORIENTED_EDGE('',*,*,#555,.T.);
#691=ORIENTED_EDGE('',*,*,#530,.T.);
#692=CARTESIAN_POINT('',(-10.06767413,2.951720557,-14.));
#693=DIRECTION('',(-0.,-0.,1.));
#694=DIRECTION('',(-1.,0.,0.));
#695=AXIS2_PLACEMENT_3D('',#692,#693,#694);
#696=CIRCLE('',#695,1.528312316);
#697=EDGE_CURVE('',#515,#600,#696,.T.);
#698=ORIENTED_EDGE('',*,*,#697,.T.);
#699=EDGE_LOOP('',(#688,#689,#690,#691,#698));
#700=FACE_BOUND('',#699,.T.);
#701=ORIENTED_EDGE('',*,*,#676,.T.);
#702=ORIENTED_EDGE('',*,*,#497,.T.);
#703=ORIENTED_EDGE('',*,*,#639,.T.);
#704=ORIENTED_EDGE('',*,*,#226,.F.);
#705=EDGE_LOOP('',(#701,#702,#703,#704));
#706=FACE_BOUND('',#705,.T.);
#707=ADVANCED_FACE('',(#700,#706),#687,.T.);
#708=CARTESIAN_POINT('',(-40.116971065,8.747562571,-183.720505235));
#709=DIRECTION('',(0.,-1.,0.));
#710=DIRECTION('',(0.,0.,-1.));
#711=AXIS2_PLACEMENT_3D('',#708,#709,#710);
#712=PLANE('',#711);
#713=ORIENTED_EDGE('',*,*,#322,.T.);
#714=ORIENTED_EDGE('',*,*,#631,.T.);
#715=CARTESIAN_POINT('',(36.985471682,8.747562571,-13.915182704));
#716=VERTEX_POINT('',#715);
#717=CARTESIAN_POINT('',(36.985471682,8.747562571,-13.915182704));
#718=DIRECTION('',(-1.,0.,0.));
#719=VECTOR('',#718,15.168461394);
#720=LINE('',#717,#719);
#721=EDGE_CURVE('',#716,#625,#720,.T.);
#722=ORIENTED_EDGE('',*,*,#721,.F.);
#723=CARTESIAN_POINT('',(36.985471682,8.747562571,-11.615182704));
#724=VERTEX_POINT('',#723);
#725=CARTESIAN_POINT('',(36.985471682,8.747562571,-11.615182704));
#726=DIRECTION('',(-0.,-0.,-1.));
#727=VECTOR('',#726,2.3);
#728=LINE('',#725,#727);
#729=EDGE_CURVE('',#724,#716,#728,.T.);
#730=ORIENTED_EDGE('',*,*,#729,.F.);
#731=CARTESIAN_POINT('',(22.,8.747562571,-11.615182704));
#732=DIRECTION('',(1.,0.,-0.));
#733=VECTOR('',#732,14.985471682);
#734=LINE('',#731,#733);
#735=EDGE_CURVE('',#315,#724,#734,.T.);
#736=ORIENTED_EDGE('',*,*,#735,.F.);
#737=EDGE_LOOP('',(#713,#714,#722,#730,#736));
#738=FACE_BOUND('',#737,.T.);
#739=ADVANCED_FACE('',(#738),#712,.T.);
#740=CARTESIAN_POINT('',(-40.116971065,8.747562571,-183.720505235));
#741=DIRECTION('',(0.,-1.,0.));
#742=DIRECTION('',(0.,0.,-1.));
#743=AXIS2_PLACEMENT_3D('',#740,#741,#742);
#744=PLANE('',#743);
#745=CARTESIAN_POINT('',(-36.936791816,8.747562571,-13.915182704));
#746=VERTEX_POINT('',#745);
#747=CARTESIAN_POINT('',(-21.819702227,8.747562571,-13.915182704));
#748=DIRECTION('',(-1.,0.,0.));
#749=VECTOR('',#748,15.117089588);
#750=LINE('',#747,#749);
#751=EDGE_CURVE('',#657,#746,#750,.T.);
#752=ORIENTED_EDGE('',*,*,#751,.F.);
#753=ORIENTED_EDGE('',*,*,#663,.T.);
#754=ORIENTED_EDGE('',*,*,#436,.T.);
#755=CARTESIAN_POINT('',(-36.936791816,8.747562571,-11.615182704));
#756=VERTEX_POINT('',#755);
#757=CARTESIAN_POINT('',(-36.936791816,8.747562571,-11.615182704));
#758=DIRECTION('',(1.,0.,-0.));
#759=VECTOR('',#758,14.936791816);
#760=LINE('',#757,#759);
#761=EDGE_CURVE('',#756,#423,#760,.T.);
#762=ORIENTED_EDGE('',*,*,#761,.F.);
#763=CARTESIAN_POINT('',(-36.936791816,8.747562571,-13.915182704));
#764=DIRECTION('',(-0.,-0.,1.));
#765=VECTOR('',#764,2.3);
#766=LINE('',#763,#765);
#767=EDGE_CURVE('',#746,#756,#766,.T.);
#768=ORIENTED_EDGE('',*,*,#767,.F.);
#769=EDGE_LOOP('',(#752,#753,#754,#762,#768));
#770=FACE_BOUND('',#769,.T.);
#771=ADVANCED_FACE('',(#770),#744,.T.);
#772=CARTESIAN_POINT('',(0.,46.373949246,-13.915182704));
#773=DIRECTION('',(0.,1.,0.));
#774=DIRECTION('',(0.,0.,1.));
#775=AXIS2_PLACEMENT_3D('',#772,#773,#774);
#776=PLANE('',#775);
#777=CARTESIAN_POINT('',(-44.,46.373949246,-13.915182704));
#778=VERTEX_POINT('',#777);
#779=CARTESIAN_POINT('',(-44.,46.373949246,-11.615182704));
#780=VERTEX_POINT('',#779);
#781=CARTESIAN_POINT('',(-44.,46.373949246,-13.915182704));
#782=DIRECTION('',(0.,0.,1.));
#783=VECTOR('',#782,2.3);
#784=LINE('',#781,#783);
#785=EDGE_CURVE('',#778,#780,#784,.T.);
#786=ORIENTED_EDGE('',*,*,#785,.T.);
#787=CARTESIAN_POINT('',(44.,46.373949246,-11.615182704));
#788=VERTEX_POINT('',#787);
#789=CARTESIAN_POINT('',(-44.,46.373949246,-11.615182704));
#790=DIRECTION('',(1.,0.,-0.));
#791=VECTOR('',#790,88.);
#792=LINE('',#789,#791);
#793=EDGE_CURVE('',#780,#788,#792,.T.);
#794=ORIENTED_EDGE('',*,*,#793,.T.);
#795=CARTESIAN_POINT('',(44.,46.373949246,-13.915182704));
#796=VERTEX_POINT('',#795);
#797=CARTESIAN_POINT('',(44.,46.373949246,-13.915182704));
#798=DIRECTION('',(0.,0.,1.));
#799=VECTOR('',#798,2.3);
#800=LINE('',#797,#799);
#801=EDGE_CURVE('',#796,#788,#800,.T.);
#802=ORIENTED_EDGE('',*,*,#801,.F.);
#803=CARTESIAN_POINT('',(44.,46.373949246,-13.915182704));
#804=DIRECTION('',(-1.,0.,0.));
#805=VECTOR('',#804,88.);
#806=LINE('',#803,#805);
#807=EDGE_CURVE('',#796,#778,#806,.T.);
#808=ORIENTED_EDGE('',*,*,#807,.T.);
#809=EDGE_LOOP('',(#786,#794,#802,#808));
#810=FACE_BOUND('',#809,.T.);
#811=ADVANCED_FACE('',(#810),#776,.T.);
#812=CARTESIAN_POINT('',(-44.,5.920530633,-13.915182704));
#813=DIRECTION('',(-1.,0.,0.));
#814=DIRECTION('',(0.,0.,1.));
#815=AXIS2_PLACEMENT_3D('',#812,#813,#814);
#816=PLANE('',#815);
#817=CARTESIAN_POINT('',(-44.,15.810770755,-13.915182704));
#818=VERTEX_POINT('',#817);
#819=CARTESIAN_POINT('',(-44.,46.373949246,-13.915182704));
#820=DIRECTION('',(0.,-1.,0.));
#821=VECTOR('',#820,30.563178491);
#822=LINE('',#819,#821);
#823=EDGE_CURVE('',#778,#818,#822,.T.);
#824=ORIENTED_EDGE('',*,*,#823,.T.);
#825=CARTESIAN_POINT('',(-44.,15.810770755,-11.615182704));
#826=VERTEX_POINT('',#825);
#827=CARTESIAN_POINT('',(-44.,15.810770755,-13.915182704));
#828=DIRECTION('',(-0.,-0.,1.));
#829=VECTOR('',#828,2.3);
#830=LINE('',#827,#829);
#831=EDGE_CURVE('',#818,#826,#830,.T.);
#832=ORIENTED_EDGE('',*,*,#831,.T.);
#833=CARTESIAN_POINT('',(-44.,15.810770755,-11.615182704));
#834=DIRECTION('',(0.,1.,0.));
#835=VECTOR('',#834,30.563178491);
#836=LINE('',#833,#835);
#837=EDGE_CURVE('',#826,#780,#836,.T.);
#838=ORIENTED_EDGE('',*,*,#837,.T.);
#839=ORIENTED_EDGE('',*,*,#785,.F.);
#840=EDGE_LOOP('',(#824,#832,#838,#839));
#841=FACE_BOUND('',#840,.T.);
#842=ADVANCED_FACE('',(#841),#816,.T.);
#843=CARTESIAN_POINT('',(44.,5.920530633,-13.915182704));
#844=DIRECTION('',(1.,0.,0.));
#845=DIRECTION('',(0.,0.,-1.));
#846=AXIS2_PLACEMENT_3D('',#843,#844,#845);
#847=PLANE('',#846);
#848=CARTESIAN_POINT('',(44.,15.762090889,-11.615182704));
#849=VERTEX_POINT('',#848);
#850=CARTESIAN_POINT('',(44.,46.373949246,-11.615182704));
#851=DIRECTION('',(0.,-1.,0.));
#852=VECTOR('',#851,30.611858358);
#853=LINE('',#850,#852);
#854=EDGE_CURVE('',#788,#849,#853,.T.);
#855=ORIENTED_EDGE('',*,*,#854,.T.);
#856=CARTESIAN_POINT('',(44.,15.762090889,-13.915182704));
#857=VERTEX_POINT('',#856);
#858=CARTESIAN_POINT('',(44.,15.762090889,-11.615182704));
#859=DIRECTION('',(-0.,-0.,-1.));
#860=VECTOR('',#859,2.3);
#861=LINE('',#858,#860);
#862=EDGE_CURVE('',#849,#857,#861,.T.);
#863=ORIENTED_EDGE('',*,*,#862,.T.);
#864=CARTESIAN_POINT('',(44.,15.762090889,-13.915182704));
#865=DIRECTION('',(0.,1.,0.));
#866=VECTOR('',#865,30.611858358);
#867=LINE('',#864,#866);
#868=EDGE_CURVE('',#857,#796,#867,.T.);
#869=ORIENTED_EDGE('',*,*,#868,.T.);
#870=ORIENTED_EDGE('',*,*,#801,.T.);
#871=EDGE_LOOP('',(#855,#863,#869,#870));
#872=FACE_BOUND('',#871,.T.);
#873=ADVANCED_FACE('',(#872),#847,.T.);
#874=CARTESIAN_POINT('',(-44.,15.810770755,-13.915182704));
#875=DIRECTION('',(0.707106781,0.707106781,0.));
#876=DIRECTION('',(0.,0.,1.));
#877=AXIS2_PLACEMENT_3D('',#874,#875,#876);
#878=PLANE('',#877);
#879=CARTESIAN_POINT('',(-36.936791816,8.747562571,-13.915182704));
#880=DIRECTION('',(-0.707106781,0.707106781,-0.));
#881=VECTOR('',#880,9.988884808);
#882=LINE('',#879,#881);
#883=EDGE_CURVE('',#746,#818,#882,.T.);
#884=ORIENTED_EDGE('',*,*,#883,.F.);
#885=ORIENTED_EDGE('',*,*,#767,.T.);
#886=CARTESIAN_POINT('',(-44.,15.810770755,-11.615182704));
#887=DIRECTION('',(0.707106781,-0.707106781,-0.));
#888=VECTOR('',#887,9.988884808);
#889=LINE('',#886,#888);
#890=EDGE_CURVE('',#826,#756,#889,.T.);
#891=ORIENTED_EDGE('',*,*,#890,.F.);
#892=ORIENTED_EDGE('',*,*,#831,.F.);
#893=EDGE_LOOP('',(#884,#885,#891,#892));
#894=FACE_BOUND('',#893,.T.);
#895=ADVANCED_FACE('',(#894),#878,.F.);
#896=CARTESIAN_POINT('',(35.074952469,6.837043358,-13.915182704));
#897=DIRECTION('',(-0.707106781,0.707106781,0.));
#898=DIRECTION('',(0.,0.,1.));
#899=AXIS2_PLACEMENT_3D('',#896,#897,#898);
#900=PLANE('',#899);
#901=CARTESIAN_POINT('',(36.985471682,8.747562571,-11.615182704));
#902=DIRECTION('',(0.707106781,0.707106781,-0.));
#903=VECTOR('',#902,9.920041081);
#904=LINE('',#901,#903);
#905=EDGE_CURVE('',#724,#849,#904,.T.);
#906=ORIENTED_EDGE('',*,*,#905,.F.);
#907=ORIENTED_EDGE('',*,*,#729,.T.);
#908=CARTESIAN_POINT('',(44.,15.762090889,-13.915182704));
#909=DIRECTION('',(-0.707106781,-0.707106781,-0.));
#910=VECTOR('',#909,9.920041081);
#911=LINE('',#908,#910);
#912=EDGE_CURVE('',#857,#716,#911,.T.);
#913=ORIENTED_EDGE('',*,*,#912,.F.);
#914=ORIENTED_EDGE('',*,*,#862,.F.);
#915=EDGE_LOOP('',(#906,#907,#913,#914));
#916=FACE_BOUND('',#915,.T.);
#917=ADVANCED_FACE('',(#916),#900,.F.);
#918=CARTESIAN_POINT('',(0.,19.837043358,-13.915182704));
#919=DIRECTION('',(0.,0.,-1.));
#920=DIRECTION('',(-1.,0.,0.));
#921=AXIS2_PLACEMENT_3D('',#918,#919,#920);
#922=PLANE('',#921);
#923=CARTESIAN_POINT('',(39.66273849,37.337043358,-13.915182704));
#924=VERTEX_POINT('',#923);
#925=CARTESIAN_POINT('',(35.66273849,37.337043358,-13.915182704));
#926=VERTEX_POINT('',#925);
#927=CARTESIAN_POINT('',(37.66273849,37.337043358,-13.915182704));
#928=DIRECTION('',(0.,0.,-1.));
#929=DIRECTION('',(-1.,0.,0.));
#930=AXIS2_PLACEMENT_3D('',#927,#928,#929);
#931=CIRCLE('',#930,2.);
#932=EDGE_CURVE('',#924,#926,#931,.T.);
#933=ORIENTED_EDGE('',*,*,#932,.F.);
#934=CARTESIAN_POINT('',(37.66273849,37.337043358,-13.915182704));
#935=DIRECTION('',(0.,0.,-1.));
#936=DIRECTION('',(-1.,0.,0.));
#937=AXIS2_PLACEMENT_3D('',#934,#935,#936);
#938=CIRCLE('',#937,2.);
#939=EDGE_CURVE('',#926,#924,#938,.T.);
#940=ORIENTED_EDGE('',*,*,#939,.F.);
#941=EDGE_LOOP('',(#933,#940));
#942=FACE_BOUND('',#941,.T.);
#943=CARTESIAN_POINT('',(-35.393042982,37.337043358,-13.915182704));
#944=VERTEX_POINT('',#943);
#945=CARTESIAN_POINT('',(-39.393042982,37.337043358,-13.915182704));
#946=VERTEX_POINT('',#945);
#947=CARTESIAN_POINT('',(-37.393042982,37.337043358,-13.915182704));
#948=DIRECTION('',(0.,0.,-1.));
#949=DIRECTION('',(-1.,0.,0.));
#950=AXIS2_PLACEMENT_3D('',#947,#948,#949);
#951=CIRCLE('',#950,2.);
#952=EDGE_CURVE('',#944,#946,#951,.T.);
#953=ORIENTED_EDGE('',*,*,#952,.F.);
#954=CARTESIAN_POINT('',(-37.393042982,37.337043358,-13.915182704));
#955=DIRECTION('',(0.,0.,-1.));
#956=DIRECTION('',(-1.,0.,0.));
#957=AXIS2_PLACEMENT_3D('',#954,#955,#956);
#958=CIRCLE('',#957,2.);
#959=EDGE_CURVE('',#946,#944,#958,.T.);
#960=ORIENTED_EDGE('',*,*,#959,.F.);
#961=EDGE_LOOP('',(#953,#960));
#962=FACE_BOUND('',#961,.T.);
#963=ORIENTED_EDGE('',*,*,#721,.T.);
#964=ORIENTED_EDGE('',*,*,#646,.T.);
#965=ORIENTED_EDGE('',*,*,#480,.T.);
#966=ORIENTED_EDGE('',*,*,#669,.T.);
#967=ORIENTED_EDGE('',*,*,#751,.T.);
#968=ORIENTED_EDGE('',*,*,#883,.T.);
#969=ORIENTED_EDGE('',*,*,#823,.F.);
#970=ORIENTED_EDGE('',*,*,#807,.F.);
#971=ORIENTED_EDGE('',*,*,#868,.F.);
#972=ORIENTED_EDGE('',*,*,#912,.T.);
#973=EDGE_LOOP('',(#963,#964,#965,#966,#967,#968,#969,#970,#971,#972));
#974=FACE_BOUND('',#973,.T.);
#975=ADVANCED_FACE('',(#942,#962,#974),#922,.T.);
#976=CARTESIAN_POINT('',(0.,19.837043358,-11.615182704));
#977=DIRECTION('',(0.,0.,1.));
#978=DIRECTION('',(1.,0.,0.));
#979=AXIS2_PLACEMENT_3D('',#976,#977,#978);
#980=PLANE('',#979);
#981=CARTESIAN_POINT('',(39.66273849,37.337043358,-11.615182704));
#982=VERTEX_POINT('',#981);
#983=CARTESIAN_POINT('',(37.66273849,37.337043358,-11.615182704));
#984=DIRECTION('',(0.,0.,1.));
#985=DIRECTION('',(1.,0.,-0.));
#986=AXIS2_PLACEMENT_3D('',#983,#984,#985);
#987=CIRCLE('',#986,2.);
#988=EDGE_CURVE('',#982,#982,#987,.T.);
#989=ORIENTED_EDGE('',*,*,#988,.F.);
#990=EDGE_LOOP('',(#989));
#991=FACE_BOUND('',#990,.T.);
#992=CARTESIAN_POINT('',(-35.393042982,37.337043358,-11.615182704));
#993=VERTEX_POINT('',#992);
#994=CARTESIAN_POINT('',(-37.393042982,37.337043358,-11.615182704));
#995=DIRECTION('',(0.,0.,1.));
#996=DIRECTION('',(1.,0.,-0.));
#997=AXIS2_PLACEMENT_3D('',#994,#995,#996);
#998=CIRCLE('',#997,2.);
#999=EDGE_CURVE('',#993,#993,#998,.T.);
#1000=ORIENTED_EDGE('',*,*,#999,.F.);
#1001=EDGE_LOOP('',(#1000));
#1002=FACE_BOUND('',#1001,.T.);
#1003=CARTESIAN_POINT('',(-22.,8.757310015,-11.615182704));
#1004=DIRECTION('',(1.,0.,-0.));
#1005=VECTOR('',#1004,44.);
#1006=LINE('',#1003,#1005);
#1007=EDGE_CURVE('',#415,#325,#1006,.T.);
#1008=ORIENTED_EDGE('',*,*,#1007,.T.);
#1009=ORIENTED_EDGE('',*,*,#330,.T.);
#1010=ORIENTED_EDGE('',*,*,#735,.T.);
#1011=ORIENTED_EDGE('',*,*,#905,.T.);
#1012=ORIENTED_EDGE('',*,*,#854,.F.);
#1013=ORIENTED_EDGE('',*,*,#793,.F.);
#1014=ORIENTED_EDGE('',*,*,#837,.F.);
#1015=ORIENTED_EDGE('',*,*,#890,.T.);
#1016=ORIENTED_EDGE('',*,*,#761,.T.);
#1017=ORIENTED_EDGE('',*,*,#428,.T.);
#1018=EDGE_LOOP('',(#1008,#1009,#1010,#1011,#1012,#1013,#1014,#1015,#1016,#1017));
#1019=FACE_BOUND('',#1018,.T.);
#1020=ADVANCED_FACE('',(#991,#1002,#1019),#980,.T.);
#1021=CARTESIAN_POINT('',(-37.393042982,37.337043358,-158.82558327));
#1022=DIRECTION('',(0.,0.,1.));
#1023=DIRECTION('',(1.,0.,-0.));
#1024=AXIS2_PLACEMENT_3D('',#1021,#1022,#1023);
#1025=CYLINDRICAL_SURFACE('',#1024,2.);
#1026=CARTESIAN_POINT('',(-35.393042982,37.337043358,-11.615182704));
#1027=DIRECTION('',(-0.,-0.,-1.));
#1028=VECTOR('',#1027,2.3);
#1029=LINE('',#1026,#1028);
#1030=EDGE_CURVE('',#993,#944,#1029,.T.);
#1031=ORIENTED_EDGE('',*,*,#1030,.F.);
#1032=ORIENTED_EDGE('',*,*,#999,.T.);
#1033=ORIENTED_EDGE('',*,*,#1030,.T.);
#1034=ORIENTED_EDGE('',*,*,#952,.T.);
#1035=ORIENTED_EDGE('',*,*,#959,.T.);
#1036=EDGE_LOOP('',(#1031,#1032,#1033,#1034,#1035));
#1037=FACE_BOUND('',#1036,.T.);
#1038=ADVANCED_FACE('',(#1037),#1025,.F.);
#1039=CARTESIAN_POINT('',(37.66273849,37.337043358,-175.541452688));
#1040=DIRECTION('',(0.,0.,1.));
#1041=DIRECTION('',(1.,0.,-0.));
#1042=AXIS2_PLACEMENT_3D('',#1039,#1040,#1041);
#1043=CYLINDRICAL_SURFACE('',#1042,2.);
#1044=CARTESIAN_POINT('',(39.66273849,37.337043358,-11.615182704));
#1045=DIRECTION('',(-0.,-0.,-1.));
#1046=VECTOR('',#1045,2.3);
#1047=LINE('',#1044,#1046);
#1048=EDGE_CURVE('',#982,#924,#1047,.T.);
#1049=ORIENTED_EDGE('',*,*,#1048,.F.);
#1050=ORIENTED_EDGE('',*,*,#988,.T.);
#1051=ORIENTED_EDGE('',*,*,#1048,.T.);
#1052=ORIENTED_EDGE('',*,*,#932,.T.);
#1053=ORIENTED_EDGE('',*,*,#939,.T.);
#1054=EDGE_LOOP('',(#1049,#1050,#1051,#1052,#1053));
#1055=FACE_BOUND('',#1054,.T.);
#1056=ADVANCED_FACE('',(#1055),#1043,.F.);
#1057=CARTESIAN_POINT('',(21.66258772,8.419816106,11.859335645));
#1058=DIRECTION('',(0.,-1.,0.));
#1059=DIRECTION('',(0.,0.,-1.));
#1060=AXIS2_PLACEMENT_3D('',#1057,#1058,#1059);
#1061=PLANE('',#1060);
#1062=CARTESIAN_POINT('',(19.946893677,8.419816106,15.715694043));
#1063=VERTEX_POINT('',#1062);
#1064=CARTESIAN_POINT('',(19.946893677,8.419816106,11.859335645));
#1065=VERTEX_POINT('',#1064);
#1066=CARTESIAN_POINT('',(19.946893677,8.419816106,15.715694043));
#1067=DIRECTION('',(0.,0.,-1.));
#1068=VECTOR('',#1067,3.856358398);
#1069=LINE('',#1066,#1068);
#1070=EDGE_CURVE('',#1063,#1065,#1069,.T.);
#1071=ORIENTED_EDGE('',*,*,#1070,.F.);
#1072=CARTESIAN_POINT('',(21.728933978,8.419816106,13.933653742));
#1073=VERTEX_POINT('',#1072);
#1074=CARTESIAN_POINT('',(19.946893677,8.419816106,15.715694043));
#1075=DIRECTION('',(0.707106781,-0.,-0.707106781));
#1076=VECTOR('',#1075,2.520185562);
#1077=LINE('',#1074,#1076);
#1078=EDGE_CURVE('',#1063,#1073,#1077,.T.);
#1079=ORIENTED_EDGE('',*,*,#1078,.T.);
#1080=CARTESIAN_POINT('',(21.728933978,8.419816106,11.859335645));
#1081=VERTEX_POINT('',#1080);
#1082=CARTESIAN_POINT('',(21.728933978,8.419816106,13.933653742));
#1083=DIRECTION('',(0.,0.,-1.));
#1084=VECTOR('',#1083,2.074318097);
#1085=LINE('',#1082,#1084);
#1086=EDGE_CURVE('',#1073,#1081,#1085,.T.);
#1087=ORIENTED_EDGE('',*,*,#1086,.T.);
#1088=CARTESIAN_POINT('',(19.946893677,8.419816106,11.859335645));
#1089=DIRECTION('',(1.,0.,-0.));
#1090=VECTOR('',#1089,1.782040301);
#1091=LINE('',#1088,#1090);
#1092=EDGE_CURVE('',#1065,#1081,#1091,.T.);
#1093=ORIENTED_EDGE('',*,*,#1092,.F.);
#1094=EDGE_LOOP('',(#1071,#1079,#1087,#1093));
#1095=FACE_BOUND('',#1094,.T.);
#1096=ADVANCED_FACE('',(#1095),#1061,.F.);
#1097=CARTESIAN_POINT('',(-20.172125892,8.419816106,11.859335645));
#1098=DIRECTION('',(0.,-1.,0.));
#1099=DIRECTION('',(0.,0.,-1.));
#1100=AXIS2_PLACEMENT_3D('',#1097,#1098,#1099);
#1101=PLANE('',#1100);
#1102=CARTESIAN_POINT('',(-21.727713573,8.419816106,11.859335645));
#1103=VERTEX_POINT('',#1102);
#1104=CARTESIAN_POINT('',(-20.172125892,8.419816106,11.859335645));
#1105=VERTEX_POINT('',#1104);
#1106=CARTESIAN_POINT('',(-21.727713573,8.419816106,11.859335645));
#1107=DIRECTION('',(1.,0.,-0.));
#1108=VECTOR('',#1107,1.555587681);
#1109=LINE('',#1106,#1108);
#1110=EDGE_CURVE('',#1103,#1105,#1109,.T.);
#1111=ORIENTED_EDGE('',*,*,#1110,.F.);
#1112=CARTESIAN_POINT('',(-20.172125892,8.419816106,14.280383571));
#1113=VERTEX_POINT('',#1112);
#1114=CARTESIAN_POINT('',(-20.172125892,8.419816106,14.280383571));
#1115=CARTESIAN_POINT('',(-20.462051044,8.419816106,13.904084444));
#1116=CARTESIAN_POINT('',(-20.743313714,8.419816106,13.520098033));
#1117=CARTESIAN_POINT('',(-21.007310982,8.419816106,13.12078991));
#1118=CARTESIAN_POINT('',(-21.139309616,8.419816106,12.921135849));
#1119=CARTESIAN_POINT('',(-21.266899962,8.419816106,12.717569773));
#1120=CARTESIAN_POINT('',(-21.387920397,8.419816106,12.508173408));
#1121=CARTESIAN_POINT('',(-21.508940833,8.419816106,12.298777044));
#1122=CARTESIAN_POINT('',(-21.623461869,8.419816106,12.083612964));
#1123=CARTESIAN_POINT('',(-21.727713573,8.419816106,11.859335645));
#1124=B_SPLINE_CURVE_WITH_KNOTS('',3,(#1114,#1115,#1116,#1117,#1118,#1119,#1120,#1121,#1122,#1123),.UNSPECIFIED.,.F.,.F.,(4,3,3,4),(0.018428908,0.019850585,0.020561423,0.021272262),.UNSPECIFIED.);
#1125=EDGE_CURVE('',#1113,#1103,#1124,.T.);
#1126=ORIENTED_EDGE('',*,*,#1125,.F.);
#1127=CARTESIAN_POINT('',(-20.172125892,8.419816106,14.280383571));
#1128=DIRECTION('',(0.,0.,-1.));
#1129=VECTOR('',#1128,2.421047926);
#1130=LINE('',#1127,#1129);
#1131=EDGE_CURVE('',#1113,#1105,#1130,.T.);
#1132=ORIENTED_EDGE('',*,*,#1131,.T.);
#1133=EDGE_LOOP('',(#1111,#1126,#1132));
#1134=FACE_BOUND('',#1133,.T.);
#1135=ADVANCED_FACE('',(#1134),#1101,.F.);
#1136=CARTESIAN_POINT('',(0.,0.273623126,0.));
#1137=DIRECTION('',(0.,1.,-0.));
#1138=DIRECTION('',(0.,0.,1.));
#1139=AXIS2_PLACEMENT_3D('',#1136,#1137,#1138);
#1140=PLANE('',#1139);
#1141=CARTESIAN_POINT('',(5.020570556,0.273623126,-8.036659164));
#1142=VERTEX_POINT('',#1141);
#1143=CARTESIAN_POINT('',(5.020570556,0.273623126,-6.036659164));
#1144=VERTEX_POINT('',#1143);
#1145=CARTESIAN_POINT('',(5.020570556,0.273623126,-7.036659164));
#1146=DIRECTION('',(0.,1.,-0.));
#1147=DIRECTION('',(0.,0.,1.));
#1148=AXIS2_PLACEMENT_3D('',#1145,#1146,#1147);
#1149=CIRCLE('',#1148,1.);
#1150=EDGE_CURVE('',#1142,#1144,#1149,.T.);
#1151=ORIENTED_EDGE('',*,*,#1150,.F.);
#1152=CARTESIAN_POINT('',(5.020570556,0.273623126,-7.036659164));
#1153=DIRECTION('',(0.,1.,-0.));
#1154=DIRECTION('',(0.,0.,1.));
#1155=AXIS2_PLACEMENT_3D('',#1152,#1153,#1154);
#1156=CIRCLE('',#1155,1.);
#1157=EDGE_CURVE('',#1144,#1142,#1156,.T.);
#1158=ORIENTED_EDGE('',*,*,#1157,.F.);
#1159=EDGE_LOOP('',(#1151,#1158));
#1160=FACE_BOUND('',#1159,.T.);
#1161=CARTESIAN_POINT('',(-3.989345145,0.273623126,-7.036659164));
#1162=VERTEX_POINT('',#1161);
#1163=CARTESIAN_POINT('',(-4.989345145,0.273623126,-6.036659164));
#1164=VERTEX_POINT('',#1163);
#1165=CARTESIAN_POINT('',(-4.989345145,0.273623126,-7.036659164));
#1166=DIRECTION('',(0.,1.,-0.));
#1167=DIRECTION('',(0.,0.,1.));
#1168=AXIS2_PLACEMENT_3D('',#1165,#1166,#1167);
#1169=CIRCLE('',#1168,1.);
#1170=EDGE_CURVE('',#1162,#1164,#1169,.T.);
#1171=ORIENTED_EDGE('',*,*,#1170,.F.);
#1172=CARTESIAN_POINT('',(-4.989345145,0.273623126,-7.036659164));
#1173=DIRECTION('',(0.,1.,-0.));
#1174=DIRECTION('',(0.,0.,1.));
#1175=AXIS2_PLACEMENT_3D('',#1172,#1173,#1174);
#1176=CIRCLE('',#1175,1.);
#1177=EDGE_CURVE('',#1164,#1162,#1176,.T.);
#1178=ORIENTED_EDGE('',*,*,#1177,.F.);
#1179=EDGE_LOOP('',(#1171,#1178));
#1180=FACE_BOUND('',#1179,.T.);
#1181=CARTESIAN_POINT('',(-4.988290049,0.273623126,14.963340836));
#1182=VERTEX_POINT('',#1181);
#1183=CARTESIAN_POINT('',(-4.988290049,0.273623126,16.963340836));
#1184=VERTEX_POINT('',#1183);
#1185=CARTESIAN_POINT('',(-4.988290049,0.273623126,15.963340836));
#1186=DIRECTION('',(0.,1.,-0.));
#1187=DIRECTION('',(0.,0.,1.));
#1188=AXIS2_PLACEMENT_3D('',#1185,#1186,#1187);
#1189=CIRCLE('',#1188,1.);
#1190=EDGE_CURVE('',#1182,#1184,#1189,.T.);
#1191=ORIENTED_EDGE('',*,*,#1190,.F.);
#1192=CARTESIAN_POINT('',(-4.988290049,0.273623126,15.963340836));
#1193=DIRECTION('',(0.,1.,-0.));
#1194=DIRECTION('',(0.,0.,1.));
#1195=AXIS2_PLACEMENT_3D('',#1192,#1193,#1194);
#1196=CIRCLE('',#1195,1.);
#1197=EDGE_CURVE('',#1184,#1182,#1196,.T.);
#1198=ORIENTED_EDGE('',*,*,#1197,.F.);
#1199=EDGE_LOOP('',(#1191,#1198));
#1200=FACE_BOUND('',#1199,.T.);
#1201=CARTESIAN_POINT('',(5.021625652,0.273623126,14.963340836));
#1202=VERTEX_POINT('',#1201);
#1203=CARTESIAN_POINT('',(5.021625652,0.273623126,16.963340836));
#1204=VERTEX_POINT('',#1203);
#1205=CARTESIAN_POINT('',(5.021625652,0.273623126,15.963340836));
#1206=DIRECTION('',(0.,1.,-0.));
#1207=DIRECTION('',(0.,0.,1.));
#1208=AXIS2_PLACEMENT_3D('',#1205,#1206,#1207);
#1209=CIRCLE('',#1208,1.);
#1210=EDGE_CURVE('',#1202,#1204,#1209,.T.);
#1211=ORIENTED_EDGE('',*,*,#1210,.F.);
#1212=CARTESIAN_POINT('',(5.021625652,0.273623126,15.963340836));
#1213=DIRECTION('',(0.,1.,-0.));
#1214=DIRECTION('',(0.,0.,1.));
#1215=AXIS2_PLACEMENT_3D('',#1212,#1213,#1214);
#1216=CIRCLE('',#1215,1.);
#1217=EDGE_CURVE('',#1204,#1202,#1216,.T.);
#1218=ORIENTED_EDGE('',*,*,#1217,.F.);
#1219=EDGE_LOOP('',(#1211,#1218));
#1220=FACE_BOUND('',#1219,.T.);
#1221=CARTESIAN_POINT('',(19.946893677,0.273623126,15.715694043));
#1222=VERTEX_POINT('',#1221);
#1223=CARTESIAN_POINT('',(17.336473262,0.273623126,18.326114458));
#1224=VERTEX_POINT('',#1223);
#1225=CARTESIAN_POINT('',(19.946893677,0.273623126,15.715694043));
#1226=DIRECTION('',(-0.707106781,0.,0.707106781));
#1227=VECTOR('',#1226,3.691691955);
#1228=LINE('',#1225,#1227);
#1229=EDGE_CURVE('',#1222,#1224,#1228,.T.);
#1230=ORIENTED_EDGE('',*,*,#1229,.F.);
#1231=CARTESIAN_POINT('',(19.946893677,0.273623126,-10.988193121));
#1232=VERTEX_POINT('',#1231);
#1233=CARTESIAN_POINT('',(19.946893677,0.273623126,-10.988193121));
#1234=DIRECTION('',(0.,0.,1.));
#1235=VECTOR('',#1234,26.703887163);
#1236=LINE('',#1233,#1235);
#1237=EDGE_CURVE('',#1232,#1222,#1236,.T.);
#1238=ORIENTED_EDGE('',*,*,#1237,.F.);
#1239=CARTESIAN_POINT('',(-20.172125892,0.273623126,-10.988193121));
#1240=VERTEX_POINT('',#1239);
#1241=CARTESIAN_POINT('',(-20.172125892,0.273623126,-10.988193121));
#1242=DIRECTION('',(1.,0.,0.));
#1243=VECTOR('',#1242,40.119019569);
#1244=LINE('',#1241,#1243);
#1245=EDGE_CURVE('',#1240,#1232,#1244,.T.);
#1246=ORIENTED_EDGE('',*,*,#1245,.F.);
#1247=CARTESIAN_POINT('',(-20.172125892,0.273623126,15.555587681));
#1248=VERTEX_POINT('',#1247);
#1249=CARTESIAN_POINT('',(-20.172125892,0.273623126,15.555587681));
#1250=DIRECTION('',(0.,-0.,-1.));
#1251=VECTOR('',#1250,26.543780801);
#1252=LINE('',#1249,#1251);
#1253=EDGE_CURVE('',#1248,#1240,#1252,.T.);
#1254=ORIENTED_EDGE('',*,*,#1253,.F.);
#1255=CARTESIAN_POINT('',(-17.401599114,0.273623126,18.326114458));
#1256=VERTEX_POINT('',#1255);
#1257=CARTESIAN_POINT('',(-17.401599114,0.273623126,18.326114458));
#1258=DIRECTION('',(-0.707106781,-0.,-0.707106781));
#1259=VECTOR('',#1258,3.918116544);
#1260=LINE('',#1257,#1259);
#1261=EDGE_CURVE('',#1256,#1248,#1260,.T.);
#1262=ORIENTED_EDGE('',*,*,#1261,.F.);
#1263=CARTESIAN_POINT('',(-17.401599114,0.273623126,18.326114458));
#1264=DIRECTION('',(1.,-0.,-0.));
#1265=VECTOR('',#1264,34.738072376);
#1266=LINE('',#1263,#1265);
#1267=EDGE_CURVE('',#1256,#1224,#1266,.T.);
#1268=ORIENTED_EDGE('',*,*,#1267,.T.);
#1269=EDGE_LOOP('',(#1230,#1238,#1246,#1254,#1262,#1268));
#1270=FACE_BOUND('',#1269,.T.);
#1271=ADVANCED_FACE('',(#1160,#1180,#1200,#1220,#1270),#1140,.T.);
#1272=CARTESIAN_POINT('',(22.,-0.400262416,18.326114458));
#1273=DIRECTION('',(-1.,0.,0.));
#1274=DIRECTION('',(0.,0.,1.));
#1275=AXIS2_PLACEMENT_3D('',#1272,#1273,#1274);
#1276=CYLINDRICAL_SURFACE('',#1275,0.673885542);
#1277=CARTESIAN_POINT('',(16.66258772,-0.400262416,19.));
#1278=VERTEX_POINT('',#1277);
#1279=CARTESIAN_POINT('',(-16.727713573,-0.400262416,19.));
#1280=VERTEX_POINT('',#1279);
#1281=CARTESIAN_POINT('',(16.66258772,-0.400262416,19.));
#1282=DIRECTION('',(-1.,0.,0.));
#1283=VECTOR('',#1282,33.390301293);
#1284=LINE('',#1281,#1283);
#1285=EDGE_CURVE('',#1278,#1280,#1284,.T.);
#1286=ORIENTED_EDGE('',*,*,#1285,.F.);
#1287=CARTESIAN_POINT('',(17.336473262,-0.400262416,18.326114458));
#1288=DIRECTION('',(-0.707106781,0.,-0.707106781));
#1289=DIRECTION('',(-0.707106781,0.,0.707106781));
#1290=AXIS2_PLACEMENT_3D('',#1287,#1288,#1289);
#1291=ELLIPSE('',#1290,0.953018073,0.673885542);
#1292=EDGE_CURVE('',#1278,#1224,#1291,.T.);
#1293=ORIENTED_EDGE('',*,*,#1292,.T.);
#1294=ORIENTED_EDGE('',*,*,#1267,.F.);
#1295=CARTESIAN_POINT('',(-17.401599114,-0.400262416,18.326114458));
#1296=DIRECTION('',(-0.707106781,-0.,0.707106781));
#1297=DIRECTION('',(-0.707106781,0.,-0.707106781));
#1298=AXIS2_PLACEMENT_3D('',#1295,#1296,#1297);
#1299=ELLIPSE('',#1298,0.953018073,0.673885542);
#1300=EDGE_CURVE('',#1280,#1256,#1299,.T.);
#1301=ORIENTED_EDGE('',*,*,#1300,.F.);
#1302=EDGE_LOOP('',(#1286,#1293,#1294,#1301));
#1303=FACE_BOUND('',#1302,.T.);
#1304=ADVANCED_FACE('',(#1303),#1276,.T.);
#1305=CARTESIAN_POINT('',(5.021625652,89.286987995,15.963340836));
#1306=DIRECTION('',(0.,-1.,0.));
#1307=DIRECTION('',(0.,-0.,-1.));
#1308=AXIS2_PLACEMENT_3D('',#1305,#1306,#1307);
#1309=CYLINDRICAL_SURFACE('',#1308,1.);
#1310=CARTESIAN_POINT('',(5.021625652,-2.726376874,14.963340836));
#1311=DIRECTION('',(-0.,1.,-0.));
#1312=VECTOR('',#1311,3.);
#1313=LINE('',#1310,#1312);
#1314=EDGE_CURVE('',#289,#1202,#1313,.T.);
#1315=ORIENTED_EDGE('',*,*,#1314,.F.);
#1316=ORIENTED_EDGE('',*,*,#297,.T.);
#1317=ORIENTED_EDGE('',*,*,#304,.T.);
#1318=ORIENTED_EDGE('',*,*,#1314,.T.);
#1319=ORIENTED_EDGE('',*,*,#1210,.T.);
#1320=ORIENTED_EDGE('',*,*,#1217,.T.);
#1321=EDGE_LOOP('',(#1315,#1316,#1317,#1318,#1319,#1320));
#1322=FACE_BOUND('',#1321,.T.);
#1323=ADVANCED_FACE('',(#1322),#1309,.F.);
#1324=CARTESIAN_POINT('',(-4.988290049,100.812126746,15.963340836));
#1325=DIRECTION('',(0.,-1.,0.));
#1326=DIRECTION('',(0.,-0.,-1.));
#1327=AXIS2_PLACEMENT_3D('',#1324,#1325,#1326);
#1328=CYLINDRICAL_SURFACE('',#1327,1.);
#1329=CARTESIAN_POINT('',(-4.988290049,-2.726376874,14.963340836));
#1330=DIRECTION('',(-0.,1.,-0.));
#1331=VECTOR('',#1330,3.);
#1332=LINE('',#1329,#1331);
#1333=EDGE_CURVE('',#269,#1182,#1332,.T.);
#1334=ORIENTED_EDGE('',*,*,#1333,.F.);
#1335=ORIENTED_EDGE('',*,*,#277,.T.);
#1336=ORIENTED_EDGE('',*,*,#284,.T.);
#1337=ORIENTED_EDGE('',*,*,#1333,.T.);
#1338=ORIENTED_EDGE('',*,*,#1190,.T.);
#1339=ORIENTED_EDGE('',*,*,#1197,.T.);
#1340=EDGE_LOOP('',(#1334,#1335,#1336,#1337,#1338,#1339));
#1341=FACE_BOUND('',#1340,.T.);
#1342=ADVANCED_FACE('',(#1341),#1328,.F.);
#1343=CARTESIAN_POINT('',(-4.989345145,121.220242777,-7.036659164));
#1344=DIRECTION('',(0.,-1.,0.));
#1345=DIRECTION('',(1.,0.,0.));
#1346=AXIS2_PLACEMENT_3D('',#1343,#1344,#1345);
#1347=CYLINDRICAL_SURFACE('',#1346,1.);
#1348=CARTESIAN_POINT('',(-3.989345145,-2.726376874,-7.036659164));
#1349=DIRECTION('',(-0.,1.,-0.));
#1350=VECTOR('',#1349,3.);
#1351=LINE('',#1348,#1350);
#1352=EDGE_CURVE('',#258,#1162,#1351,.T.);
#1353=ORIENTED_EDGE('',*,*,#1352,.F.);
#1354=ORIENTED_EDGE('',*,*,#264,.T.);
#1355=ORIENTED_EDGE('',*,*,#1352,.T.);
#1356=ORIENTED_EDGE('',*,*,#1170,.T.);
#1357=ORIENTED_EDGE('',*,*,#1177,.T.);
#1358=EDGE_LOOP('',(#1353,#1354,#1355,#1356,#1357));
#1359=FACE_BOUND('',#1358,.T.);
#1360=ADVANCED_FACE('',(#1359),#1347,.F.);
#1361=CARTESIAN_POINT('',(5.020570556,107.390076275,-7.036659164));
#1362=DIRECTION('',(0.,-1.,0.));
#1363=DIRECTION('',(0.,0.,-1.));
#1364=AXIS2_PLACEMENT_3D('',#1361,#1362,#1363);
#1365=CYLINDRICAL_SURFACE('',#1364,1.);
#1366=CARTESIAN_POINT('',(5.020570556,-2.726376874,-8.036659164));
#1367=DIRECTION('',(-0.,1.,-0.));
#1368=VECTOR('',#1367,3.);
#1369=LINE('',#1366,#1368);
#1370=EDGE_CURVE('',#238,#1142,#1369,.T.);
#1371=ORIENTED_EDGE('',*,*,#1370,.F.);
#1372=ORIENTED_EDGE('',*,*,#246,.T.);
#1373=ORIENTED_EDGE('',*,*,#253,.T.);
#1374=ORIENTED_EDGE('',*,*,#1370,.T.);
#1375=ORIENTED_EDGE('',*,*,#1150,.T.);
#1376=ORIENTED_EDGE('',*,*,#1157,.T.);
#1377=EDGE_LOOP('',(#1371,#1372,#1373,#1374,#1375,#1376));
#1378=FACE_BOUND('',#1377,.T.);
#1379=ADVANCED_FACE('',(#1378),#1365,.F.);
#1380=CARTESIAN_POINT('',(22.,47.51217235,19.));
#1381=DIRECTION('',(0.,0.,1.));
#1382=DIRECTION('',(1.,0.,0.));
#1383=AXIS2_PLACEMENT_3D('',#1380,#1381,#1382);
#1384=PLANE('',#1383);
#1385=CARTESIAN_POINT('',(16.66258772,-2.726376874,19.));
#1386=DIRECTION('',(-0.,1.,-0.));
#1387=VECTOR('',#1386,2.326114458);
#1388=LINE('',#1385,#1387);
#1389=EDGE_CURVE('',#180,#1278,#1388,.T.);
#1390=ORIENTED_EDGE('',*,*,#1389,.T.);
#1391=ORIENTED_EDGE('',*,*,#1285,.T.);
#1392=CARTESIAN_POINT('',(-16.727713573,-0.400262416,19.));
#1393=DIRECTION('',(-0.,-1.,-0.));
#1394=VECTOR('',#1393,2.326114458);
#1395=LINE('',#1392,#1394);
#1396=EDGE_CURVE('',#1280,#188,#1395,.T.);
#1397=ORIENTED_EDGE('',*,*,#1396,.T.);
#1398=ORIENTED_EDGE('',*,*,#193,.F.);
#1399=EDGE_LOOP('',(#1390,#1391,#1397,#1398));
#1400=FACE_BOUND('',#1399,.T.);
#1401=ADVANCED_FACE('',(#1400),#1384,.T.);
#1402=CARTESIAN_POINT('',(-101.242508416,6.618856839,15.289734135));
#1403=DIRECTION('',(0.,-0.885397896,-0.464833911));
#1404=DIRECTION('',(0.,0.464833911,-0.885397896));
#1405=AXIS2_PLACEMENT_3D('',#1402,#1403,#1404);
#1406=PLANE('',#1405);
#1407=CARTESIAN_POINT('',(19.946893677,8.757310015,11.216490125));
#1408=VERTEX_POINT('',#1407);
#1409=CARTESIAN_POINT('',(21.728933978,8.757310015,11.216490125));
#1410=VERTEX_POINT('',#1409);
#1411=CARTESIAN_POINT('',(19.946893677,8.757310015,11.216490125));
#1412=DIRECTION('',(1.,0.,-0.));
#1413=VECTOR('',#1412,1.782040301);
#1414=LINE('',#1411,#1413);
#1415=EDGE_CURVE('',#1408,#1410,#1414,.T.);
#1416=ORIENTED_EDGE('',*,*,#1415,.F.);
#1417=CARTESIAN_POINT('',(19.946893677,8.757310015,11.216490125));
#1418=DIRECTION('',(0.,-0.464833911,0.885397896));
#1419=VECTOR('',#1418,0.726052684);
#1420=LINE('',#1417,#1419);
#1421=EDGE_CURVE('',#1408,#1065,#1420,.T.);
#1422=ORIENTED_EDGE('',*,*,#1421,.T.);
#1423=ORIENTED_EDGE('',*,*,#1092,.T.);
#1424=CARTESIAN_POINT('',(21.728933978,8.419816106,11.859335645));
#1425=DIRECTION('',(0.,0.464833911,-0.885397896));
#1426=VECTOR('',#1425,0.726052684);
#1427=LINE('',#1424,#1426);
#1428=EDGE_CURVE('',#1081,#1410,#1427,.T.);
#1429=ORIENTED_EDGE('',*,*,#1428,.T.);
#1430=EDGE_LOOP('',(#1416,#1422,#1423,#1429));
#1431=FACE_BOUND('',#1430,.T.);
#1432=ADVANCED_FACE('',(#1431),#1406,.F.);
#1433=CARTESIAN_POINT('',(19.946893677,47.51217235,14.));
#1434=DIRECTION('',(-1.,0.,0.));
#1435=DIRECTION('',(0.,0.,1.));
#1436=AXIS2_PLACEMENT_3D('',#1433,#1434,#1435);
#1437=PLANE('',#1436);
#1438=CARTESIAN_POINT('',(19.946893677,8.419816106,15.715694043));
#1439=DIRECTION('',(-0.,-1.,-0.));
#1440=VECTOR('',#1439,8.14619298);
#1441=LINE('',#1438,#1440);
#1442=EDGE_CURVE('',#1063,#1222,#1441,.T.);
#1443=ORIENTED_EDGE('',*,*,#1442,.F.);
#1444=ORIENTED_EDGE('',*,*,#1070,.T.);
#1445=ORIENTED_EDGE('',*,*,#1421,.F.);
#1446=CARTESIAN_POINT('',(19.946893677,8.757310015,-10.988193121));
#1447=VERTEX_POINT('',#1446);
#1448=CARTESIAN_POINT('',(19.946893677,8.757310015,11.216490125));
#1449=DIRECTION('',(0.,0.,-1.));
#1450=VECTOR('',#1449,22.204683246);
#1451=LINE('',#1448,#1450);
#1452=EDGE_CURVE('',#1408,#1447,#1451,.T.);
#1453=ORIENTED_EDGE('',*,*,#1452,.T.);
#1454=CARTESIAN_POINT('',(19.946893677,8.757310015,-10.988193121));
#1455=DIRECTION('',(0.,-1.,0.));
#1456=VECTOR('',#1455,8.483686889);
#1457=LINE('',#1454,#1456);
#1458=EDGE_CURVE('',#1447,#1232,#1457,.T.);
#1459=ORIENTED_EDGE('',*,*,#1458,.T.);
#1460=ORIENTED_EDGE('',*,*,#1237,.T.);
#1461=EDGE_LOOP('',(#1443,#1444,#1445,#1453,#1459,#1460));
#1462=FACE_BOUND('',#1461,.T.);
#1463=CARTESIAN_POINT('',(19.946893677,2.973478273,8.946135793));
#1464=VERTEX_POINT('',#1463);
#1465=CARTESIAN_POINT('',(19.946893677,2.973478273,11.946135793));
#1466=VERTEX_POINT('',#1465);
#1467=CARTESIAN_POINT('',(19.946893677,2.973478273,10.446135793));
#1468=DIRECTION('',(-1.,0.,0.));
#1469=DIRECTION('',(0.,0.,1.));
#1470=AXIS2_PLACEMENT_3D('',#1467,#1468,#1469);
#1471=CIRCLE('',#1470,1.5);
#1472=EDGE_CURVE('',#1464,#1466,#1471,.T.);
#1473=ORIENTED_EDGE('',*,*,#1472,.F.);
#1474=CARTESIAN_POINT('',(19.946893677,2.973478273,10.446135793));
#1475=DIRECTION('',(-1.,0.,0.));
#1476=DIRECTION('',(0.,0.,1.));
#1477=AXIS2_PLACEMENT_3D('',#1474,#1475,#1476);
#1478=CIRCLE('',#1477,1.5);
#1479=EDGE_CURVE('',#1466,#1464,#1478,.T.);
#1480=ORIENTED_EDGE('',*,*,#1479,.F.);
#1481=EDGE_LOOP('',(#1473,#1480));
#1482=FACE_BOUND('',#1481,.T.);
#1483=ADVANCED_FACE('',(#1462,#1482),#1437,.T.);
#1484=CARTESIAN_POINT('',(0.,0.273623126,-10.988193121));
#1485=DIRECTION('',(0.,0.,-1.));
#1486=DIRECTION('',(0.,1.,0.));
#1487=AXIS2_PLACEMENT_3D('',#1484,#1485,#1486);
#1488=PLANE('',#1487);
#1489=ORIENTED_EDGE('',*,*,#142,.F.);
#1490=ORIENTED_EDGE('',*,*,#112,.F.);
#1491=ORIENTED_EDGE('',*,*,#80,.F.);
#1492=ORIENTED_EDGE('',*,*,#48,.F.);
#1493=EDGE_LOOP('',(#1489,#1490,#1491,#1492));
#1494=FACE_BOUND('',#1493,.T.);
#1495=CARTESIAN_POINT('',(-20.172125892,8.757310015,-10.988193121));
#1496=VERTEX_POINT('',#1495);
#1497=CARTESIAN_POINT('',(-20.172125892,8.757310015,-10.988193121));
#1498=DIRECTION('',(1.,0.,0.));
#1499=VECTOR('',#1498,40.119019569);
#1500=LINE('',#1497,#1499);
#1501=EDGE_CURVE('',#1496,#1447,#1500,.T.);
#1502=ORIENTED_EDGE('',*,*,#1501,.F.);
#1503=CARTESIAN_POINT('',(-20.172125892,8.757310015,-10.988193121));
#1504=DIRECTION('',(0.,-1.,0.));
#1505=VECTOR('',#1504,8.483686889);
#1506=LINE('',#1503,#1505);
#1507=EDGE_CURVE('',#1496,#1240,#1506,.T.);
#1508=ORIENTED_EDGE('',*,*,#1507,.T.);
#1509=ORIENTED_EDGE('',*,*,#1245,.T.);
#1510=ORIENTED_EDGE('',*,*,#1458,.F.);
#1511=EDGE_LOOP('',(#1502,#1508,#1509,#1510));
#1512=FACE_BOUND('',#1511,.T.);
#1513=ADVANCED_FACE('',(#1494,#1512),#1488,.F.);
#1514=CARTESIAN_POINT('',(-20.172125892,47.51217235,-10.988193121));
#1515=DIRECTION('',(1.,0.,0.));
#1516=DIRECTION('',(0.,0.,-1.));
#1517=AXIS2_PLACEMENT_3D('',#1514,#1515,#1516);
#1518=PLANE('',#1517);
#1519=CARTESIAN_POINT('',(-20.172125892,2.973478273,8.946135793));
#1520=VERTEX_POINT('',#1519);
#1521=CARTESIAN_POINT('',(-20.172125892,2.973478273,10.446135793));
#1522=DIRECTION('',(1.,0.,0.));
#1523=DIRECTION('',(0.,0.,-1.));
#1524=AXIS2_PLACEMENT_3D('',#1521,#1522,#1523);
#1525=CIRCLE('',#1524,1.5);
#1526=EDGE_CURVE('',#1520,#1520,#1525,.T.);
#1527=ORIENTED_EDGE('',*,*,#1526,.F.);
#1528=EDGE_LOOP('',(#1527));
#1529=FACE_BOUND('',#1528,.T.);
#1530=CARTESIAN_POINT('',(-20.172125892,4.878224521,15.555587681));
#1531=VERTEX_POINT('',#1530);
#1532=CARTESIAN_POINT('',(-20.172125892,4.878224521,10.));
#1533=DIRECTION('',(1.,0.,0.));
#1534=DIRECTION('',(0.,0.,-1.));
#1535=AXIS2_PLACEMENT_3D('',#1532,#1533,#1534);
#1536=CIRCLE('',#1535,5.555587681);
#1537=EDGE_CURVE('',#1113,#1531,#1536,.T.);
#1538=ORIENTED_EDGE('',*,*,#1537,.T.);
#1539=CARTESIAN_POINT('',(-20.172125892,4.878224521,15.555587681));
#1540=DIRECTION('',(-0.,-1.,-0.));
#1541=VECTOR('',#1540,4.604601394);
#1542=LINE('',#1539,#1541);
#1543=EDGE_CURVE('',#1531,#1248,#1542,.T.);
#1544=ORIENTED_EDGE('',*,*,#1543,.T.);
#1545=ORIENTED_EDGE('',*,*,#1253,.T.);
#1546=ORIENTED_EDGE('',*,*,#1507,.F.);
#1547=CARTESIAN_POINT('',(-20.172125892,8.757310015,11.216490125));
#1548=VERTEX_POINT('',#1547);
#1549=CARTESIAN_POINT('',(-20.172125892,8.757310015,-10.988193121));
#1550=DIRECTION('',(0.,0.,1.));
#1551=VECTOR('',#1550,22.204683246);
#1552=LINE('',#1549,#1551);
#1553=EDGE_CURVE('',#1496,#1548,#1552,.T.);
#1554=ORIENTED_EDGE('',*,*,#1553,.T.);
#1555=CARTESIAN_POINT('',(-20.172125892,8.419816106,11.859335645));
#1556=DIRECTION('',(0.,0.464833911,-0.885397896));
#1557=VECTOR('',#1556,0.726052684);
#1558=LINE('',#1555,#1557);
#1559=EDGE_CURVE('',#1105,#1548,#1558,.T.);
#1560=ORIENTED_EDGE('',*,*,#1559,.F.);
#1561=ORIENTED_EDGE('',*,*,#1131,.F.);
#1562=EDGE_LOOP('',(#1538,#1544,#1545,#1546,#1554,#1560,#1561));
#1563=FACE_BOUND('',#1562,.T.);
#1564=ADVANCED_FACE('',(#1529,#1563),#1518,.T.);
#1565=CARTESIAN_POINT('',(-101.242508416,6.618856839,15.289734135));
#1566=DIRECTION('',(0.,-0.885397896,-0.464833911));
#1567=DIRECTION('',(0.,0.464833911,-0.885397896));
#1568=AXIS2_PLACEMENT_3D('',#1565,#1566,#1567);
#1569=PLANE('',#1568);
#1570=CARTESIAN_POINT('',(-21.727713573,8.757310015,11.216490125));
#1571=VERTEX_POINT('',#1570);
#1572=CARTESIAN_POINT('',(-21.727713573,8.757310015,11.216490125));
#1573=DIRECTION('',(1.,0.,-0.));
#1574=VECTOR('',#1573,1.555587681);
#1575=LINE('',#1572,#1574);
#1576=EDGE_CURVE('',#1571,#1548,#1575,.T.);
#1577=ORIENTED_EDGE('',*,*,#1576,.F.);
#1578=CARTESIAN_POINT('',(-21.727713573,8.757310015,11.216490125));
#1579=DIRECTION('',(0.,-0.464833911,0.885397896));
#1580=VECTOR('',#1579,0.726052684);
#1581=LINE('',#1578,#1580);
#1582=EDGE_CURVE('',#1571,#1103,#1581,.T.);
#1583=ORIENTED_EDGE('',*,*,#1582,.T.);
#1584=ORIENTED_EDGE('',*,*,#1110,.T.);
#1585=ORIENTED_EDGE('',*,*,#1559,.T.);
#1586=EDGE_LOOP('',(#1577,#1583,#1584,#1585));
#1587=FACE_BOUND('',#1586,.T.);
#1588=ADVANCED_FACE('',(#1587),#1569,.F.);
#1589=CARTESIAN_POINT('',(-68.274219035,2.973478273,10.446135793));
#1590=DIRECTION('',(1.,0.,0.));
#1591=DIRECTION('',(0.,0.,-1.));
#1592=AXIS2_PLACEMENT_3D('',#1589,#1590,#1591);
#1593=CYLINDRICAL_SURFACE('',#1592,1.5);
#1594=CARTESIAN_POINT('',(22.,2.973478273,8.946135793));
#1595=DIRECTION('',(-1.,-0.,0.));
#1596=VECTOR('',#1595,2.053106323);
#1597=LINE('',#1594,#1596);
#1598=EDGE_CURVE('',#372,#1464,#1597,.T.);
#1599=ORIENTED_EDGE('',*,*,#1598,.F.);
#1600=ORIENTED_EDGE('',*,*,#378,.T.);
#1601=ORIENTED_EDGE('',*,*,#1598,.T.);
#1602=ORIENTED_EDGE('',*,*,#1472,.T.);
#1603=ORIENTED_EDGE('',*,*,#1479,.T.);
#1604=EDGE_LOOP('',(#1599,#1600,#1601,#1602,#1603));
#1605=FACE_BOUND('',#1604,.T.);
#1606=ADVANCED_FACE('',(#1605),#1593,.F.);
#1607=CARTESIAN_POINT('',(22.,47.51217235,13.66258772));
#1608=DIRECTION('',(-0.707106781,0.,-0.707106781));
#1609=DIRECTION('',(0.,-1.,0.));
#1610=AXIS2_PLACEMENT_3D('',#1607,#1608,#1609);
#1611=PLANE('',#1610);
#1612=ORIENTED_EDGE('',*,*,#1078,.F.);
#1613=ORIENTED_EDGE('',*,*,#1442,.T.);
#1614=ORIENTED_EDGE('',*,*,#1229,.T.);
#1615=ORIENTED_EDGE('',*,*,#1292,.F.);
#1616=ORIENTED_EDGE('',*,*,#1389,.F.);
#1617=ORIENTED_EDGE('',*,*,#185,.F.);
#1618=ORIENTED_EDGE('',*,*,#360,.F.);
#1619=CARTESIAN_POINT('',(21.728933978,8.419816106,13.933653742));
#1620=CARTESIAN_POINT('',(21.758046218,8.419816106,13.904541502));
#1621=CARTESIAN_POINT('',(21.786885456,8.415778042,13.875702264));
#1622=CARTESIAN_POINT('',(21.8154226,8.407271638,13.84716512));
#1623=CARTESIAN_POINT('',(21.843959745,8.398765235,13.818627975));
#1624=CARTESIAN_POINT('',(21.872049406,8.38576486,13.790538314));
#1625=CARTESIAN_POINT('',(21.898100613,8.367342509,13.764487107));
#1626=CARTESIAN_POINT('',(21.92415182,8.348920157,13.7384359));
#1627=CARTESIAN_POINT('',(21.948714802,8.324805492,13.713872918));
#1628=CARTESIAN_POINT('',(21.967861575,8.293167855,13.694726145));
#1629=CARTESIAN_POINT('',(21.987008349,8.261530218,13.675579371));
#1630=CARTESIAN_POINT('',(22.,8.221853727,13.66258772));
#1631=CARTESIAN_POINT('',(22.,8.17981482,13.66258772));
#1632=B_SPLINE_CURVE_WITH_KNOTS('',3,(#1619,#1620,#1621,#1622,#1623,#1624,#1625,#1626,#1627,#1628,#1629,#1630,#1631),.UNSPECIFIED.,.F.,.F.,(4,3,3,3,4),(0.00005783,0.000181691,0.000305552,0.000429413,0.000553274),.UNSPECIFIED.);
#1633=EDGE_CURVE('',#1073,#349,#1632,.T.);
#1634=ORIENTED_EDGE('',*,*,#1633,.F.);
#1635=EDGE_LOOP('',(#1612,#1613,#1614,#1615,#1616,#1617,#1618,#1634));
#1636=FACE_BOUND('',#1635,.T.);
#1637=ADVANCED_FACE('',(#1636),#1611,.F.);
#1638=CARTESIAN_POINT('',(21.728933978,8.17981482,11.733334966));
#1639=DIRECTION('',(0.,-0.,1.));
#1640=DIRECTION('',(1.,0.,0.));
#1641=AXIS2_PLACEMENT_3D('',#1638,#1639,#1640);
#1642=ELLIPSE('',#1641,0.271066022,0.240001286);
#1643=DIRECTION('',(0.,0.,1.));
#1644=VECTOR('',#1643,1.);
#1645=SURFACE_OF_LINEAR_EXTRUSION('',#1642,#1644);
#1646=ORIENTED_EDGE('',*,*,#1086,.F.);
#1647=ORIENTED_EDGE('',*,*,#1633,.T.);
#1648=ORIENTED_EDGE('',*,*,#354,.T.);
#1649=CARTESIAN_POINT('',(21.728933978,8.17981482,11.733334966));
#1650=DIRECTION('',(-0.,0.464833911,-0.885397896));
#1651=DIRECTION('',(0.,0.885397896,0.464833911));
#1652=AXIS2_PLACEMENT_3D('',#1649,#1650,#1651);
#1653=CIRCLE('',#1652,0.271066022);
#1654=EDGE_CURVE('',#1081,#341,#1653,.T.);
#1655=ORIENTED_EDGE('',*,*,#1654,.F.);
#1656=EDGE_LOOP('',(#1646,#1647,#1648,#1655));
#1657=FACE_BOUND('',#1656,.T.);
#1658=ADVANCED_FACE('',(#1657),#1645,.T.);
#1659=CARTESIAN_POINT('',(21.728933978,6.378855553,15.163733455));
#1660=DIRECTION('',(0.,-0.464833911,0.885397896));
#1661=DIRECTION('',(0.,-0.885397896,-0.464833911));
#1662=AXIS2_PLACEMENT_3D('',#1659,#1660,#1661);
#1663=CYLINDRICAL_SURFACE('',#1662,0.271066022);
#1664=ORIENTED_EDGE('',*,*,#346,.F.);
#1665=CARTESIAN_POINT('',(21.728933978,8.757310015,10.633344155));
#1666=DIRECTION('',(-0.,-1.,-0.));
#1667=DIRECTION('',(0.,-0.,1.));
#1668=AXIS2_PLACEMENT_3D('',#1665,#1666,#1667);
#1669=ELLIPSE('',#1668,0.58314597,0.271066022);
#1670=EDGE_CURVE('',#333,#1410,#1669,.T.);
#1671=ORIENTED_EDGE('',*,*,#1670,.T.);
#1672=ORIENTED_EDGE('',*,*,#1428,.F.);
#1673=ORIENTED_EDGE('',*,*,#1654,.T.);
#1674=EDGE_LOOP('',(#1664,#1671,#1672,#1673));
#1675=FACE_BOUND('',#1674,.T.);
#1676=ADVANCED_FACE('',(#1675),#1663,.T.);
#1677=CARTESIAN_POINT('',(-68.274219035,2.973478273,10.446135793));
#1678=DIRECTION('',(1.,0.,0.));
#1679=DIRECTION('',(0.,0.,-1.));
#1680=AXIS2_PLACEMENT_3D('',#1677,#1678,#1679);
#1681=CYLINDRICAL_SURFACE('',#1680,1.5);
#1682=CARTESIAN_POINT('',(-20.172125892,2.973478273,8.946135793));
#1683=DIRECTION('',(-1.,-0.,0.));
#1684=VECTOR('',#1683,1.827874108);
#1685=LINE('',#1682,#1684);
#1686=EDGE_CURVE('',#1520,#447,#1685,.T.);
#1687=ORIENTED_EDGE('',*,*,#1686,.F.);
#1688=ORIENTED_EDGE('',*,*,#1526,.T.);
#1689=ORIENTED_EDGE('',*,*,#1686,.T.);
#1690=ORIENTED_EDGE('',*,*,#455,.T.);
#1691=ORIENTED_EDGE('',*,*,#462,.T.);
#1692=EDGE_LOOP('',(#1687,#1688,#1689,#1690,#1691));
#1693=FACE_BOUND('',#1692,.T.);
#1694=ADVANCED_FACE('',(#1693),#1681,.F.);
#1695=CARTESIAN_POINT('',(-21.727713573,6.618856839,15.289734135));
#1696=DIRECTION('',(-0.707106781,0.626070857,0.328687211));
#1697=DIRECTION('',(0.,0.464833911,-0.885397896));
#1698=AXIS2_PLACEMENT_3D('',#1695,#1696,#1697);
#1699=PLANE('',#1698);
#1700=ORIENTED_EDGE('',*,*,#1582,.F.);
#1701=CARTESIAN_POINT('',(-21.727713573,8.757310015,11.216490125));
#1702=DIRECTION('',(-0.421520223,0.,-0.906819001));
#1703=VECTOR('',#1702,0.645962904);
#1704=LINE('',#1701,#1703);
#1705=EDGE_CURVE('',#1571,#407,#1704,.T.);
#1706=ORIENTED_EDGE('',*,*,#1705,.T.);
#1707=ORIENTED_EDGE('',*,*,#412,.F.);
#1708=CARTESIAN_POINT('',(-22.,8.178734276,11.73276768));
#1709=DIRECTION('',(0.707106781,0.626070857,0.328687211));
#1710=VECTOR('',#1709,0.385071158);
#1711=LINE('',#1708,#1710);
#1712=EDGE_CURVE('',#398,#1103,#1711,.T.);
#1713=ORIENTED_EDGE('',*,*,#1712,.T.);
#1714=EDGE_LOOP('',(#1700,#1706,#1707,#1713));
#1715=FACE_BOUND('',#1714,.T.);
#1716=ADVANCED_FACE('',(#1715),#1699,.T.);
#1717=CARTESIAN_POINT('',(-21.727713573,4.878224521,10.));
#1718=DIRECTION('',(1.,0.,0.));
#1719=DIRECTION('',(0.,0.,-1.));
#1720=AXIS2_PLACEMENT_3D('',#1717,#1718,#1719);
#1721=CONICAL_SURFACE('',#1720,4.,45.);
#1722=ORIENTED_EDGE('',*,*,#1537,.F.);
#1723=ORIENTED_EDGE('',*,*,#1125,.T.);
#1724=ORIENTED_EDGE('',*,*,#1712,.F.);
#1725=ORIENTED_EDGE('',*,*,#404,.F.);
#1726=CARTESIAN_POINT('',(-22.,4.878224521,13.727713573));
#1727=DIRECTION('',(0.707106781,-0.,0.707106781));
#1728=VECTOR('',#1727,2.585004354);
#1729=LINE('',#1726,#1728);
#1730=EDGE_CURVE('',#390,#1531,#1729,.T.);
#1731=ORIENTED_EDGE('',*,*,#1730,.T.);
#1732=EDGE_LOOP('',(#1722,#1723,#1724,#1725,#1731));
#1733=FACE_BOUND('',#1732,.T.);
#1734=ADVANCED_FACE('',(#1733),#1721,.T.);
#1735=CARTESIAN_POINT('',(-21.727713573,47.51217235,14.));
#1736=DIRECTION('',(0.707106781,0.,-0.707106781));
#1737=DIRECTION('',(0.,-1.,0.));
#1738=AXIS2_PLACEMENT_3D('',#1735,#1736,#1737);
#1739=PLANE('',#1738);
#1740=ORIENTED_EDGE('',*,*,#1300,.T.);
#1741=ORIENTED_EDGE('',*,*,#1261,.T.);
#1742=ORIENTED_EDGE('',*,*,#1543,.F.);
#1743=ORIENTED_EDGE('',*,*,#1730,.F.);
#1744=ORIENTED_EDGE('',*,*,#395,.F.);
#1745=ORIENTED_EDGE('',*,*,#201,.F.);
#1746=ORIENTED_EDGE('',*,*,#1396,.F.);
#1747=EDGE_LOOP('',(#1740,#1741,#1742,#1743,#1744,#1745,#1746));
#1748=FACE_BOUND('',#1747,.T.);
#1749=ADVANCED_FACE('',(#1748),#1739,.F.);
#1750=CARTESIAN_POINT('',(-39.911547395,8.757310015,153.644103539));
#1751=DIRECTION('',(0.,1.,0.));
#1752=DIRECTION('',(0.,0.,1.));
#1753=AXIS2_PLACEMENT_3D('',#1750,#1751,#1752);
#1754=PLANE('',#1753);
#1755=ORIENTED_EDGE('',*,*,#1007,.F.);
#1756=ORIENTED_EDGE('',*,*,#420,.F.);
#1757=ORIENTED_EDGE('',*,*,#1705,.F.);
#1758=ORIENTED_EDGE('',*,*,#1576,.T.);
#1759=ORIENTED_EDGE('',*,*,#1553,.F.);
#1760=ORIENTED_EDGE('',*,*,#1501,.T.);
#1761=ORIENTED_EDGE('',*,*,#1452,.F.);
#1762=ORIENTED_EDGE('',*,*,#1415,.T.);
#1763=ORIENTED_EDGE('',*,*,#1670,.F.);
#1764=ORIENTED_EDGE('',*,*,#338,.F.);
#1765=EDGE_LOOP('',(#1755,#1756,#1757,#1758,#1759,#1760,#1761,#1762,#1763,#1764));
#1766=FACE_BOUND('',#1765,.T.);
#1767=ADVANCED_FACE('',(#1766),#1754,.T.);
#1768=CARTESIAN_POINT('',(-10.06767413,2.951720557,-13.471687684));
#1769=DIRECTION('',(0.,0.,-1.));
#1770=DIRECTION('',(-1.,0.,0.));
#1771=AXIS2_PLACEMENT_3D('',#1768,#1769,#1770);
#1772=TOROIDAL_SURFACE('',#1771,1.528312316,0.528312316);
#1773=ORIENTED_EDGE('',*,*,#521,.F.);
#1774=ORIENTED_EDGE('',*,*,#152,.F.);
#1775=ORIENTED_EDGE('',*,*,#606,.F.);
#1776=ORIENTED_EDGE('',*,*,#697,.F.);
#1777=EDGE_LOOP('',(#1773,#1774,#1775,#1776));
#1778=FACE_BOUND('',#1777,.T.);
#1779=ADVANCED_FACE('',(#1778),#1772,.T.);
#1780=CLOSED_SHELL('',(#66,#99,#130,#163,#308,#382,#466,#508,#542,#567,#593,#618,#650,#682,#707,#739,#771,#811,#842,#873,#895,#917,#975,#1020,#1038,#1056,
#1096,#1135,#1271,#1304,#1323,#1342,#1360,#1379,#1401,#1432,#1483,#1513,#1564,#1588,#1606,#1637,#1658,#1676,#1694,#1716,#1734,#1749,#1767,#1779));
#1781=MANIFOLD_SOLID_BREP('Solid 95',#1780);
#26=STYLED_ITEM('',(),#1781);
#16=SHAPE_REPRESENTATION('root',(#15),#10);
#17=ADVANCED_BREP_SHAPE_REPRESENTATION('root',(#1781),#10);
#1789=SHAPE_REPRESENTATION_RELATIONSHIP('','',#16,#17);
#1790=APPLICATION_CONTEXT('configuration controlled 3D design of mechanical parts and assemblies');
#1791=APPLICATION_PROTOCOL_DEFINITION('international standard','configuration_control_3d_design_ed2_mim',2004,#1790);
#1792=PRODUCT_CONTEXT('',#1790,'mechanical');
#1793=PRODUCT_DEFINITION_CONTEXT('part definition',#1790,'design');
#24=PRODUCT('root','root','',(#1792));
#1794=PRODUCT_RELATED_PRODUCT_CATEGORY('part','',(#24));
#1795=PRODUCT_DEFINITION_FORMATION_WITH_SPECIFIED_SOURCE('','',#24,.NOT_KNOWN.);
#25=PRODUCT_DEFINITION('design','',#1795,#1793);
#23=PRODUCT_DEFINITION_SHAPE('','',#25);
#1796=SHAPE_DEFINITION_REPRESENTATION(#23,#16);
#11=DRAUGHTING_MODEL('',(),#10);
#1=MECHANICAL_DESIGN_GEOMETRIC_PRESENTATION_REPRESENTATION('',(#26),#10);
ENDSEC;
END-ISO-10303-21;
