ISO-10303-21;
HEADER;

/* File generated by HOOPS Exchange Version 24.2.0 */

FILE_DESCRIPTION(('HOOPS Exchange Step'),'2;1');

FILE_NAME('E:\\ROSMaster_X3Plus\\Parts\\CameraMount_Oak-D_2026-02-14-105642.step',
'2026-02-14T10:56:45-08:00',
('DELL'),
('Unknown organisation'),
'HOOPS Exchange 2024.2',
'HOOPS Exchange',
'Unknown authorisation');

FILE_SCHEMA( ('AP203_CONFIGURATION_CONTROLLED_3D_DESIGN_OF_MECHANICAL_PARTS_AND_ASSEMBLIES_MIM_LF') );

ENDSEC;

DATA;
#3=(NAMED_UNIT(*)PLANE_ANGLE_UNIT()SI_UNIT($,.RADIAN.));
#4=PLANE_ANGLE_MEASURE_WITH_UNIT(PLANE_ANGLE_MEASURE(0.0174532925),#3);
#5=(CONVERSION_BASED_UNIT('DEGREE',#4)NAMED_UNIT(#6)PLANE_ANGLE_UNIT());
#6=DIMENSIONAL_EXPONENTS(0.,0.,0.,0.,0.,0.,0.);
#7=(NAMED_UNIT(*)SI_UNIT($,.STERADIAN.)SOLID_ANGLE_UNIT());
#8=(LENGTH_UNIT()NAMED_UNIT(*)SI_UNIT(.MILLI.,.METRE.));
#9=UNCERTAINTY_MEASURE_WITH_UNIT(LENGTH_MEASURE(1.000000E-05),#8,'DISTANCE_ACCURACY_VALUE','Maximum Tolerance applied to model');
#10=(GEOMETRIC_REPRESENTATION_CONTEXT(3)GLOBAL_UNCERTAINTY_ASSIGNED_CONTEXT((#9))GLOBAL_UNIT_ASSIGNED_CONTEXT((#8,#5,#7))REPRESENTATION_CONTEXT('','root'));
#12=CARTESIAN_POINT('',(0.,0.,0.));
#13=DIRECTION('',(0.,0.,1.));
#14=DIRECTION('',(1.,0.,0.));
#15=AXIS2_PLACEMENT_3D('',#12,#13,#14);
#27=CARTESIAN_POINT('',(0.,0.273623126,0.));
#28=DIRECTION('',(0.,1.,-0.));
#29=DIRECTION('',(0.,0.,1.));
#30=AXIS2_PLACEMENT_3D('',#27,#28,#29);
#31=PLANE('',#30);
#32=CARTESIAN_POINT('',(5.020570556,0.273623126,-8.036659164));
#33=VERTEX_POINT('',#32);
#34=CARTESIAN_POINT('',(5.020570556,0.273623126,-6.036659164));
#35=VERTEX_POINT('',#34);
#36=CARTESIAN_POINT('',(5.020570556,0.273623126,-7.036659164));
#37=DIRECTION('',(0.,1.,-0.));
#38=DIRECTION('',(0.,0.,1.));
#39=AXIS2_PLACEMENT_3D('',#36,#37,#38);
#40=CIRCLE('',#39,1.);
#41=EDGE_CURVE('',#33,#35,#40,.T.);
#42=ORIENTED_EDGE('',*,*,#41,.F.);
#43=CARTESIAN_POINT('',(5.020570556,0.273623126,-7.036659164));
#44=DIRECTION('',(0.,1.,-0.));
#45=DIRECTION('',(0.,0.,1.));
#46=AXIS2_PLACEMENT_3D('',#43,#44,#45);
#47=CIRCLE('',#46,1.);
#48=EDGE_CURVE('',#35,#33,#47,.T.);
#49=ORIENTED_EDGE('',*,*,#48,.F.);
#50=EDGE_LOOP('',(#42,#49));
#51=FACE_BOUND('',#50,.T.);
#52=CARTESIAN_POINT('',(-3.989345145,0.273623126,-7.036659164));
#53=VERTEX_POINT('',#52);
#54=CARTESIAN_POINT('',(-4.989345145,0.273623126,-6.036659164));
#55=VERTEX_POINT('',#54);
#56=CARTESIAN_POINT('',(-4.989345145,0.273623126,-7.036659164));
#57=DIRECTION('',(0.,1.,-0.));
#58=DIRECTION('',(0.,0.,1.));
#59=AXIS2_PLACEMENT_3D('',#56,#57,#58);
#60=CIRCLE('',#59,1.);
#61=EDGE_CURVE('',#53,#55,#60,.T.);
#62=ORIENTED_EDGE('',*,*,#61,.F.);
#63=CARTESIAN_POINT('',(-4.989345145,0.273623126,-7.036659164));
#64=DIRECTION('',(0.,1.,-0.));
#65=DIRECTION('',(0.,0.,1.));
#66=AXIS2_PLACEMENT_3D('',#63,#64,#65);
#67=CIRCLE('',#66,1.);
#68=EDGE_CURVE('',#55,#53,#67,.T.);
#69=ORIENTED_EDGE('',*,*,#68,.F.);
#70=EDGE_LOOP('',(#62,#69));
#71=FACE_BOUND('',#70,.T.);
#72=CARTESIAN_POINT('',(-4.988290049,0.273623126,14.963340836));
#73=VERTEX_POINT('',#72);
#74=CARTESIAN_POINT('',(-4.988290049,0.273623126,16.963340836));
#75=VERTEX_POINT('',#74);
#76=CARTESIAN_POINT('',(-4.988290049,0.273623126,15.963340836));
#77=DIRECTION('',(0.,1.,-0.));
#78=DIRECTION('',(0.,0.,1.));
#79=AXIS2_PLACEMENT_3D('',#76,#77,#78);
#80=CIRCLE('',#79,1.);
#81=EDGE_CURVE('',#73,#75,#80,.T.);
#82=ORIENTED_EDGE('',*,*,#81,.F.);
#83=CARTESIAN_POINT('',(-4.988290049,0.273623126,15.963340836));
#84=DIRECTION('',(0.,1.,-0.));
#85=DIRECTION('',(0.,0.,1.));
#86=AXIS2_PLACEMENT_3D('',#83,#84,#85);
#87=CIRCLE('',#86,1.);
#88=EDGE_CURVE('',#75,#73,#87,.T.);
#89=ORIENTED_EDGE('',*,*,#88,.F.);
#90=EDGE_LOOP('',(#82,#89));
#91=FACE_BOUND('',#90,.T.);
#92=CARTESIAN_POINT('',(5.021625652,0.273623126,14.963340836));
#93=VERTEX_POINT('',#92);
#94=CARTESIAN_POINT('',(5.021625652,0.273623126,16.963340836));
#95=VERTEX_POINT('',#94);
#96=CARTESIAN_POINT('',(5.021625652,0.273623126,15.963340836));
#97=DIRECTION('',(0.,1.,-0.));
#98=DIRECTION('',(0.,0.,1.));
#99=AXIS2_PLACEMENT_3D('',#96,#97,#98);
#100=CIRCLE('',#99,1.);
#101=EDGE_CURVE('',#93,#95,#100,.T.);
#102=ORIENTED_EDGE('',*,*,#101,.F.);
#103=CARTESIAN_POINT('',(5.021625652,0.273623126,15.963340836));
#104=DIRECTION('',(0.,1.,-0.));
#105=DIRECTION('',(0.,0.,1.));
#106=AXIS2_PLACEMENT_3D('',#103,#104,#105);
#107=CIRCLE('',#106,1.);
#108=EDGE_CURVE('',#95,#93,#107,.T.);
#109=ORIENTED_EDGE('',*,*,#108,.F.);
#110=EDGE_LOOP('',(#102,#109));
#111=FACE_BOUND('',#110,.T.);
#112=CARTESIAN_POINT('',(19.946893677,0.273623126,15.715694043));
#113=VERTEX_POINT('',#112);
#114=CARTESIAN_POINT('',(17.336473262,0.273623126,18.326114458));
#115=VERTEX_POINT('',#114);
#116=CARTESIAN_POINT('',(19.946893677,0.273623126,15.715694043));
#117=DIRECTION('',(-0.707106781,0.,0.707106781));
#118=VECTOR('',#117,3.691691955);
#119=LINE('',#116,#118);
#120=EDGE_CURVE('',#113,#115,#119,.T.);
#121=ORIENTED_EDGE('',*,*,#120,.F.);
#122=CARTESIAN_POINT('',(19.946893677,0.273623126,-10.988193121));
#123=VERTEX_POINT('',#122);
#124=CARTESIAN_POINT('',(19.946893677,0.273623126,-10.988193121));
#125=DIRECTION('',(0.,0.,1.));
#126=VECTOR('',#125,26.703887163);
#127=LINE('',#124,#126);
#128=EDGE_CURVE('',#123,#113,#127,.T.);
#129=ORIENTED_EDGE('',*,*,#128,.F.);
#130=CARTESIAN_POINT('',(-20.172125892,0.273623126,-10.988193121));
#131=VERTEX_POINT('',#130);
#132=CARTESIAN_POINT('',(-20.172125892,0.273623126,-10.988193121));
#133=DIRECTION('',(1.,0.,0.));
#134=VECTOR('',#133,40.119019569);
#135=LINE('',#132,#134);
#136=EDGE_CURVE('',#131,#123,#135,.T.);
#137=ORIENTED_EDGE('',*,*,#136,.F.);
#138=CARTESIAN_POINT('',(-20.172125892,0.273623126,15.555587681));
#139=VERTEX_POINT('',#138);
#140=CARTESIAN_POINT('',(-20.172125892,0.273623126,15.555587681));
#141=DIRECTION('',(0.,-0.,-1.));
#142=VECTOR('',#141,26.543780801);
#143=LINE('',#140,#142);
#144=EDGE_CURVE('',#139,#131,#143,.T.);
#145=ORIENTED_EDGE('',*,*,#144,.F.);
#146=CARTESIAN_POINT('',(-17.401599114,0.273623126,18.326114458));
#147=VERTEX_POINT('',#146);
#148=CARTESIAN_POINT('',(-17.401599114,0.273623126,18.326114458));
#149=DIRECTION('',(-0.707106781,-0.,-0.707106781));
#150=VECTOR('',#149,3.918116544);
#151=LINE('',#148,#150);
#152=EDGE_CURVE('',#147,#139,#151,.T.);
#153=ORIENTED_EDGE('',*,*,#152,.F.);
#154=CARTESIAN_POINT('',(-17.401599114,0.273623126,18.326114458));
#155=DIRECTION('',(1.,-0.,-0.));
#156=VECTOR('',#155,34.738072376);
#157=LINE('',#154,#156);
#158=EDGE_CURVE('',#147,#115,#157,.T.);
#159=ORIENTED_EDGE('',*,*,#158,.T.);
#160=EDGE_LOOP('',(#121,#129,#137,#145,#153,#159));
#161=FACE_BOUND('',#160,.T.);
#162=ADVANCED_FACE('',(#51,#71,#91,#111,#161),#31,.T.);
#163=CARTESIAN_POINT('',(-20.172125892,8.419816106,11.859335645));
#164=DIRECTION('',(0.,-1.,0.));
#165=DIRECTION('',(0.,0.,-1.));
#166=AXIS2_PLACEMENT_3D('',#163,#164,#165);
#167=PLANE('',#166);
#168=CARTESIAN_POINT('',(-21.727713573,8.419816106,11.859335645));
#169=VERTEX_POINT('',#168);
#170=CARTESIAN_POINT('',(-20.172125892,8.419816106,11.859335645));
#171=VERTEX_POINT('',#170);
#172=CARTESIAN_POINT('',(-21.727713573,8.419816106,11.859335645));
#173=DIRECTION('',(1.,0.,-0.));
#174=VECTOR('',#173,1.555587681);
#175=LINE('',#172,#174);
#176=EDGE_CURVE('',#169,#171,#175,.T.);
#177=ORIENTED_EDGE('',*,*,#176,.F.);
#178=CARTESIAN_POINT('',(-20.172125892,8.419816106,14.280383571));
#179=VERTEX_POINT('',#178);
#180=CARTESIAN_POINT('',(-20.172125892,8.419816106,14.280383571));
#181=CARTESIAN_POINT('',(-20.462051044,8.419816106,13.904084444));
#182=CARTESIAN_POINT('',(-20.743313714,8.419816106,13.520098033));
#183=CARTESIAN_POINT('',(-21.007310982,8.419816106,13.12078991));
#184=CARTESIAN_POINT('',(-21.139309616,8.419816106,12.921135849));
#185=CARTESIAN_POINT('',(-21.266899962,8.419816106,12.717569773));
#186=CARTESIAN_POINT('',(-21.387920397,8.419816106,12.508173408));
#187=CARTESIAN_POINT('',(-21.508940833,8.419816106,12.298777044));
#188=CARTESIAN_POINT('',(-21.623461869,8.419816106,12.083612964));
#189=CARTESIAN_POINT('',(-21.727713573,8.419816106,11.859335645));
#190=B_SPLINE_CURVE_WITH_KNOTS('',3,(#180,#181,#182,#183,#184,#185,#186,#187,#188,#189),.UNSPECIFIED.,.F.,.F.,(4,3,3,4),(0.018428908,0.019850585,0.020561423,0.021272262),.UNSPECIFIED.);
#191=EDGE_CURVE('',#179,#169,#190,.T.);
#192=ORIENTED_EDGE('',*,*,#191,.F.);
#193=CARTESIAN_POINT('',(-20.172125892,8.419816106,14.280383571));
#194=DIRECTION('',(0.,0.,-1.));
#195=VECTOR('',#194,2.421047926);
#196=LINE('',#193,#195);
#197=EDGE_CURVE('',#179,#171,#196,.T.);
#198=ORIENTED_EDGE('',*,*,#197,.T.);
#199=EDGE_LOOP('',(#177,#192,#198));
#200=FACE_BOUND('',#199,.T.);
#201=ADVANCED_FACE('',(#200),#167,.F.);
#202=CARTESIAN_POINT('',(21.66258772,8.419816106,11.859335645));
#203=DIRECTION('',(0.,-1.,0.));
#204=DIRECTION('',(0.,0.,-1.));
#205=AXIS2_PLACEMENT_3D('',#202,#203,#204);
#206=PLANE('',#205);
#207=CARTESIAN_POINT('',(19.946893677,8.419816106,15.715694043));
#208=VERTEX_POINT('',#207);
#209=CARTESIAN_POINT('',(19.946893677,8.419816106,11.859335645));
#210=VERTEX_POINT('',#209);
#211=CARTESIAN_POINT('',(19.946893677,8.419816106,15.715694043));
#212=DIRECTION('',(0.,0.,-1.));
#213=VECTOR('',#212,3.856358398);
#214=LINE('',#211,#213);
#215=EDGE_CURVE('',#208,#210,#214,.T.);
#216=ORIENTED_EDGE('',*,*,#215,.F.);
#217=CARTESIAN_POINT('',(21.728933978,8.419816106,13.933653742));
#218=VERTEX_POINT('',#217);
#219=CARTESIAN_POINT('',(19.946893677,8.419816106,15.715694043));
#220=DIRECTION('',(0.707106781,-0.,-0.707106781));
#221=VECTOR('',#220,2.520185562);
#222=LINE('',#219,#221);
#223=EDGE_CURVE('',#208,#218,#222,.T.);
#224=ORIENTED_EDGE('',*,*,#223,.T.);
#225=CARTESIAN_POINT('',(21.728933978,8.419816106,11.859335645));
#226=VERTEX_POINT('',#225);
#227=CARTESIAN_POINT('',(21.728933978,8.419816106,13.933653742));
#228=DIRECTION('',(0.,0.,-1.));
#229=VECTOR('',#228,2.074318097);
#230=LINE('',#227,#229);
#231=EDGE_CURVE('',#218,#226,#230,.T.);
#232=ORIENTED_EDGE('',*,*,#231,.T.);
#233=CARTESIAN_POINT('',(19.946893677,8.419816106,11.859335645));
#234=DIRECTION('',(1.,0.,-0.));
#235=VECTOR('',#234,1.782040301);
#236=LINE('',#233,#235);
#237=EDGE_CURVE('',#210,#226,#236,.T.);
#238=ORIENTED_EDGE('',*,*,#237,.F.);
#239=EDGE_LOOP('',(#216,#224,#232,#238));
#240=FACE_BOUND('',#239,.T.);
#241=ADVANCED_FACE('',(#240),#206,.F.);
#242=CARTESIAN_POINT('',(21.728933978,8.17981482,11.733334966));
#243=DIRECTION('',(0.,-0.,1.));
#244=DIRECTION('',(1.,0.,0.));
#245=AXIS2_PLACEMENT_3D('',#242,#243,#244);
#246=ELLIPSE('',#245,0.271066022,0.240001286);
#247=DIRECTION('',(0.,0.,1.));
#248=VECTOR('',#247,1.);
#249=SURFACE_OF_LINEAR_EXTRUSION('',#246,#248);
#250=ORIENTED_EDGE('',*,*,#231,.F.);
#251=CARTESIAN_POINT('',(22.,8.17981482,13.66258772));
#252=VERTEX_POINT('',#251);
#253=CARTESIAN_POINT('',(21.728933978,8.419816106,13.933653742));
#254=CARTESIAN_POINT('',(21.758046218,8.419816106,13.904541502));
#255=CARTESIAN_POINT('',(21.786885456,8.415778042,13.875702264));
#256=CARTESIAN_POINT('',(21.8154226,8.407271638,13.84716512));
#257=CARTESIAN_POINT('',(21.843959745,8.398765235,13.818627975));
#258=CARTESIAN_POINT('',(21.872049406,8.38576486,13.790538314));
#259=CARTESIAN_POINT('',(21.898100613,8.367342509,13.764487107));
#260=CARTESIAN_POINT('',(21.92415182,8.348920157,13.7384359));
#261=CARTESIAN_POINT('',(21.948714802,8.324805492,13.713872918));
#262=CARTESIAN_POINT('',(21.967861575,8.293167855,13.694726145));
#263=CARTESIAN_POINT('',(21.987008349,8.261530218,13.675579371));
#264=CARTESIAN_POINT('',(22.,8.221853727,13.66258772));
#265=CARTESIAN_POINT('',(22.,8.17981482,13.66258772));
#266=B_SPLINE_CURVE_WITH_KNOTS('',3,(#253,#254,#255,#256,#257,#258,#259,#260,#261,#262,#263,#264,#265),.UNSPECIFIED.,.F.,.F.,(4,3,3,3,4),(0.00005783,0.000181691,0.000305552,0.000429413,0.000553274),.UNSPECIFIED.);
#267=EDGE_CURVE('',#218,#252,#266,.T.);
#268=ORIENTED_EDGE('',*,*,#267,.T.);
#269=CARTESIAN_POINT('',(22.,8.17981482,11.733334966));
#270=VERTEX_POINT('',#269);
#271=CARTESIAN_POINT('',(22.,8.17981482,13.66258772));
#272=DIRECTION('',(0.,0.,-1.));
#273=VECTOR('',#272,1.929252754);
#274=LINE('',#271,#273);
#275=EDGE_CURVE('',#252,#270,#274,.T.);
#276=ORIENTED_EDGE('',*,*,#275,.T.);
#277=CARTESIAN_POINT('',(21.728933978,8.17981482,11.733334966));
#278=DIRECTION('',(-0.,0.464833911,-0.885397896));
#279=DIRECTION('',(0.,0.885397896,0.464833911));
#280=AXIS2_PLACEMENT_3D('',#277,#278,#279);
#281=CIRCLE('',#280,0.271066022);
#282=EDGE_CURVE('',#226,#270,#281,.T.);
#283=ORIENTED_EDGE('',*,*,#282,.F.);
#284=EDGE_LOOP('',(#250,#268,#276,#283));
#285=FACE_BOUND('',#284,.T.);
#286=ADVANCED_FACE('',(#285),#249,.T.);
#287=CARTESIAN_POINT('',(-39.911547395,8.757310015,153.644103539));
#288=DIRECTION('',(0.,1.,0.));
#289=DIRECTION('',(0.,0.,1.));
#290=AXIS2_PLACEMENT_3D('',#287,#288,#289);
#291=PLANE('',#290);
#292=CARTESIAN_POINT('',(21.817010288,8.757310015,-13.915182704));
#293=VERTEX_POINT('',#292);
#294=CARTESIAN_POINT('',(-21.819702227,8.757310015,-13.915182704));
#295=VERTEX_POINT('',#294);
#296=CARTESIAN_POINT('',(21.817010288,8.757310015,-13.915182704));
#297=DIRECTION('',(-1.,0.,0.));
#298=VECTOR('',#297,43.636712515);
#299=LINE('',#296,#298);
#300=EDGE_CURVE('',#293,#295,#299,.T.);
#301=ORIENTED_EDGE('',*,*,#300,.F.);
#302=CARTESIAN_POINT('',(21.556007337,8.757310015,-14.));
#303=VERTEX_POINT('',#302);
#304=CARTESIAN_POINT('',(21.556007337,8.757310015,-13.556007337));
#305=DIRECTION('',(-0.,-1.,-0.));
#306=DIRECTION('',(0.,-0.,1.));
#307=AXIS2_PLACEMENT_3D('',#304,#305,#306);
#308=CIRCLE('',#307,0.443992663);
#309=EDGE_CURVE('',#303,#293,#308,.T.);
#310=ORIENTED_EDGE('',*,*,#309,.F.);
#311=CARTESIAN_POINT('',(-21.56,8.757310015,-14.));
#312=VERTEX_POINT('',#311);
#313=CARTESIAN_POINT('',(-21.56,8.757310015,-14.));
#314=DIRECTION('',(1.,0.,-0.));
#315=VECTOR('',#314,43.116007337);
#316=LINE('',#313,#315);
#317=EDGE_CURVE('',#312,#303,#316,.T.);
#318=ORIENTED_EDGE('',*,*,#317,.F.);
#319=CARTESIAN_POINT('',(-21.56,8.757310015,-13.56));
#320=DIRECTION('',(-0.,-1.,-0.));
#321=DIRECTION('',(0.,-0.,1.));
#322=AXIS2_PLACEMENT_3D('',#319,#320,#321);
#323=CIRCLE('',#322,0.44);
#324=EDGE_CURVE('',#295,#312,#323,.T.);
#325=ORIENTED_EDGE('',*,*,#324,.F.);
#326=EDGE_LOOP('',(#301,#310,#318,#325));
#327=FACE_BOUND('',#326,.T.);
#328=ADVANCED_FACE('',(#327),#291,.T.);
#329=CARTESIAN_POINT('',(-39.911547395,8.757310015,153.644103539));
#330=DIRECTION('',(0.,1.,0.));
#331=DIRECTION('',(0.,0.,1.));
#332=AXIS2_PLACEMENT_3D('',#329,#330,#331);
#333=PLANE('',#332);
#334=CARTESIAN_POINT('',(-22.,8.757310015,-11.615182704));
#335=VERTEX_POINT('',#334);
#336=CARTESIAN_POINT('',(22.,8.757310015,-11.615182704));
#337=VERTEX_POINT('',#336);
#338=CARTESIAN_POINT('',(-22.,8.757310015,-11.615182704));
#339=DIRECTION('',(1.,0.,-0.));
#340=VECTOR('',#339,44.);
#341=LINE('',#338,#340);
#342=EDGE_CURVE('',#335,#337,#341,.T.);
#343=ORIENTED_EDGE('',*,*,#342,.F.);
#344=CARTESIAN_POINT('',(-22.,8.757310015,10.63071869));
#345=VERTEX_POINT('',#344);
#346=CARTESIAN_POINT('',(-22.,8.757310015,10.63071869));
#347=DIRECTION('',(0.,0.,-1.));
#348=VECTOR('',#347,22.245901394);
#349=LINE('',#346,#348);
#350=EDGE_CURVE('',#345,#335,#349,.T.);
#351=ORIENTED_EDGE('',*,*,#350,.F.);
#352=CARTESIAN_POINT('',(-21.727713573,8.757310015,11.216490125));
#353=VERTEX_POINT('',#352);
#354=CARTESIAN_POINT('',(-21.727713573,8.757310015,11.216490125));
#355=DIRECTION('',(-0.421520223,0.,-0.906819001));
#356=VECTOR('',#355,0.645962904);
#357=LINE('',#354,#356);
#358=EDGE_CURVE('',#353,#345,#357,.T.);
#359=ORIENTED_EDGE('',*,*,#358,.F.);
#360=CARTESIAN_POINT('',(-20.172125892,8.757310015,11.216490125));
#361=VERTEX_POINT('',#360);
#362=CARTESIAN_POINT('',(-21.727713573,8.757310015,11.216490125));
#363=DIRECTION('',(1.,0.,-0.));
#364=VECTOR('',#363,1.555587681);
#365=LINE('',#362,#364);
#366=EDGE_CURVE('',#353,#361,#365,.T.);
#367=ORIENTED_EDGE('',*,*,#366,.T.);
#368=CARTESIAN_POINT('',(-20.172125892,8.757310015,-10.988193121));
#369=VERTEX_POINT('',#368);
#370=CARTESIAN_POINT('',(-20.172125892,8.757310015,-10.988193121));
#371=DIRECTION('',(0.,0.,1.));
#372=VECTOR('',#371,22.204683246);
#373=LINE('',#370,#372);
#374=EDGE_CURVE('',#369,#361,#373,.T.);
#375=ORIENTED_EDGE('',*,*,#374,.F.);
#376=CARTESIAN_POINT('',(19.946893677,8.757310015,-10.988193121));
#377=VERTEX_POINT('',#376);
#378=CARTESIAN_POINT('',(-20.172125892,8.757310015,-10.988193121));
#379=DIRECTION('',(1.,0.,0.));
#380=VECTOR('',#379,40.119019569);
#381=LINE('',#378,#380);
#382=EDGE_CURVE('',#369,#377,#381,.T.);
#383=ORIENTED_EDGE('',*,*,#382,.T.);
#384=CARTESIAN_POINT('',(19.946893677,8.757310015,11.216490125));
#385=VERTEX_POINT('',#384);
#386=CARTESIAN_POINT('',(19.946893677,8.757310015,11.216490125));
#387=DIRECTION('',(0.,0.,-1.));
#388=VECTOR('',#387,22.204683246);
#389=LINE('',#386,#388);
#390=EDGE_CURVE('',#385,#377,#389,.T.);
#391=ORIENTED_EDGE('',*,*,#390,.F.);
#392=CARTESIAN_POINT('',(21.728933978,8.757310015,11.216490125));
#393=VERTEX_POINT('',#392);
#394=CARTESIAN_POINT('',(19.946893677,8.757310015,11.216490125));
#395=DIRECTION('',(1.,0.,-0.));
#396=VECTOR('',#395,1.782040301);
#397=LINE('',#394,#396);
#398=EDGE_CURVE('',#385,#393,#397,.T.);
#399=ORIENTED_EDGE('',*,*,#398,.T.);
#400=CARTESIAN_POINT('',(22.,8.757310015,10.633344155));
#401=VERTEX_POINT('',#400);
#402=CARTESIAN_POINT('',(21.728933978,8.757310015,10.633344155));
#403=DIRECTION('',(-0.,-1.,-0.));
#404=DIRECTION('',(0.,-0.,1.));
#405=AXIS2_PLACEMENT_3D('',#402,#403,#404);
#406=ELLIPSE('',#405,0.58314597,0.271066022);
#407=EDGE_CURVE('',#401,#393,#406,.T.);
#408=ORIENTED_EDGE('',*,*,#407,.F.);
#409=CARTESIAN_POINT('',(22.,8.757310015,-11.615182704));
#410=DIRECTION('',(0.,0.,1.));
#411=VECTOR('',#410,22.248526859);
#412=LINE('',#409,#411);
#413=EDGE_CURVE('',#337,#401,#412,.T.);
#414=ORIENTED_EDGE('',*,*,#413,.F.);
#415=EDGE_LOOP('',(#343,#351,#359,#367,#375,#383,#391,#399,#408,#414));
#416=FACE_BOUND('',#415,.T.);
#417=ADVANCED_FACE('',(#416),#333,.T.);
#418=CARTESIAN_POINT('',(5.021625652,89.286987995,15.963340836));
#419=DIRECTION('',(0.,-1.,0.));
#420=DIRECTION('',(0.,-0.,-1.));
#421=AXIS2_PLACEMENT_3D('',#418,#419,#420);
#422=CYLINDRICAL_SURFACE('',#421,1.);
#423=CARTESIAN_POINT('',(5.021625652,-2.726376874,14.963340836));
#424=VERTEX_POINT('',#423);
#425=CARTESIAN_POINT('',(5.021625652,-2.726376874,14.963340836));
#426=DIRECTION('',(-0.,1.,-0.));
#427=VECTOR('',#426,3.);
#428=LINE('',#425,#427);
#429=EDGE_CURVE('',#424,#93,#428,.T.);
#430=ORIENTED_EDGE('',*,*,#429,.F.);
#431=CARTESIAN_POINT('',(6.021625652,-2.726376874,15.963340836));
#432=VERTEX_POINT('',#431);
#433=CARTESIAN_POINT('',(5.021625652,-2.726376874,15.963340836));
#434=DIRECTION('',(0.,-1.,-0.));
#435=DIRECTION('',(1.,0.,0.));
#436=AXIS2_PLACEMENT_3D('',#433,#434,#435);
#437=CIRCLE('',#436,1.);
#438=EDGE_CURVE('',#424,#432,#437,.T.);
#439=ORIENTED_EDGE('',*,*,#438,.T.);
#440=CARTESIAN_POINT('',(5.021625652,-2.726376874,15.963340836));
#441=DIRECTION('',(0.,-1.,-0.));
#442=DIRECTION('',(1.,0.,0.));
#443=AXIS2_PLACEMENT_3D('',#440,#441,#442);
#444=CIRCLE('',#443,1.);
#445=EDGE_CURVE('',#432,#424,#444,.T.);
#446=ORIENTED_EDGE('',*,*,#445,.T.);
#447=ORIENTED_EDGE('',*,*,#429,.T.);
#448=ORIENTED_EDGE('',*,*,#101,.T.);
#449=ORIENTED_EDGE('',*,*,#108,.T.);
#450=EDGE_LOOP('',(#430,#439,#446,#447,#448,#449));
#451=FACE_BOUND('',#450,.T.);
#452=ADVANCED_FACE('',(#451),#422,.F.);
#453=CARTESIAN_POINT('',(-4.988290049,100.812126746,15.963340836));
#454=DIRECTION('',(0.,-1.,0.));
#455=DIRECTION('',(0.,-0.,-1.));
#456=AXIS2_PLACEMENT_3D('',#453,#454,#455);
#457=CYLINDRICAL_SURFACE('',#456,1.);
#458=CARTESIAN_POINT('',(-4.988290049,-2.726376874,14.963340836));
#459=VERTEX_POINT('',#458);
#460=CARTESIAN_POINT('',(-4.988290049,-2.726376874,14.963340836));
#461=DIRECTION('',(-0.,1.,-0.));
#462=VECTOR('',#461,3.);
#463=LINE('',#460,#462);
#464=EDGE_CURVE('',#459,#73,#463,.T.);
#465=ORIENTED_EDGE('',*,*,#464,.F.);
#466=CARTESIAN_POINT('',(-3.988290049,-2.726376874,15.963340836));
#467=VERTEX_POINT('',#466);
#468=CARTESIAN_POINT('',(-4.988290049,-2.726376874,15.963340836));
#469=DIRECTION('',(0.,-1.,-0.));
#470=DIRECTION('',(1.,0.,0.));
#471=AXIS2_PLACEMENT_3D('',#468,#469,#470);
#472=CIRCLE('',#471,1.);
#473=EDGE_CURVE('',#459,#467,#472,.T.);
#474=ORIENTED_EDGE('',*,*,#473,.T.);
#475=CARTESIAN_POINT('',(-4.988290049,-2.726376874,15.963340836));
#476=DIRECTION('',(0.,-1.,-0.));
#477=DIRECTION('',(1.,0.,0.));
#478=AXIS2_PLACEMENT_3D('',#475,#476,#477);
#479=CIRCLE('',#478,1.);
#480=EDGE_CURVE('',#467,#459,#479,.T.);
#481=ORIENTED_EDGE('',*,*,#480,.T.);
#482=ORIENTED_EDGE('',*,*,#464,.T.);
#483=ORIENTED_EDGE('',*,*,#81,.T.);
#484=ORIENTED_EDGE('',*,*,#88,.T.);
#485=EDGE_LOOP('',(#465,#474,#481,#482,#483,#484));
#486=FACE_BOUND('',#485,.T.);
#487=ADVANCED_FACE('',(#486),#457,.F.);
#488=CARTESIAN_POINT('',(22.,47.51217235,19.));
#489=DIRECTION('',(0.,0.,1.));
#490=DIRECTION('',(1.,0.,0.));
#491=AXIS2_PLACEMENT_3D('',#488,#489,#490);
#492=PLANE('',#491);
#493=CARTESIAN_POINT('',(16.66258772,-2.726376874,19.));
#494=VERTEX_POINT('',#493);
#495=CARTESIAN_POINT('',(16.66258772,-0.400262416,19.));
#496=VERTEX_POINT('',#495);
#497=CARTESIAN_POINT('',(16.66258772,-2.726376874,19.));
#498=DIRECTION('',(-0.,1.,-0.));
#499=VECTOR('',#498,2.326114458);
#500=LINE('',#497,#499);
#501=EDGE_CURVE('',#494,#496,#500,.T.);
#502=ORIENTED_EDGE('',*,*,#501,.T.);
#503=CARTESIAN_POINT('',(-16.727713573,-0.400262416,19.));
#504=VERTEX_POINT('',#503);
#505=CARTESIAN_POINT('',(16.66258772,-0.400262416,19.));
#506=DIRECTION('',(-1.,0.,0.));
#507=VECTOR('',#506,33.390301293);
#508=LINE('',#505,#507);
#509=EDGE_CURVE('',#496,#504,#508,.T.);
#510=ORIENTED_EDGE('',*,*,#509,.T.);
#511=CARTESIAN_POINT('',(-16.727713573,-2.726376874,19.));
#512=VERTEX_POINT('',#511);
#513=CARTESIAN_POINT('',(-16.727713573,-0.400262416,19.));
#514=DIRECTION('',(-0.,-1.,-0.));
#515=VECTOR('',#514,2.326114458);
#516=LINE('',#513,#515);
#517=EDGE_CURVE('',#504,#512,#516,.T.);
#518=ORIENTED_EDGE('',*,*,#517,.T.);
#519=CARTESIAN_POINT('',(16.66258772,-2.726376874,19.));
#520=DIRECTION('',(-1.,0.,0.));
#521=VECTOR('',#520,33.390301293);
#522=LINE('',#519,#521);
#523=EDGE_CURVE('',#494,#512,#522,.T.);
#524=ORIENTED_EDGE('',*,*,#523,.F.);
#525=EDGE_LOOP('',(#502,#510,#518,#524));
#526=FACE_BOUND('',#525,.T.);
#527=ADVANCED_FACE('',(#526),#492,.T.);
#528=CARTESIAN_POINT('',(22.,-0.400262416,18.326114458));
#529=DIRECTION('',(-1.,0.,0.));
#530=DIRECTION('',(0.,0.,1.));
#531=AXIS2_PLACEMENT_3D('',#528,#529,#530);
#532=CYLINDRICAL_SURFACE('',#531,0.673885542);
#533=ORIENTED_EDGE('',*,*,#509,.F.);
#534=CARTESIAN_POINT('',(17.336473262,-0.400262416,18.326114458));
#535=DIRECTION('',(-0.707106781,0.,-0.707106781));
#536=DIRECTION('',(-0.707106781,0.,0.707106781));
#537=AXIS2_PLACEMENT_3D('',#534,#535,#536);
#538=ELLIPSE('',#537,0.953018073,0.673885542);
#539=EDGE_CURVE('',#496,#115,#538,.T.);
#540=ORIENTED_EDGE('',*,*,#539,.T.);
#541=ORIENTED_EDGE('',*,*,#158,.F.);
#542=CARTESIAN_POINT('',(-17.401599114,-0.400262416,18.326114458));
#543=DIRECTION('',(-0.707106781,-0.,0.707106781));
#544=DIRECTION('',(-0.707106781,0.,-0.707106781));
#545=AXIS2_PLACEMENT_3D('',#542,#543,#544);
#546=ELLIPSE('',#545,0.953018073,0.673885542);
#547=EDGE_CURVE('',#504,#147,#546,.T.);
#548=ORIENTED_EDGE('',*,*,#547,.F.);
#549=EDGE_LOOP('',(#533,#540,#541,#548));
#550=FACE_BOUND('',#549,.T.);
#551=ADVANCED_FACE('',(#550),#532,.T.);
#552=CARTESIAN_POINT('',(-10.06767413,1.951720557,-10.988193121));
#553=DIRECTION('',(0.,-1.,-0.));
#554=DIRECTION('',(0.,0.,-1.));
#555=AXIS2_PLACEMENT_3D('',#552,#553,#554);
#556=PLANE('',#555);
#557=CARTESIAN_POINT('',(9.93232587,1.951720557,-10.988193121));
#558=VERTEX_POINT('',#557);
#559=CARTESIAN_POINT('',(9.93232587,1.951720557,-13.471687684));
#560=VERTEX_POINT('',#559);
#561=CARTESIAN_POINT('',(9.93232587,1.951720557,-10.988193121));
#562=DIRECTION('',(0.,0.,-1.));
#563=VECTOR('',#562,2.483494563);
#564=LINE('',#561,#563);
#565=EDGE_CURVE('',#558,#560,#564,.T.);
#566=ORIENTED_EDGE('',*,*,#565,.T.);
#567=CARTESIAN_POINT('',(-10.06767413,1.951720557,-13.471687684));
#568=VERTEX_POINT('',#567);
#569=CARTESIAN_POINT('',(9.93232587,1.951720557,-13.471687684));
#570=DIRECTION('',(-1.,0.,0.));
#571=VECTOR('',#570,20.);
#572=LINE('',#569,#571);
#573=EDGE_CURVE('',#560,#568,#572,.T.);
#574=ORIENTED_EDGE('',*,*,#573,.T.);
#575=CARTESIAN_POINT('',(-10.06767413,1.951720557,-10.988193121));
#576=VERTEX_POINT('',#575);
#577=CARTESIAN_POINT('',(-10.06767413,1.951720557,-10.988193121));
#578=DIRECTION('',(0.,0.,-1.));
#579=VECTOR('',#578,2.483494563);
#580=LINE('',#577,#579);
#581=EDGE_CURVE('',#576,#568,#580,.T.);
#582=ORIENTED_EDGE('',*,*,#581,.F.);
#583=CARTESIAN_POINT('',(-10.06767413,1.951720557,-10.988193121));
#584=DIRECTION('',(1.,-0.,0.));
#585=VECTOR('',#584,20.);
#586=LINE('',#583,#585);
#587=EDGE_CURVE('',#576,#558,#586,.T.);
#588=ORIENTED_EDGE('',*,*,#587,.T.);
#589=EDGE_LOOP('',(#566,#574,#582,#588));
#590=FACE_BOUND('',#589,.T.);
#591=ADVANCED_FACE('',(#590),#556,.F.);
#592=CARTESIAN_POINT('',(9.93232587,2.951720557,-10.988193121));
#593=DIRECTION('',(0.,0.,-1.));
#594=DIRECTION('',(0.,1.,0.));
#595=AXIS2_PLACEMENT_3D('',#592,#593,#594);
#596=CYLINDRICAL_SURFACE('',#595,1.);
#597=CARTESIAN_POINT('',(9.93232587,3.951720557,-10.988193121));
#598=VERTEX_POINT('',#597);
#599=CARTESIAN_POINT('',(9.93232587,3.951720557,-13.471687684));
#600=VERTEX_POINT('',#599);
#601=CARTESIAN_POINT('',(9.93232587,3.951720557,-10.988193121));
#602=DIRECTION('',(0.,0.,-1.));
#603=VECTOR('',#602,2.483494563);
#604=LINE('',#601,#603);
#605=EDGE_CURVE('',#598,#600,#604,.T.);
#606=ORIENTED_EDGE('',*,*,#605,.T.);
#607=CARTESIAN_POINT('',(9.93232587,2.951720557,-13.471687684));
#608=DIRECTION('',(0.,0.,-1.));
#609=DIRECTION('',(-1.,0.,0.));
#610=AXIS2_PLACEMENT_3D('',#607,#608,#609);
#611=CIRCLE('',#610,1.);
#612=EDGE_CURVE('',#600,#560,#611,.T.);
#613=ORIENTED_EDGE('',*,*,#612,.T.);
#614=ORIENTED_EDGE('',*,*,#565,.F.);
#615=CARTESIAN_POINT('',(9.93232587,2.951720557,-10.988193121));
#616=DIRECTION('',(-0.,-0.,1.));
#617=DIRECTION('',(-1.,0.,-0.));
#618=AXIS2_PLACEMENT_3D('',#615,#616,#617);
#619=CIRCLE('',#618,1.);
#620=EDGE_CURVE('',#558,#598,#619,.T.);
#621=ORIENTED_EDGE('',*,*,#620,.T.);
#622=EDGE_LOOP('',(#606,#613,#614,#621));
#623=FACE_BOUND('',#622,.T.);
#624=ADVANCED_FACE('',(#623),#596,.F.);
#625=CARTESIAN_POINT('',(-10.06767413,3.951720557,-10.988193121));
#626=DIRECTION('',(0.,1.,0.));
#627=DIRECTION('',(0.,-0.,1.));
#628=AXIS2_PLACEMENT_3D('',#625,#626,#627);
#629=PLANE('',#628);
#630=CARTESIAN_POINT('',(-10.06767413,3.951720557,-10.988193121));
#631=VERTEX_POINT('',#630);
#632=CARTESIAN_POINT('',(-10.06767413,3.951720557,-13.471687684));
#633=VERTEX_POINT('',#632);
#634=CARTESIAN_POINT('',(-10.06767413,3.951720557,-10.988193121));
#635=DIRECTION('',(0.,0.,-1.));
#636=VECTOR('',#635,2.483494563);
#637=LINE('',#634,#636);
#638=EDGE_CURVE('',#631,#633,#637,.T.);
#639=ORIENTED_EDGE('',*,*,#638,.T.);
#640=CARTESIAN_POINT('',(-10.06767413,3.951720557,-13.471687684));
#641=DIRECTION('',(1.,0.,-0.));
#642=VECTOR('',#641,20.);
#643=LINE('',#640,#642);
#644=EDGE_CURVE('',#633,#600,#643,.T.);
#645=ORIENTED_EDGE('',*,*,#644,.T.);
#646=ORIENTED_EDGE('',*,*,#605,.F.);
#647=CARTESIAN_POINT('',(9.93232587,3.951720557,-10.988193121));
#648=DIRECTION('',(-1.,0.,-0.));
#649=VECTOR('',#648,20.);
#650=LINE('',#647,#649);
#651=EDGE_CURVE('',#598,#631,#650,.T.);
#652=ORIENTED_EDGE('',*,*,#651,.T.);
#653=EDGE_LOOP('',(#639,#645,#646,#652));
#654=FACE_BOUND('',#653,.T.);
#655=ADVANCED_FACE('',(#654),#629,.F.);
#656=CARTESIAN_POINT('',(-10.06767413,2.951720557,-10.988193121));
#657=DIRECTION('',(0.,0.,-1.));
#658=DIRECTION('',(0.,1.,0.));
#659=AXIS2_PLACEMENT_3D('',#656,#657,#658);
#660=CYLINDRICAL_SURFACE('',#659,1.);
#661=ORIENTED_EDGE('',*,*,#581,.T.);
#662=CARTESIAN_POINT('',(-11.06767413,2.951720557,-13.471687684));
#663=VERTEX_POINT('',#662);
#664=CARTESIAN_POINT('',(-10.06767413,2.951720557,-13.471687684));
#665=DIRECTION('',(0.,0.,-1.));
#666=DIRECTION('',(-1.,0.,0.));
#667=AXIS2_PLACEMENT_3D('',#664,#665,#666);
#668=CIRCLE('',#667,1.);
#669=EDGE_CURVE('',#568,#663,#668,.T.);
#670=ORIENTED_EDGE('',*,*,#669,.T.);
#671=CARTESIAN_POINT('',(-10.06767413,2.951720557,-13.471687684));
#672=DIRECTION('',(0.,0.,-1.));
#673=DIRECTION('',(-1.,0.,0.));
#674=AXIS2_PLACEMENT_3D('',#671,#672,#673);
#675=CIRCLE('',#674,1.);
#676=EDGE_CURVE('',#663,#633,#675,.T.);
#677=ORIENTED_EDGE('',*,*,#676,.T.);
#678=ORIENTED_EDGE('',*,*,#638,.F.);
#679=CARTESIAN_POINT('',(-10.06767413,2.951720557,-10.988193121));
#680=DIRECTION('',(-0.,-0.,1.));
#681=DIRECTION('',(-1.,0.,-0.));
#682=AXIS2_PLACEMENT_3D('',#679,#680,#681);
#683=CIRCLE('',#682,1.);
#684=EDGE_CURVE('',#631,#576,#683,.T.);
#685=ORIENTED_EDGE('',*,*,#684,.T.);
#686=EDGE_LOOP('',(#661,#670,#677,#678,#685));
#687=FACE_BOUND('',#686,.T.);
#688=ADVANCED_FACE('',(#687),#660,.F.);
#689=CARTESIAN_POINT('',(-21.727713573,47.51217235,14.));
#690=DIRECTION('',(0.707106781,0.,-0.707106781));
#691=DIRECTION('',(0.,-1.,0.));
#692=AXIS2_PLACEMENT_3D('',#689,#690,#691);
#693=PLANE('',#692);
#694=ORIENTED_EDGE('',*,*,#547,.T.);
#695=ORIENTED_EDGE('',*,*,#152,.T.);
#696=CARTESIAN_POINT('',(-20.172125892,4.878224521,15.555587681));
#697=VERTEX_POINT('',#696);
#698=CARTESIAN_POINT('',(-20.172125892,4.878224521,15.555587681));
#699=DIRECTION('',(-0.,-1.,-0.));
#700=VECTOR('',#699,4.604601394);
#701=LINE('',#698,#700);
#702=EDGE_CURVE('',#697,#139,#701,.T.);
#703=ORIENTED_EDGE('',*,*,#702,.F.);
#704=CARTESIAN_POINT('',(-22.,4.878224521,13.727713573));
#705=VERTEX_POINT('',#704);
#706=CARTESIAN_POINT('',(-22.,4.878224521,13.727713573));
#707=DIRECTION('',(0.707106781,-0.,0.707106781));
#708=VECTOR('',#707,2.585004354);
#709=LINE('',#706,#708);
#710=EDGE_CURVE('',#705,#697,#709,.T.);
#711=ORIENTED_EDGE('',*,*,#710,.F.);
#712=CARTESIAN_POINT('',(-22.,-2.726376874,13.727713573));
#713=VERTEX_POINT('',#712);
#714=CARTESIAN_POINT('',(-22.,-2.726376874,13.727713573));
#715=DIRECTION('',(0.,1.,0.));
#716=VECTOR('',#715,7.604601394);
#717=LINE('',#714,#716);
#718=EDGE_CURVE('',#713,#705,#717,.T.);
#719=ORIENTED_EDGE('',*,*,#718,.F.);
#720=CARTESIAN_POINT('',(-16.727713573,-2.726376874,19.));
#721=DIRECTION('',(-0.707106781,-0.,-0.707106781));
#722=VECTOR('',#721,7.45613897);
#723=LINE('',#720,#722);
#724=EDGE_CURVE('',#512,#713,#723,.T.);
#725=ORIENTED_EDGE('',*,*,#724,.F.);
#726=ORIENTED_EDGE('',*,*,#517,.F.);
#727=EDGE_LOOP('',(#694,#695,#703,#711,#719,#725,#726));
#728=FACE_BOUND('',#727,.T.);
#729=ADVANCED_FACE('',(#728),#693,.F.);
#730=CARTESIAN_POINT('',(-68.274219035,2.973478273,10.446135793));
#731=DIRECTION('',(1.,0.,0.));
#732=DIRECTION('',(0.,0.,-1.));
#733=AXIS2_PLACEMENT_3D('',#730,#731,#732);
#734=CYLINDRICAL_SURFACE('',#733,1.5);
#735=CARTESIAN_POINT('',(-20.172125892,2.973478273,8.946135793));
#736=VERTEX_POINT('',#735);
#737=CARTESIAN_POINT('',(-22.,2.973478273,8.946135793));
#738=VERTEX_POINT('',#737);
#739=CARTESIAN_POINT('',(-20.172125892,2.973478273,8.946135793));
#740=DIRECTION('',(-1.,-0.,0.));
#741=VECTOR('',#740,1.827874108);
#742=LINE('',#739,#741);
#743=EDGE_CURVE('',#736,#738,#742,.T.);
#744=ORIENTED_EDGE('',*,*,#743,.F.);
#745=CARTESIAN_POINT('',(-20.172125892,2.973478273,10.446135793));
#746=DIRECTION('',(1.,0.,0.));
#747=DIRECTION('',(0.,0.,-1.));
#748=AXIS2_PLACEMENT_3D('',#745,#746,#747);
#749=CIRCLE('',#748,1.5);
#750=EDGE_CURVE('',#736,#736,#749,.T.);
#751=ORIENTED_EDGE('',*,*,#750,.T.);
#752=ORIENTED_EDGE('',*,*,#743,.T.);
#753=CARTESIAN_POINT('',(-22.,2.973478273,11.946135793));
#754=VERTEX_POINT('',#753);
#755=CARTESIAN_POINT('',(-22.,2.973478273,10.446135793));
#756=DIRECTION('',(-1.,0.,0.));
#757=DIRECTION('',(0.,0.,1.));
#758=AXIS2_PLACEMENT_3D('',#755,#756,#757);
#759=CIRCLE('',#758,1.5);
#760=EDGE_CURVE('',#738,#754,#759,.T.);
#761=ORIENTED_EDGE('',*,*,#760,.T.);
#762=CARTESIAN_POINT('',(-22.,2.973478273,10.446135793));
#763=DIRECTION('',(-1.,0.,0.));
#764=DIRECTION('',(0.,0.,1.));
#765=AXIS2_PLACEMENT_3D('',#762,#763,#764);
#766=CIRCLE('',#765,1.5);
#767=EDGE_CURVE('',#754,#738,#766,.T.);
#768=ORIENTED_EDGE('',*,*,#767,.T.);
#769=EDGE_LOOP('',(#744,#751,#752,#761,#768));
#770=FACE_BOUND('',#769,.T.);
#771=ADVANCED_FACE('',(#770),#734,.F.);
#772=CARTESIAN_POINT('',(-10.06767413,2.951720557,-13.471687684));
#773=DIRECTION('',(0.,0.,-1.));
#774=DIRECTION('',(-1.,0.,0.));
#775=AXIS2_PLACEMENT_3D('',#772,#773,#774);
#776=TOROIDAL_SURFACE('',#775,1.528312316,0.528312316);
#777=CARTESIAN_POINT('',(-11.595986446,2.951720557,-14.));
#778=VERTEX_POINT('',#777);
#779=CARTESIAN_POINT('',(-11.595986446,2.951720557,-13.471687684));
#780=DIRECTION('',(-0.,1.,-0.));
#781=DIRECTION('',(-1.,0.,0.));
#782=AXIS2_PLACEMENT_3D('',#779,#780,#781);
#783=CIRCLE('',#782,0.528312316);
#784=EDGE_CURVE('',#663,#778,#783,.T.);
#785=ORIENTED_EDGE('',*,*,#784,.T.);
#786=CARTESIAN_POINT('',(-10.06767413,4.480032874,-14.));
#787=VERTEX_POINT('',#786);
#788=CARTESIAN_POINT('',(-10.06767413,2.951720557,-14.));
#789=DIRECTION('',(-0.,-0.,1.));
#790=DIRECTION('',(-1.,0.,0.));
#791=AXIS2_PLACEMENT_3D('',#788,#789,#790);
#792=CIRCLE('',#791,1.528312316);
#793=EDGE_CURVE('',#787,#778,#792,.T.);
#794=ORIENTED_EDGE('',*,*,#793,.F.);
#795=CARTESIAN_POINT('',(-10.06767413,4.480032874,-13.471687684));
#796=DIRECTION('',(1.,0.,0.));
#797=DIRECTION('',(0.,0.,-1.));
#798=AXIS2_PLACEMENT_3D('',#795,#796,#797);
#799=CIRCLE('',#798,0.528312316);
#800=EDGE_CURVE('',#633,#787,#799,.T.);
#801=ORIENTED_EDGE('',*,*,#800,.F.);
#802=ORIENTED_EDGE('',*,*,#676,.F.);
#803=EDGE_LOOP('',(#785,#794,#801,#802));
#804=FACE_BOUND('',#803,.T.);
#805=ADVANCED_FACE('',(#804),#776,.T.);
#806=CARTESIAN_POINT('',(-10.06767413,4.480032874,-13.471687684));
#807=DIRECTION('',(-1.,0.,0.));
#808=DIRECTION('',(0.,0.,1.));
#809=AXIS2_PLACEMENT_3D('',#806,#807,#808);
#810=CYLINDRICAL_SURFACE('',#809,0.528312316);
#811=ORIENTED_EDGE('',*,*,#800,.T.);
#812=CARTESIAN_POINT('',(9.93232587,4.480032874,-14.));
#813=VERTEX_POINT('',#812);
#814=CARTESIAN_POINT('',(9.93232587,4.480032874,-14.));
#815=DIRECTION('',(-1.,-0.,0.));
#816=VECTOR('',#815,20.);
#817=LINE('',#814,#816);
#818=EDGE_CURVE('',#813,#787,#817,.T.);
#819=ORIENTED_EDGE('',*,*,#818,.F.);
#820=CARTESIAN_POINT('',(9.93232587,4.480032874,-13.471687684));
#821=DIRECTION('',(1.,0.,0.));
#822=DIRECTION('',(0.,0.,-1.));
#823=AXIS2_PLACEMENT_3D('',#820,#821,#822);
#824=CIRCLE('',#823,0.528312316);
#825=EDGE_CURVE('',#600,#813,#824,.T.);
#826=ORIENTED_EDGE('',*,*,#825,.F.);
#827=ORIENTED_EDGE('',*,*,#644,.F.);
#828=EDGE_LOOP('',(#811,#819,#826,#827));
#829=FACE_BOUND('',#828,.T.);
#830=ADVANCED_FACE('',(#829),#810,.T.);
#831=CARTESIAN_POINT('',(9.93232587,2.951720557,-13.471687684));
#832=DIRECTION('',(0.,0.,-1.));
#833=DIRECTION('',(-1.,0.,0.));
#834=AXIS2_PLACEMENT_3D('',#831,#832,#833);
#835=TOROIDAL_SURFACE('',#834,1.528312316,0.528312316);
#836=ORIENTED_EDGE('',*,*,#825,.T.);
#837=CARTESIAN_POINT('',(9.93232587,1.423408241,-14.));
#838=VERTEX_POINT('',#837);
#839=CARTESIAN_POINT('',(9.93232587,2.951720557,-14.));
#840=DIRECTION('',(-0.,-0.,1.));
#841=DIRECTION('',(-1.,0.,0.));
#842=AXIS2_PLACEMENT_3D('',#839,#840,#841);
#843=CIRCLE('',#842,1.528312316);
#844=EDGE_CURVE('',#838,#813,#843,.T.);
#845=ORIENTED_EDGE('',*,*,#844,.F.);
#846=CARTESIAN_POINT('',(9.93232587,1.423408241,-13.471687684));
#847=DIRECTION('',(1.,0.,0.));
#848=DIRECTION('',(0.,0.,-1.));
#849=AXIS2_PLACEMENT_3D('',#846,#847,#848);
#850=CIRCLE('',#849,0.528312316);
#851=EDGE_CURVE('',#838,#560,#850,.T.);
#852=ORIENTED_EDGE('',*,*,#851,.T.);
#853=ORIENTED_EDGE('',*,*,#612,.F.);
#854=EDGE_LOOP('',(#836,#845,#852,#853));
#855=FACE_BOUND('',#854,.T.);
#856=ADVANCED_FACE('',(#855),#835,.T.);
#857=CARTESIAN_POINT('',(-10.06767413,1.423408241,-13.471687684));
#858=DIRECTION('',(1.,0.,0.));
#859=DIRECTION('',(0.,0.,-1.));
#860=AXIS2_PLACEMENT_3D('',#857,#858,#859);
#861=CYLINDRICAL_SURFACE('',#860,0.528312316);
#862=CARTESIAN_POINT('',(-10.06767413,1.423408241,-14.));
#863=VERTEX_POINT('',#862);
#864=CARTESIAN_POINT('',(-10.06767413,1.423408241,-13.471687684));
#865=DIRECTION('',(1.,0.,0.));
#866=DIRECTION('',(0.,0.,-1.));
#867=AXIS2_PLACEMENT_3D('',#864,#865,#866);
#868=CIRCLE('',#867,0.528312316);
#869=EDGE_CURVE('',#863,#568,#868,.T.);
#870=ORIENTED_EDGE('',*,*,#869,.T.);
#871=ORIENTED_EDGE('',*,*,#573,.F.);
#872=ORIENTED_EDGE('',*,*,#851,.F.);
#873=CARTESIAN_POINT('',(-10.06767413,1.423408241,-14.));
#874=DIRECTION('',(1.,-0.,-0.));
#875=VECTOR('',#874,20.);
#876=LINE('',#873,#875);
#877=EDGE_CURVE('',#863,#838,#876,.T.);
#878=ORIENTED_EDGE('',*,*,#877,.F.);
#879=EDGE_LOOP('',(#870,#871,#872,#878));
#880=FACE_BOUND('',#879,.T.);
#881=ADVANCED_FACE('',(#880),#861,.T.);
#882=CARTESIAN_POINT('',(22.,47.51217235,13.66258772));
#883=DIRECTION('',(-0.707106781,0.,-0.707106781));
#884=DIRECTION('',(0.,-1.,0.));
#885=AXIS2_PLACEMENT_3D('',#882,#883,#884);
#886=PLANE('',#885);
#887=ORIENTED_EDGE('',*,*,#223,.F.);
#888=CARTESIAN_POINT('',(19.946893677,8.419816106,15.715694043));
#889=DIRECTION('',(-0.,-1.,-0.));
#890=VECTOR('',#889,8.14619298);
#891=LINE('',#888,#890);
#892=EDGE_CURVE('',#208,#113,#891,.T.);
#893=ORIENTED_EDGE('',*,*,#892,.T.);
#894=ORIENTED_EDGE('',*,*,#120,.T.);
#895=ORIENTED_EDGE('',*,*,#539,.F.);
#896=ORIENTED_EDGE('',*,*,#501,.F.);
#897=CARTESIAN_POINT('',(22.,-2.726376874,13.66258772));
#898=VERTEX_POINT('',#897);
#899=CARTESIAN_POINT('',(22.,-2.726376874,13.66258772));
#900=DIRECTION('',(-0.707106781,-0.,0.707106781));
#901=VECTOR('',#900,7.548240834);
#902=LINE('',#899,#901);
#903=EDGE_CURVE('',#898,#494,#902,.T.);
#904=ORIENTED_EDGE('',*,*,#903,.F.);
#905=CARTESIAN_POINT('',(22.,8.17981482,13.66258772));
#906=DIRECTION('',(0.,-1.,0.));
#907=VECTOR('',#906,10.906191694);
#908=LINE('',#905,#907);
#909=EDGE_CURVE('',#252,#898,#908,.T.);
#910=ORIENTED_EDGE('',*,*,#909,.F.);
#911=ORIENTED_EDGE('',*,*,#267,.F.);
#912=EDGE_LOOP('',(#887,#893,#894,#895,#896,#904,#910,#911));
#913=FACE_BOUND('',#912,.T.);
#914=ADVANCED_FACE('',(#913),#886,.F.);
#915=CARTESIAN_POINT('',(-68.274219035,2.973478273,10.446135793));
#916=DIRECTION('',(1.,0.,0.));
#917=DIRECTION('',(0.,0.,-1.));
#918=AXIS2_PLACEMENT_3D('',#915,#916,#917);
#919=CYLINDRICAL_SURFACE('',#918,1.5);
#920=CARTESIAN_POINT('',(22.,2.973478273,8.946135793));
#921=VERTEX_POINT('',#920);
#922=CARTESIAN_POINT('',(19.946893677,2.973478273,8.946135793));
#923=VERTEX_POINT('',#922);
#924=CARTESIAN_POINT('',(22.,2.973478273,8.946135793));
#925=DIRECTION('',(-1.,-0.,0.));
#926=VECTOR('',#925,2.053106323);
#927=LINE('',#924,#926);
#928=EDGE_CURVE('',#921,#923,#927,.T.);
#929=ORIENTED_EDGE('',*,*,#928,.F.);
#930=CARTESIAN_POINT('',(22.,2.973478273,10.446135793));
#931=DIRECTION('',(1.,0.,0.));
#932=DIRECTION('',(0.,0.,-1.));
#933=AXIS2_PLACEMENT_3D('',#930,#931,#932);
#934=CIRCLE('',#933,1.5);
#935=EDGE_CURVE('',#921,#921,#934,.T.);
#936=ORIENTED_EDGE('',*,*,#935,.T.);
#937=ORIENTED_EDGE('',*,*,#928,.T.);
#938=CARTESIAN_POINT('',(19.946893677,2.973478273,11.946135793));
#939=VERTEX_POINT('',#938);
#940=CARTESIAN_POINT('',(19.946893677,2.973478273,10.446135793));
#941=DIRECTION('',(-1.,0.,0.));
#942=DIRECTION('',(0.,0.,1.));
#943=AXIS2_PLACEMENT_3D('',#940,#941,#942);
#944=CIRCLE('',#943,1.5);
#945=EDGE_CURVE('',#923,#939,#944,.T.);
#946=ORIENTED_EDGE('',*,*,#945,.T.);
#947=CARTESIAN_POINT('',(19.946893677,2.973478273,10.446135793));
#948=DIRECTION('',(-1.,0.,0.));
#949=DIRECTION('',(0.,0.,1.));
#950=AXIS2_PLACEMENT_3D('',#947,#948,#949);
#951=CIRCLE('',#950,1.5);
#952=EDGE_CURVE('',#939,#923,#951,.T.);
#953=ORIENTED_EDGE('',*,*,#952,.T.);
#954=EDGE_LOOP('',(#929,#936,#937,#946,#953));
#955=FACE_BOUND('',#954,.T.);
#956=ADVANCED_FACE('',(#955),#919,.F.);
#957=CARTESIAN_POINT('',(0.,-2.726376874,0.));
#958=DIRECTION('',(0.,-1.,-0.));
#959=DIRECTION('',(1.,0.,0.));
#960=AXIS2_PLACEMENT_3D('',#957,#958,#959);
#961=PLANE('',#960);
#962=CARTESIAN_POINT('',(5.020570556,-2.726376874,-8.036659164));
#963=VERTEX_POINT('',#962);
#964=CARTESIAN_POINT('',(6.020570556,-2.726376874,-7.036659164));
#965=VERTEX_POINT('',#964);
#966=CARTESIAN_POINT('',(5.020570556,-2.726376874,-7.036659164));
#967=DIRECTION('',(0.,-1.,-0.));
#968=DIRECTION('',(1.,0.,0.));
#969=AXIS2_PLACEMENT_3D('',#966,#967,#968);
#970=CIRCLE('',#969,1.);
#971=EDGE_CURVE('',#963,#965,#970,.T.);
#972=ORIENTED_EDGE('',*,*,#971,.F.);
#973=CARTESIAN_POINT('',(5.020570556,-2.726376874,-7.036659164));
#974=DIRECTION('',(0.,-1.,-0.));
#975=DIRECTION('',(1.,0.,0.));
#976=AXIS2_PLACEMENT_3D('',#973,#974,#975);
#977=CIRCLE('',#976,1.);
#978=EDGE_CURVE('',#965,#963,#977,.T.);
#979=ORIENTED_EDGE('',*,*,#978,.F.);
#980=EDGE_LOOP('',(#972,#979));
#981=FACE_BOUND('',#980,.T.);
#982=CARTESIAN_POINT('',(-3.989345145,-2.726376874,-7.036659164));
#983=VERTEX_POINT('',#982);
#984=CARTESIAN_POINT('',(-4.989345145,-2.726376874,-7.036659164));
#985=DIRECTION('',(0.,-1.,-0.));
#986=DIRECTION('',(1.,0.,0.));
#987=AXIS2_PLACEMENT_3D('',#984,#985,#986);
#988=CIRCLE('',#987,1.);
#989=EDGE_CURVE('',#983,#983,#988,.T.);
#990=ORIENTED_EDGE('',*,*,#989,.F.);
#991=EDGE_LOOP('',(#990));
#992=FACE_BOUND('',#991,.T.);
#993=ORIENTED_EDGE('',*,*,#473,.F.);
#994=ORIENTED_EDGE('',*,*,#480,.F.);
#995=EDGE_LOOP('',(#993,#994));
#996=FACE_BOUND('',#995,.T.);
#997=ORIENTED_EDGE('',*,*,#438,.F.);
#998=ORIENTED_EDGE('',*,*,#445,.F.);
#999=EDGE_LOOP('',(#997,#998));
#1000=FACE_BOUND('',#999,.T.);
#1001=ORIENTED_EDGE('',*,*,#523,.T.);
#1002=ORIENTED_EDGE('',*,*,#724,.T.);
#1003=CARTESIAN_POINT('',(-22.,-2.726376874,-13.56));
#1004=VERTEX_POINT('',#1003);
#1005=CARTESIAN_POINT('',(-22.,-2.726376874,13.727713573));
#1006=DIRECTION('',(0.,0.,-1.));
#1007=VECTOR('',#1006,27.287713573);
#1008=LINE('',#1005,#1007);
#1009=EDGE_CURVE('',#713,#1004,#1008,.T.);
#1010=ORIENTED_EDGE('',*,*,#1009,.T.);
#1011=CARTESIAN_POINT('',(-21.56,-2.726376874,-14.));
#1012=VERTEX_POINT('',#1011);
#1013=CARTESIAN_POINT('',(-21.56,-2.726376874,-13.56));
#1014=DIRECTION('',(0.,-1.,-0.));
#1015=DIRECTION('',(1.,0.,0.));
#1016=AXIS2_PLACEMENT_3D('',#1013,#1014,#1015);
#1017=CIRCLE('',#1016,0.44);
#1018=EDGE_CURVE('',#1004,#1012,#1017,.T.);
#1019=ORIENTED_EDGE('',*,*,#1018,.T.);
#1020=CARTESIAN_POINT('',(21.556007337,-2.726376874,-14.));
#1021=VERTEX_POINT('',#1020);
#1022=CARTESIAN_POINT('',(-21.56,-2.726376874,-14.));
#1023=DIRECTION('',(1.,0.,-0.));
#1024=VECTOR('',#1023,43.116007337);
#1025=LINE('',#1022,#1024);
#1026=EDGE_CURVE('',#1012,#1021,#1025,.T.);
#1027=ORIENTED_EDGE('',*,*,#1026,.T.);
#1028=CARTESIAN_POINT('',(22.,-2.726376874,-13.556007337));
#1029=VERTEX_POINT('',#1028);
#1030=CARTESIAN_POINT('',(21.556007337,-2.726376874,-13.556007337));
#1031=DIRECTION('',(0.,-1.,-0.));
#1032=DIRECTION('',(1.,0.,0.));
#1033=AXIS2_PLACEMENT_3D('',#1030,#1031,#1032);
#1034=CIRCLE('',#1033,0.443992663);
#1035=EDGE_CURVE('',#1021,#1029,#1034,.T.);
#1036=ORIENTED_EDGE('',*,*,#1035,.T.);
#1037=CARTESIAN_POINT('',(22.,-2.726376874,-13.556007337));
#1038=DIRECTION('',(0.,0.,1.));
#1039=VECTOR('',#1038,27.218595056);
#1040=LINE('',#1037,#1039);
#1041=EDGE_CURVE('',#1029,#898,#1040,.T.);
#1042=ORIENTED_EDGE('',*,*,#1041,.T.);
#1043=ORIENTED_EDGE('',*,*,#903,.T.);
#1044=EDGE_LOOP('',(#1001,#1002,#1010,#1019,#1027,#1036,#1042,#1043));
#1045=FACE_BOUND('',#1044,.T.);
#1046=ADVANCED_FACE('',(#981,#992,#996,#1000,#1045),#961,.T.);
#1047=CARTESIAN_POINT('',(-21.727713573,4.878224521,10.));
#1048=DIRECTION('',(1.,0.,0.));
#1049=DIRECTION('',(0.,0.,-1.));
#1050=AXIS2_PLACEMENT_3D('',#1047,#1048,#1049);
#1051=CONICAL_SURFACE('',#1050,4.,45.);
#1052=CARTESIAN_POINT('',(-20.172125892,4.878224521,10.));
#1053=DIRECTION('',(1.,0.,0.));
#1054=DIRECTION('',(0.,0.,-1.));
#1055=AXIS2_PLACEMENT_3D('',#1052,#1053,#1054);
#1056=CIRCLE('',#1055,5.555587681);
#1057=EDGE_CURVE('',#179,#697,#1056,.T.);
#1058=ORIENTED_EDGE('',*,*,#1057,.F.);
#1059=ORIENTED_EDGE('',*,*,#191,.T.);
#1060=CARTESIAN_POINT('',(-22.,8.178734276,11.73276768));
#1061=VERTEX_POINT('',#1060);
#1062=CARTESIAN_POINT('',(-22.,8.178734276,11.73276768));
#1063=DIRECTION('',(0.707106781,0.626070857,0.328687211));
#1064=VECTOR('',#1063,0.385071158);
#1065=LINE('',#1062,#1064);
#1066=EDGE_CURVE('',#1061,#169,#1065,.T.);
#1067=ORIENTED_EDGE('',*,*,#1066,.F.);
#1068=CARTESIAN_POINT('',(-22.,4.878224521,10.));
#1069=DIRECTION('',(-1.,0.,0.));
#1070=DIRECTION('',(0.,0.,1.));
#1071=AXIS2_PLACEMENT_3D('',#1068,#1069,#1070);
#1072=CIRCLE('',#1071,3.727713573);
#1073=EDGE_CURVE('',#705,#1061,#1072,.T.);
#1074=ORIENTED_EDGE('',*,*,#1073,.F.);
#1075=ORIENTED_EDGE('',*,*,#710,.T.);
#1076=EDGE_LOOP('',(#1058,#1059,#1067,#1074,#1075));
#1077=FACE_BOUND('',#1076,.T.);
#1078=ADVANCED_FACE('',(#1077),#1051,.T.);
#1079=CARTESIAN_POINT('',(0.,0.273623126,-10.988193121));
#1080=DIRECTION('',(0.,0.,-1.));
#1081=DIRECTION('',(0.,1.,0.));
#1082=AXIS2_PLACEMENT_3D('',#1079,#1080,#1081);
#1083=PLANE('',#1082);
#1084=ORIENTED_EDGE('',*,*,#684,.F.);
#1085=ORIENTED_EDGE('',*,*,#651,.F.);
#1086=ORIENTED_EDGE('',*,*,#620,.F.);
#1087=ORIENTED_EDGE('',*,*,#587,.F.);
#1088=EDGE_LOOP('',(#1084,#1085,#1086,#1087));
#1089=FACE_BOUND('',#1088,.T.);
#1090=ORIENTED_EDGE('',*,*,#382,.F.);
#1091=CARTESIAN_POINT('',(-20.172125892,8.757310015,-10.988193121));
#1092=DIRECTION('',(0.,-1.,0.));
#1093=VECTOR('',#1092,8.483686889);
#1094=LINE('',#1091,#1093);
#1095=EDGE_CURVE('',#369,#131,#1094,.T.);
#1096=ORIENTED_EDGE('',*,*,#1095,.T.);
#1097=ORIENTED_EDGE('',*,*,#136,.T.);
#1098=CARTESIAN_POINT('',(19.946893677,8.757310015,-10.988193121));
#1099=DIRECTION('',(0.,-1.,0.));
#1100=VECTOR('',#1099,8.483686889);
#1101=LINE('',#1098,#1100);
#1102=EDGE_CURVE('',#377,#123,#1101,.T.);
#1103=ORIENTED_EDGE('',*,*,#1102,.F.);
#1104=EDGE_LOOP('',(#1090,#1096,#1097,#1103));
#1105=FACE_BOUND('',#1104,.T.);
#1106=ADVANCED_FACE('',(#1089,#1105),#1083,.F.);
#1107=CARTESIAN_POINT('',(21.728933978,6.378855553,15.163733455));
#1108=DIRECTION('',(0.,-0.464833911,0.885397896));
#1109=DIRECTION('',(0.,-0.885397896,-0.464833911));
#1110=AXIS2_PLACEMENT_3D('',#1107,#1108,#1109);
#1111=CYLINDRICAL_SURFACE('',#1110,0.271066022);
#1112=CARTESIAN_POINT('',(22.,8.757310015,10.633344155));
#1113=DIRECTION('',(-0.,-0.464833911,0.885397896));
#1114=VECTOR('',#1113,1.2423689);
#1115=LINE('',#1112,#1114);
#1116=EDGE_CURVE('',#401,#270,#1115,.T.);
#1117=ORIENTED_EDGE('',*,*,#1116,.F.);
#1118=ORIENTED_EDGE('',*,*,#407,.T.);
#1119=CARTESIAN_POINT('',(21.728933978,8.419816106,11.859335645));
#1120=DIRECTION('',(0.,0.464833911,-0.885397896));
#1121=VECTOR('',#1120,0.726052684);
#1122=LINE('',#1119,#1121);
#1123=EDGE_CURVE('',#226,#393,#1122,.T.);
#1124=ORIENTED_EDGE('',*,*,#1123,.F.);
#1125=ORIENTED_EDGE('',*,*,#282,.T.);
#1126=EDGE_LOOP('',(#1117,#1118,#1124,#1125));
#1127=FACE_BOUND('',#1126,.T.);
#1128=ADVANCED_FACE('',(#1127),#1111,.T.);
#1129=CARTESIAN_POINT('',(-101.242508416,6.618856839,15.289734135));
#1130=DIRECTION('',(0.,-0.885397896,-0.464833911));
#1131=DIRECTION('',(0.,0.464833911,-0.885397896));
#1132=AXIS2_PLACEMENT_3D('',#1129,#1130,#1131);
#1133=PLANE('',#1132);
#1134=ORIENTED_EDGE('',*,*,#398,.F.);
#1135=CARTESIAN_POINT('',(19.946893677,8.757310015,11.216490125));
#1136=DIRECTION('',(0.,-0.464833911,0.885397896));
#1137=VECTOR('',#1136,0.726052684);
#1138=LINE('',#1135,#1137);
#1139=EDGE_CURVE('',#385,#210,#1138,.T.);
#1140=ORIENTED_EDGE('',*,*,#1139,.T.);
#1141=ORIENTED_EDGE('',*,*,#237,.T.);
#1142=ORIENTED_EDGE('',*,*,#1123,.T.);
#1143=EDGE_LOOP('',(#1134,#1140,#1141,#1142));
#1144=FACE_BOUND('',#1143,.T.);
#1145=ADVANCED_FACE('',(#1144),#1133,.F.);
#1146=CARTESIAN_POINT('',(21.556007337,47.51217235,-13.556007337));
#1147=DIRECTION('',(0.,-1.,0.));
#1148=DIRECTION('',(0.,0.,-1.));
#1149=AXIS2_PLACEMENT_3D('',#1146,#1147,#1148);
#1150=CYLINDRICAL_SURFACE('',#1149,0.443992663);
#1151=CARTESIAN_POINT('',(22.,8.747562571,-13.556007337));
#1152=VERTEX_POINT('',#1151);
#1153=CARTESIAN_POINT('',(21.817010288,8.747562571,-13.915182704));
#1154=VERTEX_POINT('',#1153);
#1155=CARTESIAN_POINT('',(21.556007337,8.747562571,-13.556007337));
#1156=DIRECTION('',(-0.,1.,-0.));
#1157=DIRECTION('',(0.,0.,-1.));
#1158=AXIS2_PLACEMENT_3D('',#1155,#1156,#1157);
#1159=CIRCLE('',#1158,0.443992663);
#1160=EDGE_CURVE('',#1152,#1154,#1159,.T.);
#1161=ORIENTED_EDGE('',*,*,#1160,.F.);
#1162=CARTESIAN_POINT('',(22.,-2.726376874,-13.556007337));
#1163=DIRECTION('',(-0.,1.,-0.));
#1164=VECTOR('',#1163,11.473939445);
#1165=LINE('',#1162,#1164);
#1166=EDGE_CURVE('',#1029,#1152,#1165,.T.);
#1167=ORIENTED_EDGE('',*,*,#1166,.F.);
#1168=ORIENTED_EDGE('',*,*,#1035,.F.);
#1169=CARTESIAN_POINT('',(21.556007337,8.757310015,-14.));
#1170=DIRECTION('',(0.,-1.,0.));
#1171=VECTOR('',#1170,11.483686889);
#1172=LINE('',#1169,#1171);
#1173=EDGE_CURVE('',#303,#1021,#1172,.T.);
#1174=ORIENTED_EDGE('',*,*,#1173,.F.);
#1175=ORIENTED_EDGE('',*,*,#309,.T.);
#1176=CARTESIAN_POINT('',(21.817010288,8.747562571,-13.915182704));
#1177=DIRECTION('',(-0.,1.,-0.));
#1178=VECTOR('',#1177,0.009747444);
#1179=LINE('',#1176,#1178);
#1180=EDGE_CURVE('',#1154,#293,#1179,.T.);
#1181=ORIENTED_EDGE('',*,*,#1180,.F.);
#1182=EDGE_LOOP('',(#1161,#1167,#1168,#1174,#1175,#1181));
#1183=FACE_BOUND('',#1182,.T.);
#1184=ADVANCED_FACE('',(#1183),#1150,.T.);
#1185=CARTESIAN_POINT('',(22.,47.51217235,-14.));
#1186=DIRECTION('',(1.,0.,0.));
#1187=DIRECTION('',(0.,0.,-1.));
#1188=AXIS2_PLACEMENT_3D('',#1185,#1186,#1187);
#1189=PLANE('',#1188);
#1190=CARTESIAN_POINT('',(22.,8.747562571,-11.615182704));
#1191=VERTEX_POINT('',#1190);
#1192=CARTESIAN_POINT('',(22.,8.747562571,-11.615182704));
#1193=DIRECTION('',(0.,0.,-1.));
#1194=VECTOR('',#1193,1.940824633);
#1195=LINE('',#1192,#1194);
#1196=EDGE_CURVE('',#1191,#1152,#1195,.T.);
#1197=ORIENTED_EDGE('',*,*,#1196,.F.);
#1198=CARTESIAN_POINT('',(22.,8.757310015,-11.615182704));
#1199=DIRECTION('',(0.,-1.,0.));
#1200=VECTOR('',#1199,0.009747444);
#1201=LINE('',#1198,#1200);
#1202=EDGE_CURVE('',#337,#1191,#1201,.T.);
#1203=ORIENTED_EDGE('',*,*,#1202,.F.);
#1204=ORIENTED_EDGE('',*,*,#413,.T.);
#1205=ORIENTED_EDGE('',*,*,#1116,.T.);
#1206=ORIENTED_EDGE('',*,*,#275,.F.);
#1207=ORIENTED_EDGE('',*,*,#909,.T.);
#1208=ORIENTED_EDGE('',*,*,#1041,.F.);
#1209=ORIENTED_EDGE('',*,*,#1166,.T.);
#1210=EDGE_LOOP('',(#1197,#1203,#1204,#1205,#1206,#1207,#1208,#1209));
#1211=FACE_BOUND('',#1210,.T.);
#1212=ORIENTED_EDGE('',*,*,#935,.F.);
#1213=EDGE_LOOP('',(#1212));
#1214=FACE_BOUND('',#1213,.T.);
#1215=ADVANCED_FACE('',(#1211,#1214),#1189,.T.);
#1216=CARTESIAN_POINT('',(-21.56,47.51217235,-13.56));
#1217=DIRECTION('',(0.,-1.,0.));
#1218=DIRECTION('',(0.,0.,-1.));
#1219=AXIS2_PLACEMENT_3D('',#1216,#1217,#1218);
#1220=CYLINDRICAL_SURFACE('',#1219,0.44);
#1221=CARTESIAN_POINT('',(-21.819702227,8.747562571,-13.915182704));
#1222=VERTEX_POINT('',#1221);
#1223=CARTESIAN_POINT('',(-22.,8.747562571,-13.56));
#1224=VERTEX_POINT('',#1223);
#1225=CARTESIAN_POINT('',(-21.56,8.747562571,-13.56));
#1226=DIRECTION('',(-0.,1.,-0.));
#1227=DIRECTION('',(0.,0.,-1.));
#1228=AXIS2_PLACEMENT_3D('',#1225,#1226,#1227);
#1229=CIRCLE('',#1228,0.44);
#1230=EDGE_CURVE('',#1222,#1224,#1229,.T.);
#1231=ORIENTED_EDGE('',*,*,#1230,.F.);
#1232=CARTESIAN_POINT('',(-21.819702227,8.757310015,-13.915182704));
#1233=DIRECTION('',(0.,-1.,0.));
#1234=VECTOR('',#1233,0.009747444);
#1235=LINE('',#1232,#1234);
#1236=EDGE_CURVE('',#295,#1222,#1235,.T.);
#1237=ORIENTED_EDGE('',*,*,#1236,.F.);
#1238=ORIENTED_EDGE('',*,*,#324,.T.);
#1239=CARTESIAN_POINT('',(-21.56,-2.726376874,-14.));
#1240=DIRECTION('',(-0.,1.,-0.));
#1241=VECTOR('',#1240,11.483686889);
#1242=LINE('',#1239,#1241);
#1243=EDGE_CURVE('',#1012,#312,#1242,.T.);
#1244=ORIENTED_EDGE('',*,*,#1243,.F.);
#1245=ORIENTED_EDGE('',*,*,#1018,.F.);
#1246=CARTESIAN_POINT('',(-22.,8.747562571,-13.56));
#1247=DIRECTION('',(0.,-1.,0.));
#1248=VECTOR('',#1247,11.473939445);
#1249=LINE('',#1246,#1248);
#1250=EDGE_CURVE('',#1224,#1004,#1249,.T.);
#1251=ORIENTED_EDGE('',*,*,#1250,.F.);
#1252=EDGE_LOOP('',(#1231,#1237,#1238,#1244,#1245,#1251));
#1253=FACE_BOUND('',#1252,.T.);
#1254=ADVANCED_FACE('',(#1253),#1220,.T.);
#1255=CARTESIAN_POINT('',(-22.,47.51217235,-14.));
#1256=DIRECTION('',(0.,0.,-1.));
#1257=DIRECTION('',(-1.,0.,0.));
#1258=AXIS2_PLACEMENT_3D('',#1255,#1256,#1257);
#1259=PLANE('',#1258);
#1260=ORIENTED_EDGE('',*,*,#877,.T.);
#1261=ORIENTED_EDGE('',*,*,#844,.T.);
#1262=ORIENTED_EDGE('',*,*,#818,.T.);
#1263=ORIENTED_EDGE('',*,*,#793,.T.);
#1264=CARTESIAN_POINT('',(-10.06767413,2.951720557,-14.));
#1265=DIRECTION('',(-0.,-0.,1.));
#1266=DIRECTION('',(-1.,0.,0.));
#1267=AXIS2_PLACEMENT_3D('',#1264,#1265,#1266);
#1268=CIRCLE('',#1267,1.528312316);
#1269=EDGE_CURVE('',#778,#863,#1268,.T.);
#1270=ORIENTED_EDGE('',*,*,#1269,.T.);
#1271=EDGE_LOOP('',(#1260,#1261,#1262,#1263,#1270));
#1272=FACE_BOUND('',#1271,.T.);
#1273=ORIENTED_EDGE('',*,*,#1243,.T.);
#1274=ORIENTED_EDGE('',*,*,#317,.T.);
#1275=ORIENTED_EDGE('',*,*,#1173,.T.);
#1276=ORIENTED_EDGE('',*,*,#1026,.F.);
#1277=EDGE_LOOP('',(#1273,#1274,#1275,#1276));
#1278=FACE_BOUND('',#1277,.T.);
#1279=ADVANCED_FACE('',(#1272,#1278),#1259,.T.);
#1280=CARTESIAN_POINT('',(-21.727713573,6.618856839,15.289734135));
#1281=DIRECTION('',(-0.707106781,0.626070857,0.328687211));
#1282=DIRECTION('',(0.,0.464833911,-0.885397896));
#1283=AXIS2_PLACEMENT_3D('',#1280,#1281,#1282);
#1284=PLANE('',#1283);
#1285=CARTESIAN_POINT('',(-21.727713573,8.757310015,11.216490125));
#1286=DIRECTION('',(0.,-0.464833911,0.885397896));
#1287=VECTOR('',#1286,0.726052684);
#1288=LINE('',#1285,#1287);
#1289=EDGE_CURVE('',#353,#169,#1288,.T.);
#1290=ORIENTED_EDGE('',*,*,#1289,.F.);
#1291=ORIENTED_EDGE('',*,*,#358,.T.);
#1292=CARTESIAN_POINT('',(-22.,8.178734276,11.73276768));
#1293=DIRECTION('',(0.,0.464833911,-0.885397896));
#1294=VECTOR('',#1293,1.244693481);
#1295=LINE('',#1292,#1294);
#1296=EDGE_CURVE('',#1061,#345,#1295,.T.);
#1297=ORIENTED_EDGE('',*,*,#1296,.F.);
#1298=ORIENTED_EDGE('',*,*,#1066,.T.);
#1299=EDGE_LOOP('',(#1290,#1291,#1297,#1298));
#1300=FACE_BOUND('',#1299,.T.);
#1301=ADVANCED_FACE('',(#1300),#1284,.T.);
#1302=CARTESIAN_POINT('',(-101.242508416,6.618856839,15.289734135));
#1303=DIRECTION('',(0.,-0.885397896,-0.464833911));
#1304=DIRECTION('',(0.,0.464833911,-0.885397896));
#1305=AXIS2_PLACEMENT_3D('',#1302,#1303,#1304);
#1306=PLANE('',#1305);
#1307=ORIENTED_EDGE('',*,*,#366,.F.);
#1308=ORIENTED_EDGE('',*,*,#1289,.T.);
#1309=ORIENTED_EDGE('',*,*,#176,.T.);
#1310=CARTESIAN_POINT('',(-20.172125892,8.419816106,11.859335645));
#1311=DIRECTION('',(0.,0.464833911,-0.885397896));
#1312=VECTOR('',#1311,0.726052684);
#1313=LINE('',#1310,#1312);
#1314=EDGE_CURVE('',#171,#361,#1313,.T.);
#1315=ORIENTED_EDGE('',*,*,#1314,.T.);
#1316=EDGE_LOOP('',(#1307,#1308,#1309,#1315));
#1317=FACE_BOUND('',#1316,.T.);
#1318=ADVANCED_FACE('',(#1317),#1306,.F.);
#1319=CARTESIAN_POINT('',(-22.,47.51217235,14.));
#1320=DIRECTION('',(-1.,0.,0.));
#1321=DIRECTION('',(0.,0.,1.));
#1322=AXIS2_PLACEMENT_3D('',#1319,#1320,#1321);
#1323=PLANE('',#1322);
#1324=CARTESIAN_POINT('',(-22.,8.747562571,-11.615182704));
#1325=VERTEX_POINT('',#1324);
#1326=CARTESIAN_POINT('',(-22.,8.747562571,-13.56));
#1327=DIRECTION('',(0.,0.,1.));
#1328=VECTOR('',#1327,1.944817296);
#1329=LINE('',#1326,#1328);
#1330=EDGE_CURVE('',#1224,#1325,#1329,.T.);
#1331=ORIENTED_EDGE('',*,*,#1330,.F.);
#1332=ORIENTED_EDGE('',*,*,#1250,.T.);
#1333=ORIENTED_EDGE('',*,*,#1009,.F.);
#1334=ORIENTED_EDGE('',*,*,#718,.T.);
#1335=ORIENTED_EDGE('',*,*,#1073,.T.);
#1336=ORIENTED_EDGE('',*,*,#1296,.T.);
#1337=ORIENTED_EDGE('',*,*,#350,.T.);
#1338=CARTESIAN_POINT('',(-22.,8.747562571,-11.615182704));
#1339=DIRECTION('',(0.,1.,0.));
#1340=VECTOR('',#1339,0.009747444);
#1341=LINE('',#1338,#1340);
#1342=EDGE_CURVE('',#1325,#335,#1341,.T.);
#1343=ORIENTED_EDGE('',*,*,#1342,.F.);
#1344=EDGE_LOOP('',(#1331,#1332,#1333,#1334,#1335,#1336,#1337,#1343));
#1345=FACE_BOUND('',#1344,.T.);
#1346=ORIENTED_EDGE('',*,*,#760,.F.);
#1347=ORIENTED_EDGE('',*,*,#767,.F.);
#1348=EDGE_LOOP('',(#1346,#1347));
#1349=FACE_BOUND('',#1348,.T.);
#1350=ADVANCED_FACE('',(#1345,#1349),#1323,.T.);
#1351=CARTESIAN_POINT('',(19.946893677,47.51217235,14.));
#1352=DIRECTION('',(-1.,0.,0.));
#1353=DIRECTION('',(0.,0.,1.));
#1354=AXIS2_PLACEMENT_3D('',#1351,#1352,#1353);
#1355=PLANE('',#1354);
#1356=ORIENTED_EDGE('',*,*,#892,.F.);
#1357=ORIENTED_EDGE('',*,*,#215,.T.);
#1358=ORIENTED_EDGE('',*,*,#1139,.F.);
#1359=ORIENTED_EDGE('',*,*,#390,.T.);
#1360=ORIENTED_EDGE('',*,*,#1102,.T.);
#1361=ORIENTED_EDGE('',*,*,#128,.T.);
#1362=EDGE_LOOP('',(#1356,#1357,#1358,#1359,#1360,#1361));
#1363=FACE_BOUND('',#1362,.T.);
#1364=ORIENTED_EDGE('',*,*,#945,.F.);
#1365=ORIENTED_EDGE('',*,*,#952,.F.);
#1366=EDGE_LOOP('',(#1364,#1365));
#1367=FACE_BOUND('',#1366,.T.);
#1368=ADVANCED_FACE('',(#1363,#1367),#1355,.T.);
#1369=CARTESIAN_POINT('',(-20.172125892,47.51217235,-10.988193121));
#1370=DIRECTION('',(1.,0.,0.));
#1371=DIRECTION('',(0.,0.,-1.));
#1372=AXIS2_PLACEMENT_3D('',#1369,#1370,#1371);
#1373=PLANE('',#1372);
#1374=ORIENTED_EDGE('',*,*,#750,.F.);
#1375=EDGE_LOOP('',(#1374));
#1376=FACE_BOUND('',#1375,.T.);
#1377=ORIENTED_EDGE('',*,*,#1057,.T.);
#1378=ORIENTED_EDGE('',*,*,#702,.T.);
#1379=ORIENTED_EDGE('',*,*,#144,.T.);
#1380=ORIENTED_EDGE('',*,*,#1095,.F.);
#1381=ORIENTED_EDGE('',*,*,#374,.T.);
#1382=ORIENTED_EDGE('',*,*,#1314,.F.);
#1383=ORIENTED_EDGE('',*,*,#197,.F.);
#1384=EDGE_LOOP('',(#1377,#1378,#1379,#1380,#1381,#1382,#1383));
#1385=FACE_BOUND('',#1384,.T.);
#1386=ADVANCED_FACE('',(#1376,#1385),#1373,.T.);
#1387=CARTESIAN_POINT('',(-40.116971065,8.747562571,-183.720505235));
#1388=DIRECTION('',(0.,-1.,0.));
#1389=DIRECTION('',(0.,0.,-1.));
#1390=AXIS2_PLACEMENT_3D('',#1387,#1388,#1389);
#1391=PLANE('',#1390);
#1392=ORIENTED_EDGE('',*,*,#1196,.T.);
#1393=ORIENTED_EDGE('',*,*,#1160,.T.);
#1394=CARTESIAN_POINT('',(36.985471682,8.747562571,-13.915182704));
#1395=VERTEX_POINT('',#1394);
#1396=CARTESIAN_POINT('',(36.985471682,8.747562571,-13.915182704));
#1397=DIRECTION('',(-1.,0.,0.));
#1398=VECTOR('',#1397,15.168461394);
#1399=LINE('',#1396,#1398);
#1400=EDGE_CURVE('',#1395,#1154,#1399,.T.);
#1401=ORIENTED_EDGE('',*,*,#1400,.F.);
#1402=CARTESIAN_POINT('',(36.985471682,8.747562571,-11.615182704));
#1403=VERTEX_POINT('',#1402);
#1404=CARTESIAN_POINT('',(36.985471682,8.747562571,-11.615182704));
#1405=DIRECTION('',(-0.,-0.,-1.));
#1406=VECTOR('',#1405,2.3);
#1407=LINE('',#1404,#1406);
#1408=EDGE_CURVE('',#1403,#1395,#1407,.T.);
#1409=ORIENTED_EDGE('',*,*,#1408,.F.);
#1410=CARTESIAN_POINT('',(22.,8.747562571,-11.615182704));
#1411=DIRECTION('',(1.,0.,-0.));
#1412=VECTOR('',#1411,14.985471682);
#1413=LINE('',#1410,#1412);
#1414=EDGE_CURVE('',#1191,#1403,#1413,.T.);
#1415=ORIENTED_EDGE('',*,*,#1414,.F.);
#1416=EDGE_LOOP('',(#1392,#1393,#1401,#1409,#1415));
#1417=FACE_BOUND('',#1416,.T.);
#1418=ADVANCED_FACE('',(#1417),#1391,.T.);
#1419=CARTESIAN_POINT('',(-40.116971065,8.747562571,-183.720505235));
#1420=DIRECTION('',(0.,-1.,0.));
#1421=DIRECTION('',(0.,0.,-1.));
#1422=AXIS2_PLACEMENT_3D('',#1419,#1420,#1421);
#1423=PLANE('',#1422);
#1424=CARTESIAN_POINT('',(-36.936791816,8.747562571,-13.915182704));
#1425=VERTEX_POINT('',#1424);
#1426=CARTESIAN_POINT('',(-21.819702227,8.747562571,-13.915182704));
#1427=DIRECTION('',(-1.,0.,0.));
#1428=VECTOR('',#1427,15.117089588);
#1429=LINE('',#1426,#1428);
#1430=EDGE_CURVE('',#1222,#1425,#1429,.T.);
#1431=ORIENTED_EDGE('',*,*,#1430,.F.);
#1432=ORIENTED_EDGE('',*,*,#1230,.T.);
#1433=ORIENTED_EDGE('',*,*,#1330,.T.);
#1434=CARTESIAN_POINT('',(-36.936791816,8.747562571,-11.615182704));
#1435=VERTEX_POINT('',#1434);
#1436=CARTESIAN_POINT('',(-36.936791816,8.747562571,-11.615182704));
#1437=DIRECTION('',(1.,0.,-0.));
#1438=VECTOR('',#1437,14.936791816);
#1439=LINE('',#1436,#1438);
#1440=EDGE_CURVE('',#1435,#1325,#1439,.T.);
#1441=ORIENTED_EDGE('',*,*,#1440,.F.);
#1442=CARTESIAN_POINT('',(-36.936791816,8.747562571,-13.915182704));
#1443=DIRECTION('',(-0.,-0.,1.));
#1444=VECTOR('',#1443,2.3);
#1445=LINE('',#1442,#1444);
#1446=EDGE_CURVE('',#1425,#1435,#1445,.T.);
#1447=ORIENTED_EDGE('',*,*,#1446,.F.);
#1448=EDGE_LOOP('',(#1431,#1432,#1433,#1441,#1447));
#1449=FACE_BOUND('',#1448,.T.);
#1450=ADVANCED_FACE('',(#1449),#1423,.T.);
#1451=CARTESIAN_POINT('',(0.,32.837043358,-13.915182704));
#1452=DIRECTION('',(0.,1.,0.));
#1453=DIRECTION('',(0.,0.,1.));
#1454=AXIS2_PLACEMENT_3D('',#1451,#1452,#1453);
#1455=PLANE('',#1454);
#1456=CARTESIAN_POINT('',(-44.,32.837043358,-13.915182704));
#1457=VERTEX_POINT('',#1456);
#1458=CARTESIAN_POINT('',(-44.,32.837043358,-11.615182704));
#1459=VERTEX_POINT('',#1458);
#1460=CARTESIAN_POINT('',(-44.,32.837043358,-13.915182704));
#1461=DIRECTION('',(0.,0.,1.));
#1462=VECTOR('',#1461,2.3);
#1463=LINE('',#1460,#1462);
#1464=EDGE_CURVE('',#1457,#1459,#1463,.T.);
#1465=ORIENTED_EDGE('',*,*,#1464,.T.);
#1466=CARTESIAN_POINT('',(44.,32.837043358,-11.615182704));
#1467=VERTEX_POINT('',#1466);
#1468=CARTESIAN_POINT('',(-44.,32.837043358,-11.615182704));
#1469=DIRECTION('',(1.,0.,-0.));
#1470=VECTOR('',#1469,88.);
#1471=LINE('',#1468,#1470);
#1472=EDGE_CURVE('',#1459,#1467,#1471,.T.);
#1473=ORIENTED_EDGE('',*,*,#1472,.T.);
#1474=CARTESIAN_POINT('',(44.,32.837043358,-13.915182704));
#1475=VERTEX_POINT('',#1474);
#1476=CARTESIAN_POINT('',(44.,32.837043358,-13.915182704));
#1477=DIRECTION('',(0.,0.,1.));
#1478=VECTOR('',#1477,2.3);
#1479=LINE('',#1476,#1478);
#1480=EDGE_CURVE('',#1475,#1467,#1479,.T.);
#1481=ORIENTED_EDGE('',*,*,#1480,.F.);
#1482=CARTESIAN_POINT('',(44.,32.837043358,-13.915182704));
#1483=DIRECTION('',(-1.,0.,0.));
#1484=VECTOR('',#1483,88.);
#1485=LINE('',#1482,#1484);
#1486=EDGE_CURVE('',#1475,#1457,#1485,.T.);
#1487=ORIENTED_EDGE('',*,*,#1486,.T.);
#1488=EDGE_LOOP('',(#1465,#1473,#1481,#1487));
#1489=FACE_BOUND('',#1488,.T.);
#1490=ADVANCED_FACE('',(#1489),#1455,.T.);
#1491=CARTESIAN_POINT('',(-37.393042982,25.337043358,-158.496901969));
#1492=DIRECTION('',(0.,0.,1.));
#1493=DIRECTION('',(1.,0.,-0.));
#1494=AXIS2_PLACEMENT_3D('',#1491,#1492,#1493);
#1495=CYLINDRICAL_SURFACE('',#1494,2.);
#1496=CARTESIAN_POINT('',(-35.393042982,25.337043358,-11.615182704));
#1497=VERTEX_POINT('',#1496);
#1498=CARTESIAN_POINT('',(-35.393042982,25.337043358,-13.915182704));
#1499=VERTEX_POINT('',#1498);
#1500=CARTESIAN_POINT('',(-35.393042982,25.337043358,-11.615182704));
#1501=DIRECTION('',(-0.,-0.,-1.));
#1502=VECTOR('',#1501,2.3);
#1503=LINE('',#1500,#1502);
#1504=EDGE_CURVE('',#1497,#1499,#1503,.T.);
#1505=ORIENTED_EDGE('',*,*,#1504,.F.);
#1506=CARTESIAN_POINT('',(-37.393042982,25.337043358,-11.615182704));
#1507=DIRECTION('',(0.,0.,1.));
#1508=DIRECTION('',(1.,0.,-0.));
#1509=AXIS2_PLACEMENT_3D('',#1506,#1507,#1508);
#1510=CIRCLE('',#1509,2.);
#1511=EDGE_CURVE('',#1497,#1497,#1510,.T.);
#1512=ORIENTED_EDGE('',*,*,#1511,.T.);
#1513=ORIENTED_EDGE('',*,*,#1504,.T.);
#1514=CARTESIAN_POINT('',(-39.393042982,25.337043358,-13.915182704));
#1515=VERTEX_POINT('',#1514);
#1516=CARTESIAN_POINT('',(-37.393042982,25.337043358,-13.915182704));
#1517=DIRECTION('',(0.,0.,-1.));
#1518=DIRECTION('',(-1.,0.,0.));
#1519=AXIS2_PLACEMENT_3D('',#1516,#1517,#1518);
#1520=CIRCLE('',#1519,2.);
#1521=EDGE_CURVE('',#1499,#1515,#1520,.T.);
#1522=ORIENTED_EDGE('',*,*,#1521,.T.);
#1523=CARTESIAN_POINT('',(-37.393042982,25.337043358,-13.915182704));
#1524=DIRECTION('',(0.,0.,-1.));
#1525=DIRECTION('',(-1.,0.,0.));
#1526=AXIS2_PLACEMENT_3D('',#1523,#1524,#1525);
#1527=CIRCLE('',#1526,2.);
#1528=EDGE_CURVE('',#1515,#1499,#1527,.T.);
#1529=ORIENTED_EDGE('',*,*,#1528,.T.);
#1530=EDGE_LOOP('',(#1505,#1512,#1513,#1522,#1529));
#1531=FACE_BOUND('',#1530,.T.);
#1532=ADVANCED_FACE('',(#1531),#1495,.F.);
#1533=CARTESIAN_POINT('',(37.66273849,25.337043358,-162.409889336));
#1534=DIRECTION('',(0.,0.,1.));
#1535=DIRECTION('',(1.,0.,-0.));
#1536=AXIS2_PLACEMENT_3D('',#1533,#1534,#1535);
#1537=CYLINDRICAL_SURFACE('',#1536,2.);
#1538=CARTESIAN_POINT('',(39.66273849,25.337043358,-11.615182704));
#1539=VERTEX_POINT('',#1538);
#1540=CARTESIAN_POINT('',(39.66273849,25.337043358,-13.915182704));
#1541=VERTEX_POINT('',#1540);
#1542=CARTESIAN_POINT('',(39.66273849,25.337043358,-11.615182704));
#1543=DIRECTION('',(-0.,-0.,-1.));
#1544=VECTOR('',#1543,2.3);
#1545=LINE('',#1542,#1544);
#1546=EDGE_CURVE('',#1539,#1541,#1545,.T.);
#1547=ORIENTED_EDGE('',*,*,#1546,.F.);
#1548=CARTESIAN_POINT('',(37.66273849,25.337043358,-11.615182704));
#1549=DIRECTION('',(0.,0.,1.));
#1550=DIRECTION('',(1.,0.,-0.));
#1551=AXIS2_PLACEMENT_3D('',#1548,#1549,#1550);
#1552=CIRCLE('',#1551,2.);
#1553=EDGE_CURVE('',#1539,#1539,#1552,.T.);
#1554=ORIENTED_EDGE('',*,*,#1553,.T.);
#1555=ORIENTED_EDGE('',*,*,#1546,.T.);
#1556=CARTESIAN_POINT('',(35.66273849,25.337043358,-13.915182704));
#1557=VERTEX_POINT('',#1556);
#1558=CARTESIAN_POINT('',(37.66273849,25.337043358,-13.915182704));
#1559=DIRECTION('',(0.,0.,-1.));
#1560=DIRECTION('',(-1.,0.,0.));
#1561=AXIS2_PLACEMENT_3D('',#1558,#1559,#1560);
#1562=CIRCLE('',#1561,2.);
#1563=EDGE_CURVE('',#1541,#1557,#1562,.T.);
#1564=ORIENTED_EDGE('',*,*,#1563,.T.);
#1565=CARTESIAN_POINT('',(37.66273849,25.337043358,-13.915182704));
#1566=DIRECTION('',(0.,0.,-1.));
#1567=DIRECTION('',(-1.,0.,0.));
#1568=AXIS2_PLACEMENT_3D('',#1565,#1566,#1567);
#1569=CIRCLE('',#1568,2.);
#1570=EDGE_CURVE('',#1557,#1541,#1569,.T.);
#1571=ORIENTED_EDGE('',*,*,#1570,.T.);
#1572=EDGE_LOOP('',(#1547,#1554,#1555,#1564,#1571));
#1573=FACE_BOUND('',#1572,.T.);
#1574=ADVANCED_FACE('',(#1573),#1537,.F.);
#1575=CARTESIAN_POINT('',(-44.,19.837043358,-13.915182704));
#1576=DIRECTION('',(-1.,0.,0.));
#1577=DIRECTION('',(0.,0.,1.));
#1578=AXIS2_PLACEMENT_3D('',#1575,#1576,#1577);
#1579=PLANE('',#1578);
#1580=CARTESIAN_POINT('',(-44.,15.810770755,-13.915182704));
#1581=VERTEX_POINT('',#1580);
#1582=CARTESIAN_POINT('',(-44.,32.837043358,-13.915182704));
#1583=DIRECTION('',(0.,-1.,0.));
#1584=VECTOR('',#1583,17.026272603);
#1585=LINE('',#1582,#1584);
#1586=EDGE_CURVE('',#1457,#1581,#1585,.T.);
#1587=ORIENTED_EDGE('',*,*,#1586,.T.);
#1588=CARTESIAN_POINT('',(-44.,15.810770755,-11.615182704));
#1589=VERTEX_POINT('',#1588);
#1590=CARTESIAN_POINT('',(-44.,15.810770755,-13.915182704));
#1591=DIRECTION('',(0.,0.,1.));
#1592=VECTOR('',#1591,2.3);
#1593=LINE('',#1590,#1592);
#1594=EDGE_CURVE('',#1581,#1589,#1593,.T.);
#1595=ORIENTED_EDGE('',*,*,#1594,.T.);
#1596=CARTESIAN_POINT('',(-44.,15.810770755,-11.615182704));
#1597=DIRECTION('',(0.,1.,0.));
#1598=VECTOR('',#1597,17.026272603);
#1599=LINE('',#1596,#1598);
#1600=EDGE_CURVE('',#1589,#1459,#1599,.T.);
#1601=ORIENTED_EDGE('',*,*,#1600,.T.);
#1602=ORIENTED_EDGE('',*,*,#1464,.F.);
#1603=EDGE_LOOP('',(#1587,#1595,#1601,#1602));
#1604=FACE_BOUND('',#1603,.T.);
#1605=ADVANCED_FACE('',(#1604),#1579,.T.);
#1606=CARTESIAN_POINT('',(44.,19.837043358,-13.915182704));
#1607=DIRECTION('',(1.,0.,0.));
#1608=DIRECTION('',(0.,0.,-1.));
#1609=AXIS2_PLACEMENT_3D('',#1606,#1607,#1608);
#1610=PLANE('',#1609);
#1611=CARTESIAN_POINT('',(44.,15.762090889,-11.615182704));
#1612=VERTEX_POINT('',#1611);
#1613=CARTESIAN_POINT('',(44.,32.837043358,-11.615182704));
#1614=DIRECTION('',(0.,-1.,0.));
#1615=VECTOR('',#1614,17.074952469);
#1616=LINE('',#1613,#1615);
#1617=EDGE_CURVE('',#1467,#1612,#1616,.T.);
#1618=ORIENTED_EDGE('',*,*,#1617,.T.);
#1619=CARTESIAN_POINT('',(44.,15.762090889,-13.915182704));
#1620=VERTEX_POINT('',#1619);
#1621=CARTESIAN_POINT('',(44.,15.762090889,-11.615182704));
#1622=DIRECTION('',(0.,0.,-1.));
#1623=VECTOR('',#1622,2.3);
#1624=LINE('',#1621,#1623);
#1625=EDGE_CURVE('',#1612,#1620,#1624,.T.);
#1626=ORIENTED_EDGE('',*,*,#1625,.T.);
#1627=CARTESIAN_POINT('',(44.,15.762090889,-13.915182704));
#1628=DIRECTION('',(0.,1.,0.));
#1629=VECTOR('',#1628,17.074952469);
#1630=LINE('',#1627,#1629);
#1631=EDGE_CURVE('',#1620,#1475,#1630,.T.);
#1632=ORIENTED_EDGE('',*,*,#1631,.T.);
#1633=ORIENTED_EDGE('',*,*,#1480,.T.);
#1634=EDGE_LOOP('',(#1618,#1626,#1632,#1633));
#1635=FACE_BOUND('',#1634,.T.);
#1636=ADVANCED_FACE('',(#1635),#1610,.T.);
#1637=CARTESIAN_POINT('',(-44.,15.810770755,-13.915182704));
#1638=DIRECTION('',(0.707106781,0.707106781,0.));
#1639=DIRECTION('',(0.,0.,1.));
#1640=AXIS2_PLACEMENT_3D('',#1637,#1638,#1639);
#1641=PLANE('',#1640);
#1642=CARTESIAN_POINT('',(-36.936791816,8.747562571,-13.915182704));
#1643=DIRECTION('',(-0.707106781,0.707106781,-0.));
#1644=VECTOR('',#1643,9.988884808);
#1645=LINE('',#1642,#1644);
#1646=EDGE_CURVE('',#1425,#1581,#1645,.T.);
#1647=ORIENTED_EDGE('',*,*,#1646,.F.);
#1648=ORIENTED_EDGE('',*,*,#1446,.T.);
#1649=CARTESIAN_POINT('',(-44.,15.810770755,-11.615182704));
#1650=DIRECTION('',(0.707106781,-0.707106781,-0.));
#1651=VECTOR('',#1650,9.988884808);
#1652=LINE('',#1649,#1651);
#1653=EDGE_CURVE('',#1589,#1435,#1652,.T.);
#1654=ORIENTED_EDGE('',*,*,#1653,.F.);
#1655=ORIENTED_EDGE('',*,*,#1594,.F.);
#1656=EDGE_LOOP('',(#1647,#1648,#1654,#1655));
#1657=FACE_BOUND('',#1656,.T.);
#1658=ADVANCED_FACE('',(#1657),#1641,.F.);
#1659=CARTESIAN_POINT('',(35.074952469,6.837043358,-13.915182704));
#1660=DIRECTION('',(-0.707106781,0.707106781,0.));
#1661=DIRECTION('',(0.,0.,1.));
#1662=AXIS2_PLACEMENT_3D('',#1659,#1660,#1661);
#1663=PLANE('',#1662);
#1664=CARTESIAN_POINT('',(36.985471682,8.747562571,-11.615182704));
#1665=DIRECTION('',(0.707106781,0.707106781,-0.));
#1666=VECTOR('',#1665,9.920041081);
#1667=LINE('',#1664,#1666);
#1668=EDGE_CURVE('',#1403,#1612,#1667,.T.);
#1669=ORIENTED_EDGE('',*,*,#1668,.F.);
#1670=ORIENTED_EDGE('',*,*,#1408,.T.);
#1671=CARTESIAN_POINT('',(44.,15.762090889,-13.915182704));
#1672=DIRECTION('',(-0.707106781,-0.707106781,-0.));
#1673=VECTOR('',#1672,9.920041081);
#1674=LINE('',#1671,#1673);
#1675=EDGE_CURVE('',#1620,#1395,#1674,.T.);
#1676=ORIENTED_EDGE('',*,*,#1675,.F.);
#1677=ORIENTED_EDGE('',*,*,#1625,.F.);
#1678=EDGE_LOOP('',(#1669,#1670,#1676,#1677));
#1679=FACE_BOUND('',#1678,.T.);
#1680=ADVANCED_FACE('',(#1679),#1663,.F.);
#1681=CARTESIAN_POINT('',(0.,19.837043358,-13.915182704));
#1682=DIRECTION('',(0.,0.,-1.));
#1683=DIRECTION('',(-1.,0.,0.));
#1684=AXIS2_PLACEMENT_3D('',#1681,#1682,#1683);
#1685=PLANE('',#1684);
#1686=ORIENTED_EDGE('',*,*,#1563,.F.);
#1687=ORIENTED_EDGE('',*,*,#1570,.F.);
#1688=EDGE_LOOP('',(#1686,#1687));
#1689=FACE_BOUND('',#1688,.T.);
#1690=ORIENTED_EDGE('',*,*,#1521,.F.);
#1691=ORIENTED_EDGE('',*,*,#1528,.F.);
#1692=EDGE_LOOP('',(#1690,#1691));
#1693=FACE_BOUND('',#1692,.T.);
#1694=ORIENTED_EDGE('',*,*,#1400,.T.);
#1695=ORIENTED_EDGE('',*,*,#1180,.T.);
#1696=ORIENTED_EDGE('',*,*,#300,.T.);
#1697=ORIENTED_EDGE('',*,*,#1236,.T.);
#1698=ORIENTED_EDGE('',*,*,#1430,.T.);
#1699=ORIENTED_EDGE('',*,*,#1646,.T.);
#1700=ORIENTED_EDGE('',*,*,#1586,.F.);
#1701=ORIENTED_EDGE('',*,*,#1486,.F.);
#1702=ORIENTED_EDGE('',*,*,#1631,.F.);
#1703=ORIENTED_EDGE('',*,*,#1675,.T.);
#1704=EDGE_LOOP('',(#1694,#1695,#1696,#1697,#1698,#1699,#1700,#1701,#1702,#1703));
#1705=FACE_BOUND('',#1704,.T.);
#1706=ADVANCED_FACE('',(#1689,#1693,#1705),#1685,.T.);
#1707=CARTESIAN_POINT('',(0.,19.837043358,-11.615182704));
#1708=DIRECTION('',(0.,0.,1.));
#1709=DIRECTION('',(1.,0.,0.));
#1710=AXIS2_PLACEMENT_3D('',#1707,#1708,#1709);
#1711=PLANE('',#1710);
#1712=ORIENTED_EDGE('',*,*,#1553,.F.);
#1713=EDGE_LOOP('',(#1712));
#1714=FACE_BOUND('',#1713,.T.);
#1715=ORIENTED_EDGE('',*,*,#1511,.F.);
#1716=EDGE_LOOP('',(#1715));
#1717=FACE_BOUND('',#1716,.T.);
#1718=ORIENTED_EDGE('',*,*,#342,.T.);
#1719=ORIENTED_EDGE('',*,*,#1202,.T.);
#1720=ORIENTED_EDGE('',*,*,#1414,.T.);
#1721=ORIENTED_EDGE('',*,*,#1668,.T.);
#1722=ORIENTED_EDGE('',*,*,#1617,.F.);
#1723=ORIENTED_EDGE('',*,*,#1472,.F.);
#1724=ORIENTED_EDGE('',*,*,#1600,.F.);
#1725=ORIENTED_EDGE('',*,*,#1653,.T.);
#1726=ORIENTED_EDGE('',*,*,#1440,.T.);
#1727=ORIENTED_EDGE('',*,*,#1342,.T.);
#1728=EDGE_LOOP('',(#1718,#1719,#1720,#1721,#1722,#1723,#1724,#1725,#1726,#1727));
#1729=FACE_BOUND('',#1728,.T.);
#1730=ADVANCED_FACE('',(#1714,#1717,#1729),#1711,.T.);
#1731=CARTESIAN_POINT('',(-4.989345145,121.220242777,-7.036659164));
#1732=DIRECTION('',(0.,-1.,0.));
#1733=DIRECTION('',(1.,0.,0.));
#1734=AXIS2_PLACEMENT_3D('',#1731,#1732,#1733);
#1735=CYLINDRICAL_SURFACE('',#1734,1.);
#1736=CARTESIAN_POINT('',(-3.989345145,-2.726376874,-7.036659164));
#1737=DIRECTION('',(-0.,1.,-0.));
#1738=VECTOR('',#1737,3.);
#1739=LINE('',#1736,#1738);
#1740=EDGE_CURVE('',#983,#53,#1739,.T.);
#1741=ORIENTED_EDGE('',*,*,#1740,.F.);
#1742=ORIENTED_EDGE('',*,*,#989,.T.);
#1743=ORIENTED_EDGE('',*,*,#1740,.T.);
#1744=ORIENTED_EDGE('',*,*,#61,.T.);
#1745=ORIENTED_EDGE('',*,*,#68,.T.);
#1746=EDGE_LOOP('',(#1741,#1742,#1743,#1744,#1745));
#1747=FACE_BOUND('',#1746,.T.);
#1748=ADVANCED_FACE('',(#1747),#1735,.F.);
#1749=CARTESIAN_POINT('',(5.020570556,107.390076275,-7.036659164));
#1750=DIRECTION('',(0.,-1.,0.));
#1751=DIRECTION('',(0.,0.,-1.));
#1752=AXIS2_PLACEMENT_3D('',#1749,#1750,#1751);
#1753=CYLINDRICAL_SURFACE('',#1752,1.);
#1754=CARTESIAN_POINT('',(5.020570556,-2.726376874,-8.036659164));
#1755=DIRECTION('',(-0.,1.,-0.));
#1756=VECTOR('',#1755,3.);
#1757=LINE('',#1754,#1756);
#1758=EDGE_CURVE('',#963,#33,#1757,.T.);
#1759=ORIENTED_EDGE('',*,*,#1758,.F.);
#1760=ORIENTED_EDGE('',*,*,#971,.T.);
#1761=ORIENTED_EDGE('',*,*,#978,.T.);
#1762=ORIENTED_EDGE('',*,*,#1758,.T.);
#1763=ORIENTED_EDGE('',*,*,#41,.T.);
#1764=ORIENTED_EDGE('',*,*,#48,.T.);
#1765=EDGE_LOOP('',(#1759,#1760,#1761,#1762,#1763,#1764));
#1766=FACE_BOUND('',#1765,.T.);
#1767=ADVANCED_FACE('',(#1766),#1753,.F.);
#1768=CARTESIAN_POINT('',(-10.06767413,2.951720557,-13.471687684));
#1769=DIRECTION('',(0.,0.,-1.));
#1770=DIRECTION('',(-1.,0.,0.));
#1771=AXIS2_PLACEMENT_3D('',#1768,#1769,#1770);
#1772=TOROIDAL_SURFACE('',#1771,1.528312316,0.528312316);
#1773=ORIENTED_EDGE('',*,*,#784,.F.);
#1774=ORIENTED_EDGE('',*,*,#669,.F.);
#1775=ORIENTED_EDGE('',*,*,#869,.F.);
#1776=ORIENTED_EDGE('',*,*,#1269,.F.);
#1777=EDGE_LOOP('',(#1773,#1774,#1775,#1776));
#1778=FACE_BOUND('',#1777,.T.);
#1779=ADVANCED_FACE('',(#1778),#1772,.T.);
#1780=CLOSED_SHELL('',(#162,#201,#241,#286,#328,#417,#452,#487,#527,#551,#591,#624,#655,#688,#729,#771,#805,#830,#856,#881,#914,#956,#1046,#1078,#1106,#1128,
#1145,#1184,#1215,#1254,#1279,#1301,#1318,#1350,#1368,#1386,#1418,#1450,#1490,#1532,#1574,#1605,#1636,#1658,#1680,#1706,#1730,#1748,#1767,#1779));
#1781=MANIFOLD_SOLID_BREP('Solid 76',#1780);
#26=STYLED_ITEM('',(),#1781);
#16=SHAPE_REPRESENTATION('root',(#15),#10);
#17=ADVANCED_BREP_SHAPE_REPRESENTATION('root',(#1781),#10);
#1789=SHAPE_REPRESENTATION_RELATIONSHIP('','',#16,#17);
#1790=APPLICATION_CONTEXT('configuration controlled 3D design of mechanical parts and assemblies');
#1791=APPLICATION_PROTOCOL_DEFINITION('international standard','configuration_control_3d_design_ed2_mim',2004,#1790);
#1792=PRODUCT_CONTEXT('',#1790,'mechanical');
#1793=PRODUCT_DEFINITION_CONTEXT('part definition',#1790,'design');
#24=PRODUCT('root','root','',(#1792));
#1794=PRODUCT_RELATED_PRODUCT_CATEGORY('part','',(#24));
#1795=PRODUCT_DEFINITION_FORMATION_WITH_SPECIFIED_SOURCE('','',#24,.NOT_KNOWN.);
#25=PRODUCT_DEFINITION('design','',#1795,#1793);
#23=PRODUCT_DEFINITION_SHAPE('','',#25);
#1796=SHAPE_DEFINITION_REPRESENTATION(#23,#16);
#11=DRAUGHTING_MODEL('',(),#10);
#1=MECHANICAL_DESIGN_GEOMETRIC_PRESENTATION_REPRESENTATION('',(#26),#10);
ENDSEC;
END-ISO-10303-21;
